%TF.GenerationSoftware,KiCad,Pcbnew,9.0.5*%
%TF.CreationDate,2026-05-06T17:54:18+02:00*%
%TF.ProjectId,max31865_stack,6d617833-3138-4363-955f-737461636b2e,rev?*%
%TF.SameCoordinates,Original*%
%TF.FileFunction,Soldermask,Top*%
%TF.FilePolarity,Negative*%
%FSLAX46Y46*%
G04 Gerber Fmt 4.6, Leading zero omitted, Abs format (unit mm)*
G04 Created by KiCad (PCBNEW 9.0.5) date 2026-05-06 17:54:18*
%MOMM*%
%LPD*%
G01*
G04 APERTURE LIST*
G04 Aperture macros list*
%AMRoundRect*
0 Rectangle with rounded corners*
0 $1 Rounding radius*
0 $2 $3 $4 $5 $6 $7 $8 $9 X,Y pos of 4 corners*
0 Add a 4 corners polygon primitive as box body*
4,1,4,$2,$3,$4,$5,$6,$7,$8,$9,$2,$3,0*
0 Add four circle primitives for the rounded corners*
1,1,$1+$1,$2,$3*
1,1,$1+$1,$4,$5*
1,1,$1+$1,$6,$7*
1,1,$1+$1,$8,$9*
0 Add four rect primitives between the rounded corners*
20,1,$1+$1,$2,$3,$4,$5,0*
20,1,$1+$1,$4,$5,$6,$7,0*
20,1,$1+$1,$6,$7,$8,$9,0*
20,1,$1+$1,$8,$9,$2,$3,0*%
G04 Aperture macros list end*
%ADD10C,3.200000*%
%ADD11C,1.778000*%
%ADD12C,2.184400*%
%ADD13O,2.080000X3.600000*%
%ADD14RoundRect,0.249999X0.790001X1.550001X-0.790001X1.550001X-0.790001X-1.550001X0.790001X-1.550001X0*%
%ADD15C,1.700000*%
%ADD16R,1.700000X1.700000*%
%ADD17C,1.200000*%
G04 APERTURE END LIST*
D10*
%TO.C,IC4*%
X128040001Y-44770000D03*
X148360001Y-44770000D03*
D11*
X129311001Y-67503000D03*
X131851101Y-67503000D03*
X134391101Y-67503000D03*
X136931101Y-67503000D03*
X139471101Y-67503000D03*
X142011101Y-67503000D03*
X144551101Y-67503000D03*
X147091101Y-67503000D03*
D12*
X132972101Y-45913000D03*
X136472101Y-45913000D03*
X139957101Y-45913000D03*
X143457101Y-45913000D03*
%TD*%
D13*
%TO.C,J8*%
X245380000Y-38230000D03*
X250460000Y-38230000D03*
X255540000Y-38230000D03*
D14*
X260620000Y-38230000D03*
%TD*%
D13*
%TO.C,J7*%
X216680000Y-38230000D03*
X221760000Y-38230000D03*
X226840000Y-38230000D03*
D14*
X231920000Y-38230000D03*
%TD*%
D13*
%TO.C,J6*%
X187980000Y-38230000D03*
X193060000Y-38230000D03*
X198140000Y-38230000D03*
D14*
X203220000Y-38230000D03*
%TD*%
D13*
%TO.C,J5*%
X159280000Y-38230000D03*
X164360000Y-38230000D03*
X169440000Y-38230000D03*
D14*
X174520000Y-38230000D03*
%TD*%
D13*
%TO.C,J4*%
X130580000Y-38230000D03*
X135660000Y-38230000D03*
X140740000Y-38230000D03*
D14*
X145820000Y-38230000D03*
%TD*%
D13*
%TO.C,J3*%
X101880000Y-38230000D03*
X106960000Y-38230000D03*
X112040000Y-38230000D03*
D14*
X117120000Y-38230000D03*
%TD*%
D13*
%TO.C,J2*%
X73180000Y-38230000D03*
X78260000Y-38230000D03*
X83340000Y-38230000D03*
D14*
X88420000Y-38230000D03*
%TD*%
D13*
%TO.C,J1*%
X44480000Y-38230000D03*
X49560000Y-38230000D03*
X54640000Y-38230000D03*
D14*
X59720000Y-38230000D03*
%TD*%
D12*
%TO.C,IC1*%
X57357100Y-45913000D03*
X53857100Y-45913000D03*
X50372100Y-45913000D03*
X46872100Y-45913000D03*
D11*
X60991100Y-67503000D03*
X58451100Y-67503000D03*
X55911100Y-67503000D03*
X53371100Y-67503000D03*
X50831100Y-67503000D03*
X48291100Y-67503000D03*
X45751100Y-67503000D03*
X43211000Y-67503000D03*
D10*
X62260000Y-44770000D03*
X41940000Y-44770000D03*
%TD*%
D12*
%TO.C,IC2*%
X86057101Y-45913000D03*
X82557101Y-45913000D03*
X79072101Y-45913000D03*
X75572101Y-45913000D03*
D11*
X89691101Y-67503000D03*
X87151101Y-67503000D03*
X84611101Y-67503000D03*
X82071101Y-67503000D03*
X79531101Y-67503000D03*
X76991101Y-67503000D03*
X74451101Y-67503000D03*
X71911001Y-67503000D03*
D10*
X90960001Y-44770000D03*
X70640001Y-44770000D03*
%TD*%
D12*
%TO.C,IC7*%
X229557098Y-45913000D03*
X226057098Y-45913000D03*
X222572098Y-45913000D03*
X219072098Y-45913000D03*
D11*
X233191098Y-67503000D03*
X230651098Y-67503000D03*
X228111098Y-67503000D03*
X225571098Y-67503000D03*
X223031098Y-67503000D03*
X220491098Y-67503000D03*
X217951098Y-67503000D03*
X215410998Y-67503000D03*
D10*
X234459998Y-44770000D03*
X214139998Y-44770000D03*
%TD*%
D15*
%TO.C,J9*%
X161439999Y-74180000D03*
X158899999Y-74180000D03*
X156359999Y-74180000D03*
X153819999Y-74180000D03*
X151279999Y-74180000D03*
X148739999Y-74180000D03*
X146199999Y-74180000D03*
D16*
X143659999Y-74180000D03*
%TD*%
D12*
%TO.C,IC5*%
X172157100Y-45913000D03*
X168657100Y-45913000D03*
X165172100Y-45913000D03*
X161672100Y-45913000D03*
D11*
X175791100Y-67503000D03*
X173251100Y-67503000D03*
X170711100Y-67503000D03*
X168171100Y-67503000D03*
X165631100Y-67503000D03*
X163091100Y-67503000D03*
X160551100Y-67503000D03*
X158011000Y-67503000D03*
D10*
X177060000Y-44770000D03*
X156740000Y-44770000D03*
%TD*%
D12*
%TO.C,IC3*%
X114757101Y-45913000D03*
X111257101Y-45913000D03*
X107772101Y-45913000D03*
X104272101Y-45913000D03*
D11*
X118391101Y-67503000D03*
X115851101Y-67503000D03*
X113311101Y-67503000D03*
X110771101Y-67503000D03*
X108231101Y-67503000D03*
X105691101Y-67503000D03*
X103151101Y-67503000D03*
X100611001Y-67503000D03*
D10*
X119660001Y-44770000D03*
X99340001Y-44770000D03*
%TD*%
D12*
%TO.C,IC8*%
X258257099Y-45913000D03*
X254757099Y-45913000D03*
X251272099Y-45913000D03*
X247772099Y-45913000D03*
D11*
X261891099Y-67503000D03*
X259351099Y-67503000D03*
X256811099Y-67503000D03*
X254271099Y-67503000D03*
X251731099Y-67503000D03*
X249191099Y-67503000D03*
X246651099Y-67503000D03*
X244110999Y-67503000D03*
D10*
X263159999Y-44770000D03*
X242839999Y-44770000D03*
%TD*%
D15*
%TO.C,J10*%
X132740000Y-74180000D03*
X130200000Y-74180000D03*
X127660000Y-74180000D03*
X125120000Y-74180000D03*
X122580000Y-74180000D03*
X120040000Y-74180000D03*
X117500000Y-74180000D03*
D16*
X114960000Y-74180000D03*
%TD*%
D12*
%TO.C,IC6*%
X200857101Y-45913000D03*
X197357101Y-45913000D03*
X193872101Y-45913000D03*
X190372101Y-45913000D03*
D11*
X204491101Y-67503000D03*
X201951101Y-67503000D03*
X199411101Y-67503000D03*
X196871101Y-67503000D03*
X194331101Y-67503000D03*
X191791101Y-67503000D03*
X189251101Y-67503000D03*
X186711001Y-67503000D03*
D10*
X205760001Y-44770000D03*
X185440001Y-44770000D03*
%TD*%
D17*
%TO.C,C2*%
X166010000Y-73840000D03*
X167424214Y-75254214D03*
%TD*%
M02*
