M48
; DRILL file {KiCad 9.0.5} date 2026-05-06T17:54:18+0200
; FORMAT={-:-/ absolute / inch / decimal}
; #@! TF.CreationDate,2026-05-06T17:54:18+02:00
; #@! TF.GenerationSoftware,Kicad,Pcbnew,9.0.5
; #@! TF.FileFunction,Plated,1,2,PTH
FMAT,2
INCH
; #@! TA.AperFunction,Plated,PTH,ViaDrill
T1C0.0118
; #@! TA.AperFunction,Plated,PTH,ComponentDrill
T2C0.0236
; #@! TA.AperFunction,Plated,PTH,ComponentDrill
T3C0.0394
; #@! TA.AperFunction,Plated,PTH,ComponentDrill
T4C0.0551
; #@! TA.AperFunction,Plated,PTH,ComponentDrill
T5C0.0984
%
G90
G05
T1
X1.6535Y-1.9685
X1.6535Y-2.9134
X1.8504Y-1.9685
X1.9685Y-2.9134
X2.0472Y-1.9685
X2.2441Y-1.9685
X2.3228Y-2.9134
X2.4409Y-1.9685
X2.5118Y-2.624
X2.6378Y-1.9685
X2.6772Y-2.4016
X2.6772Y-2.9134
X2.7106Y-2.6634
X2.8346Y-1.9685
X3.0315Y-1.9685
X3.0709Y-2.4016
X3.0709Y-2.9134
X3.2283Y-1.9685
X3.4252Y-1.9685
X3.4646Y-2.4016
X3.4646Y-2.9134
X3.622Y-1.9685
X3.6654Y-2.6161
X3.8189Y-1.9685
X3.8445Y-2.6634
X3.8583Y-2.4016
X3.8583Y-2.9134
X4.0157Y-1.9685
X4.2126Y-1.9685
X4.252Y-2.4016
X4.252Y-2.9134
X4.4094Y-1.9685
X4.6063Y-1.9685
X4.6457Y-2.4016
X4.7953Y-2.6142
X4.8031Y-1.9685
X4.8508Y-2.8465
X4.9744Y-2.6614
X5.0Y-1.9685
X5.0787Y-2.4016
X5.0996Y-2.7413
X5.174Y-2.8524
X5.1969Y-1.9685
X5.313Y-2.8819
X5.3622Y-2.7362
X5.3693Y-2.3165
X5.3937Y-1.9685
X5.4146Y-2.8831
X5.4265Y-2.0001
X5.4657Y-2.9744
X5.4823Y-2.3165
X5.5197Y-2.8819
X5.5386Y-2.4224
X5.5637Y-2.0007
X5.5945Y-2.3165
X5.5945Y-2.5394
X5.6316Y-1.9691
X5.6614Y-2.7677
X5.7071Y-2.0252
X5.7417Y-2.574
X5.748Y-2.126
X5.7598Y-2.3976
X5.7874Y-1.9685
X5.8307Y-2.598
X5.8312Y-2.45
X5.8484Y-2.6339
X5.8559Y-2.7949
X5.8811Y-2.6571
X5.9067Y-2.7976
X5.9311Y-2.6571
X5.9449Y-1.9291
X5.9559Y-2.8236
X5.9681Y-2.6335
X6.0039Y-2.4882
X6.0167Y-2.6502
X6.0484Y-2.7969
X6.0606Y-2.2854
X6.1024Y-1.9291
X6.1157Y-2.6634
X6.2087Y-2.8366
X6.2244Y-2.7413
X6.2732Y-2.1717
X6.2992Y-1.9685
X6.3071Y-2.8366
X6.374Y-2.4646
X6.4026Y-2.172
X6.4173Y-3.0079
X6.4567Y-1.9685
X6.6142Y-1.9685
X6.7717Y-1.9685
X6.7717Y-2.4016
X6.7717Y-2.9134
X6.9291Y-1.9685
X7.0433Y-2.6142
X7.0866Y-1.9685
X7.1654Y-2.4016
X7.1654Y-2.9134
X7.2343Y-2.6654
X7.2441Y-1.9685
X7.4016Y-1.9685
X7.5197Y-2.4016
X7.5197Y-2.9134
X7.5591Y-1.9685
X7.7165Y-1.9685
X7.874Y-1.9685
X7.9134Y-2.4016
X7.9134Y-2.9134
X8.0315Y-1.9685
X8.185Y-2.6161
X8.189Y-1.9685
X8.2677Y-2.4016
X8.2677Y-2.9134
X8.3465Y-1.9685
X8.3681Y-2.6634
X8.5039Y-1.9685
X8.622Y-2.4016
X8.622Y-2.9134
X8.6614Y-1.9685
X8.8189Y-1.9685
X8.9764Y-1.9685
X9.0551Y-2.4016
X9.0551Y-2.9134
X9.1339Y-1.9685
X9.2913Y-1.9685
X9.315Y-2.6083
X9.4094Y-2.4016
X9.4094Y-2.9134
X9.4488Y-1.9685
X9.4961Y-2.6693
X9.6063Y-1.9685
X9.7638Y-1.9685
X9.7638Y-2.4016
X9.7638Y-2.9134
X9.9213Y-1.9685
X10.0787Y-1.9685
X10.1181Y-2.9134
X10.2362Y-1.9685
X10.3937Y-1.9685
T2
X6.5358Y-2.9071
X6.5915Y-2.9628
T3
X1.7012Y-2.6576
X1.8012Y-2.6576
X1.8454Y-1.8076
X1.9012Y-2.6576
X1.9832Y-1.8076
X2.0012Y-2.6576
X2.1012Y-2.6576
X2.1204Y-1.8076
X2.2012Y-2.6576
X2.2582Y-1.8076
X2.3012Y-2.6576
X2.4012Y-2.6576
X2.8311Y-2.6576
X2.9311Y-2.6576
X2.9753Y-1.8076
X3.0311Y-2.6576
X3.1131Y-1.8076
X3.1311Y-2.6576
X3.2311Y-2.6576
X3.2503Y-1.8076
X3.3311Y-2.6576
X3.3881Y-1.8076
X3.4311Y-2.6576
X3.5311Y-2.6576
X3.9611Y-2.6576
X4.0611Y-2.6576
X4.1052Y-1.8076
X4.1611Y-2.6576
X4.243Y-1.8076
X4.2611Y-2.6576
X4.3611Y-2.6576
X4.3802Y-1.8076
X4.4611Y-2.6576
X4.518Y-1.8076
X4.526Y-2.9205
X4.5611Y-2.6576
X4.626Y-2.9205
X4.6611Y-2.6576
X4.726Y-2.9205
X4.826Y-2.9205
X4.926Y-2.9205
X5.026Y-2.9205
X5.091Y-2.6576
X5.126Y-2.9205
X5.191Y-2.6576
X5.226Y-2.9205
X5.2351Y-1.8076
X5.291Y-2.6576
X5.3729Y-1.8076
X5.391Y-2.6576
X5.491Y-2.6576
X5.5101Y-1.8076
X5.591Y-2.6576
X5.6479Y-1.8076
X5.6559Y-2.9205
X5.691Y-2.6576
X5.7559Y-2.9205
X5.791Y-2.6576
X5.8559Y-2.9205
X5.9559Y-2.9205
X6.0559Y-2.9205
X6.1559Y-2.9205
X6.2209Y-2.6576
X6.2559Y-2.9205
X6.3209Y-2.6576
X6.3559Y-2.9205
X6.365Y-1.8076
X6.4209Y-2.6576
X6.5028Y-1.8076
X6.5209Y-2.6576
X6.6209Y-2.6576
X6.64Y-1.8076
X6.7209Y-2.6576
X6.7778Y-1.8076
X6.8209Y-2.6576
X6.9209Y-2.6576
X7.3508Y-2.6576
X7.4508Y-2.6576
X7.495Y-1.8076
X7.5508Y-2.6576
X7.6328Y-1.8076
X7.6508Y-2.6576
X7.7508Y-2.6576
X7.77Y-1.8076
X7.8508Y-2.6576
X7.9078Y-1.8076
X7.9508Y-2.6576
X8.0508Y-2.6576
X8.4807Y-2.6576
X8.5808Y-2.6576
X8.6249Y-1.8076
X8.6808Y-2.6576
X8.7627Y-1.8076
X8.7808Y-2.6576
X8.8808Y-2.6576
X8.8999Y-1.8076
X8.9808Y-2.6576
X9.0377Y-1.8076
X9.0808Y-2.6576
X9.1808Y-2.6576
X9.6107Y-2.6576
X9.7107Y-2.6576
X9.7548Y-1.8076
X9.8107Y-2.6576
X9.8926Y-1.8076
X9.9107Y-2.6576
X10.0107Y-2.6576
X10.0298Y-1.8076
X10.1107Y-2.6576
X10.1676Y-1.8076
X10.2107Y-2.6576
X10.3107Y-2.6576
T4
X1.7512Y-1.5051
X1.9512Y-1.5051
X2.1512Y-1.5051
X2.3512Y-1.5051
X2.8811Y-1.5051
X3.0811Y-1.5051
X3.2811Y-1.5051
X3.4811Y-1.5051
X4.011Y-1.5051
X4.211Y-1.5051
X4.411Y-1.5051
X4.611Y-1.5051
X5.1409Y-1.5051
X5.3409Y-1.5051
X5.5409Y-1.5051
X5.7409Y-1.5051
X6.2709Y-1.5051
X6.4709Y-1.5051
X6.6709Y-1.5051
X6.8709Y-1.5051
X7.4008Y-1.5051
X7.6008Y-1.5051
X7.8008Y-1.5051
X8.0008Y-1.5051
X8.5307Y-1.5051
X8.7307Y-1.5051
X8.9307Y-1.5051
X9.1307Y-1.5051
X9.6606Y-1.5051
X9.8606Y-1.5051
X10.0606Y-1.5051
X10.2606Y-1.5051
T5
X1.6512Y-1.7626
X2.4512Y-1.7626
X2.7811Y-1.7626
X3.5811Y-1.7626
X3.911Y-1.7626
X4.711Y-1.7626
X5.0409Y-1.7626
X5.8409Y-1.7626
X6.1709Y-1.7626
X6.9709Y-1.7626
X7.3008Y-1.7626
X8.1008Y-1.7626
X8.4307Y-1.7626
X9.2307Y-1.7626
X9.5606Y-1.7626
X10.3606Y-1.7626
M30
