%TF.GenerationSoftware,KiCad,Pcbnew,9.0.5*%
%TF.CreationDate,2026-05-06T17:54:18+02:00*%
%TF.ProjectId,max31865_stack,6d617833-3138-4363-955f-737461636b2e,rev?*%
%TF.SameCoordinates,Original*%
%TF.FileFunction,Legend,Bot*%
%TF.FilePolarity,Positive*%
%FSLAX46Y46*%
G04 Gerber Fmt 4.6, Leading zero omitted, Abs format (unit mm)*
G04 Created by KiCad (PCBNEW 9.0.5) date 2026-05-06 17:54:18*
%MOMM*%
%LPD*%
G01*
G04 APERTURE LIST*
G04 Aperture macros list*
%AMRoundRect*
0 Rectangle with rounded corners*
0 $1 Rounding radius*
0 $2 $3 $4 $5 $6 $7 $8 $9 X,Y pos of 4 corners*
0 Add a 4 corners polygon primitive as box body*
4,1,4,$2,$3,$4,$5,$6,$7,$8,$9,$2,$3,0*
0 Add four circle primitives for the rounded corners*
1,1,$1+$1,$2,$3*
1,1,$1+$1,$4,$5*
1,1,$1+$1,$6,$7*
1,1,$1+$1,$8,$9*
0 Add four rect primitives between the rounded corners*
20,1,$1+$1,$2,$3,$4,$5,0*
20,1,$1+$1,$4,$5,$6,$7,0*
20,1,$1+$1,$6,$7,$8,$9,0*
20,1,$1+$1,$8,$9,$2,$3,0*%
%AMFreePoly0*
4,1,6,0.500000,-0.750000,-0.650000,-0.750000,-0.150000,0.000000,-0.650000,0.750000,0.500000,0.750000,0.500000,-0.750000,0.500000,-0.750000,$1*%
%AMFreePoly1*
4,1,6,1.000000,0.000000,0.500000,-0.750000,-0.500000,-0.750000,-0.500000,0.750000,0.500000,0.750000,1.000000,0.000000,1.000000,0.000000,$1*%
G04 Aperture macros list end*
%ADD10C,0.100000*%
%ADD11C,0.150000*%
%ADD12C,0.120000*%
%ADD13C,0.000000*%
%ADD14RoundRect,0.200000X0.200000X0.275000X-0.200000X0.275000X-0.200000X-0.275000X0.200000X-0.275000X0*%
%ADD15RoundRect,0.225000X-0.225000X-0.250000X0.225000X-0.250000X0.225000X0.250000X-0.225000X0.250000X0*%
%ADD16RoundRect,0.200000X0.275000X-0.200000X0.275000X0.200000X-0.275000X0.200000X-0.275000X-0.200000X0*%
%ADD17C,3.200000*%
%ADD18C,1.778000*%
%ADD19C,2.184400*%
%ADD20O,2.080000X3.600000*%
%ADD21RoundRect,0.249999X0.790001X1.550001X-0.790001X1.550001X-0.790001X-1.550001X0.790001X-1.550001X0*%
%ADD22C,1.700000*%
%ADD23R,1.700000X1.700000*%
%ADD24C,1.200000*%
%ADD25FreePoly0,270.000000*%
%ADD26FreePoly1,270.000000*%
%ADD27RoundRect,0.150000X-0.150000X0.875000X-0.150000X-0.875000X0.150000X-0.875000X0.150000X0.875000X0*%
G04 APERTURE END LIST*
D10*
X49418734Y-72195985D02*
X49418734Y-71395985D01*
X49418734Y-71395985D02*
X49228258Y-71395985D01*
X49228258Y-71395985D02*
X49113972Y-71434080D01*
X49113972Y-71434080D02*
X49037782Y-71510270D01*
X49037782Y-71510270D02*
X48999687Y-71586461D01*
X48999687Y-71586461D02*
X48961591Y-71738842D01*
X48961591Y-71738842D02*
X48961591Y-71853128D01*
X48961591Y-71853128D02*
X48999687Y-72005509D01*
X48999687Y-72005509D02*
X49037782Y-72081699D01*
X49037782Y-72081699D02*
X49113972Y-72157890D01*
X49113972Y-72157890D02*
X49228258Y-72195985D01*
X49228258Y-72195985D02*
X49418734Y-72195985D01*
X48313972Y-72157890D02*
X48390163Y-72195985D01*
X48390163Y-72195985D02*
X48542544Y-72195985D01*
X48542544Y-72195985D02*
X48618734Y-72157890D01*
X48618734Y-72157890D02*
X48656830Y-72081699D01*
X48656830Y-72081699D02*
X48656830Y-71776937D01*
X48656830Y-71776937D02*
X48618734Y-71700747D01*
X48618734Y-71700747D02*
X48542544Y-71662651D01*
X48542544Y-71662651D02*
X48390163Y-71662651D01*
X48390163Y-71662651D02*
X48313972Y-71700747D01*
X48313972Y-71700747D02*
X48275877Y-71776937D01*
X48275877Y-71776937D02*
X48275877Y-71853128D01*
X48275877Y-71853128D02*
X48656830Y-71929318D01*
X47971116Y-72157890D02*
X47894925Y-72195985D01*
X47894925Y-72195985D02*
X47742544Y-72195985D01*
X47742544Y-72195985D02*
X47666354Y-72157890D01*
X47666354Y-72157890D02*
X47628258Y-72081699D01*
X47628258Y-72081699D02*
X47628258Y-72043604D01*
X47628258Y-72043604D02*
X47666354Y-71967413D01*
X47666354Y-71967413D02*
X47742544Y-71929318D01*
X47742544Y-71929318D02*
X47856830Y-71929318D01*
X47856830Y-71929318D02*
X47933020Y-71891223D01*
X47933020Y-71891223D02*
X47971116Y-71815032D01*
X47971116Y-71815032D02*
X47971116Y-71776937D01*
X47971116Y-71776937D02*
X47933020Y-71700747D01*
X47933020Y-71700747D02*
X47856830Y-71662651D01*
X47856830Y-71662651D02*
X47742544Y-71662651D01*
X47742544Y-71662651D02*
X47666354Y-71700747D01*
X47285401Y-72195985D02*
X47285401Y-71662651D01*
X47285401Y-71395985D02*
X47323497Y-71434080D01*
X47323497Y-71434080D02*
X47285401Y-71472175D01*
X47285401Y-71472175D02*
X47247306Y-71434080D01*
X47247306Y-71434080D02*
X47285401Y-71395985D01*
X47285401Y-71395985D02*
X47285401Y-71472175D01*
X46561592Y-71662651D02*
X46561592Y-72310270D01*
X46561592Y-72310270D02*
X46599687Y-72386461D01*
X46599687Y-72386461D02*
X46637783Y-72424556D01*
X46637783Y-72424556D02*
X46713973Y-72462651D01*
X46713973Y-72462651D02*
X46828259Y-72462651D01*
X46828259Y-72462651D02*
X46904449Y-72424556D01*
X46561592Y-72157890D02*
X46637783Y-72195985D01*
X46637783Y-72195985D02*
X46790164Y-72195985D01*
X46790164Y-72195985D02*
X46866354Y-72157890D01*
X46866354Y-72157890D02*
X46904449Y-72119794D01*
X46904449Y-72119794D02*
X46942545Y-72043604D01*
X46942545Y-72043604D02*
X46942545Y-71815032D01*
X46942545Y-71815032D02*
X46904449Y-71738842D01*
X46904449Y-71738842D02*
X46866354Y-71700747D01*
X46866354Y-71700747D02*
X46790164Y-71662651D01*
X46790164Y-71662651D02*
X46637783Y-71662651D01*
X46637783Y-71662651D02*
X46561592Y-71700747D01*
X46180639Y-71662651D02*
X46180639Y-72195985D01*
X46180639Y-71738842D02*
X46142544Y-71700747D01*
X46142544Y-71700747D02*
X46066354Y-71662651D01*
X46066354Y-71662651D02*
X45952068Y-71662651D01*
X45952068Y-71662651D02*
X45875877Y-71700747D01*
X45875877Y-71700747D02*
X45837782Y-71776937D01*
X45837782Y-71776937D02*
X45837782Y-72195985D01*
X45152067Y-72157890D02*
X45228258Y-72195985D01*
X45228258Y-72195985D02*
X45380639Y-72195985D01*
X45380639Y-72195985D02*
X45456829Y-72157890D01*
X45456829Y-72157890D02*
X45494925Y-72081699D01*
X45494925Y-72081699D02*
X45494925Y-71776937D01*
X45494925Y-71776937D02*
X45456829Y-71700747D01*
X45456829Y-71700747D02*
X45380639Y-71662651D01*
X45380639Y-71662651D02*
X45228258Y-71662651D01*
X45228258Y-71662651D02*
X45152067Y-71700747D01*
X45152067Y-71700747D02*
X45113972Y-71776937D01*
X45113972Y-71776937D02*
X45113972Y-71853128D01*
X45113972Y-71853128D02*
X45494925Y-71929318D01*
X44428258Y-72195985D02*
X44428258Y-71395985D01*
X44428258Y-72157890D02*
X44504449Y-72195985D01*
X44504449Y-72195985D02*
X44656830Y-72195985D01*
X44656830Y-72195985D02*
X44733020Y-72157890D01*
X44733020Y-72157890D02*
X44771115Y-72119794D01*
X44771115Y-72119794D02*
X44809211Y-72043604D01*
X44809211Y-72043604D02*
X44809211Y-71815032D01*
X44809211Y-71815032D02*
X44771115Y-71738842D01*
X44771115Y-71738842D02*
X44733020Y-71700747D01*
X44733020Y-71700747D02*
X44656830Y-71662651D01*
X44656830Y-71662651D02*
X44504449Y-71662651D01*
X44504449Y-71662651D02*
X44428258Y-71700747D01*
X43437781Y-72195985D02*
X43437781Y-71395985D01*
X43437781Y-71700747D02*
X43361591Y-71662651D01*
X43361591Y-71662651D02*
X43209210Y-71662651D01*
X43209210Y-71662651D02*
X43133019Y-71700747D01*
X43133019Y-71700747D02*
X43094924Y-71738842D01*
X43094924Y-71738842D02*
X43056829Y-71815032D01*
X43056829Y-71815032D02*
X43056829Y-72043604D01*
X43056829Y-72043604D02*
X43094924Y-72119794D01*
X43094924Y-72119794D02*
X43133019Y-72157890D01*
X43133019Y-72157890D02*
X43209210Y-72195985D01*
X43209210Y-72195985D02*
X43361591Y-72195985D01*
X43361591Y-72195985D02*
X43437781Y-72157890D01*
X42790162Y-71662651D02*
X42599686Y-72195985D01*
X42409209Y-71662651D02*
X42599686Y-72195985D01*
X42599686Y-72195985D02*
X42675876Y-72386461D01*
X42675876Y-72386461D02*
X42713971Y-72424556D01*
X42713971Y-72424556D02*
X42790162Y-72462651D01*
X49418734Y-73483940D02*
X49418734Y-72683940D01*
X49418734Y-72683940D02*
X49152068Y-73255368D01*
X49152068Y-73255368D02*
X48885401Y-72683940D01*
X48885401Y-72683940D02*
X48885401Y-73483940D01*
X48161591Y-73483940D02*
X48161591Y-73064892D01*
X48161591Y-73064892D02*
X48199686Y-72988702D01*
X48199686Y-72988702D02*
X48275877Y-72950606D01*
X48275877Y-72950606D02*
X48428258Y-72950606D01*
X48428258Y-72950606D02*
X48504448Y-72988702D01*
X48161591Y-73445845D02*
X48237782Y-73483940D01*
X48237782Y-73483940D02*
X48428258Y-73483940D01*
X48428258Y-73483940D02*
X48504448Y-73445845D01*
X48504448Y-73445845D02*
X48542544Y-73369654D01*
X48542544Y-73369654D02*
X48542544Y-73293464D01*
X48542544Y-73293464D02*
X48504448Y-73217273D01*
X48504448Y-73217273D02*
X48428258Y-73179178D01*
X48428258Y-73179178D02*
X48237782Y-73179178D01*
X48237782Y-73179178D02*
X48161591Y-73141083D01*
X47780638Y-73483940D02*
X47780638Y-72950606D01*
X47780638Y-73102987D02*
X47742543Y-73026797D01*
X47742543Y-73026797D02*
X47704448Y-72988702D01*
X47704448Y-72988702D02*
X47628257Y-72950606D01*
X47628257Y-72950606D02*
X47552067Y-72950606D01*
X47399686Y-72950606D02*
X47094924Y-72950606D01*
X47285400Y-72683940D02*
X47285400Y-73369654D01*
X47285400Y-73369654D02*
X47247305Y-73445845D01*
X47247305Y-73445845D02*
X47171115Y-73483940D01*
X47171115Y-73483940D02*
X47094924Y-73483940D01*
X46828257Y-73483940D02*
X46828257Y-72950606D01*
X46828257Y-72683940D02*
X46866353Y-72722035D01*
X46866353Y-72722035D02*
X46828257Y-72760130D01*
X46828257Y-72760130D02*
X46790162Y-72722035D01*
X46790162Y-72722035D02*
X46828257Y-72683940D01*
X46828257Y-72683940D02*
X46828257Y-72760130D01*
X46447305Y-72950606D02*
X46447305Y-73483940D01*
X46447305Y-73026797D02*
X46409210Y-72988702D01*
X46409210Y-72988702D02*
X46333020Y-72950606D01*
X46333020Y-72950606D02*
X46218734Y-72950606D01*
X46218734Y-72950606D02*
X46142543Y-72988702D01*
X46142543Y-72988702D02*
X46104448Y-73064892D01*
X46104448Y-73064892D02*
X46104448Y-73483940D01*
X44733019Y-73483940D02*
X45113971Y-73483940D01*
X45113971Y-73483940D02*
X45113971Y-72683940D01*
X44542543Y-72950606D02*
X44352067Y-73483940D01*
X44161590Y-72950606D02*
X44352067Y-73483940D01*
X44352067Y-73483940D02*
X44428257Y-73674416D01*
X44428257Y-73674416D02*
X44466352Y-73712511D01*
X44466352Y-73712511D02*
X44542543Y-73750606D01*
X43894924Y-73445845D02*
X43818733Y-73483940D01*
X43818733Y-73483940D02*
X43666352Y-73483940D01*
X43666352Y-73483940D02*
X43590162Y-73445845D01*
X43590162Y-73445845D02*
X43552066Y-73369654D01*
X43552066Y-73369654D02*
X43552066Y-73331559D01*
X43552066Y-73331559D02*
X43590162Y-73255368D01*
X43590162Y-73255368D02*
X43666352Y-73217273D01*
X43666352Y-73217273D02*
X43780638Y-73217273D01*
X43780638Y-73217273D02*
X43856828Y-73179178D01*
X43856828Y-73179178D02*
X43894924Y-73102987D01*
X43894924Y-73102987D02*
X43894924Y-73064892D01*
X43894924Y-73064892D02*
X43856828Y-72988702D01*
X43856828Y-72988702D02*
X43780638Y-72950606D01*
X43780638Y-72950606D02*
X43666352Y-72950606D01*
X43666352Y-72950606D02*
X43590162Y-72988702D01*
X42904447Y-73445845D02*
X42980638Y-73483940D01*
X42980638Y-73483940D02*
X43133019Y-73483940D01*
X43133019Y-73483940D02*
X43209209Y-73445845D01*
X43209209Y-73445845D02*
X43247305Y-73369654D01*
X43247305Y-73369654D02*
X43247305Y-73064892D01*
X43247305Y-73064892D02*
X43209209Y-72988702D01*
X43209209Y-72988702D02*
X43133019Y-72950606D01*
X43133019Y-72950606D02*
X42980638Y-72950606D01*
X42980638Y-72950606D02*
X42904447Y-72988702D01*
X42904447Y-72988702D02*
X42866352Y-73064892D01*
X42866352Y-73064892D02*
X42866352Y-73141083D01*
X42866352Y-73141083D02*
X43247305Y-73217273D01*
X42523495Y-73483940D02*
X42523495Y-72683940D01*
X42447305Y-73179178D02*
X42218733Y-73483940D01*
X42218733Y-72950606D02*
X42523495Y-73255368D01*
X49266353Y-73971895D02*
X49190163Y-73971895D01*
X49190163Y-73971895D02*
X49113972Y-74009990D01*
X49113972Y-74009990D02*
X49075877Y-74048085D01*
X49075877Y-74048085D02*
X49037782Y-74124276D01*
X49037782Y-74124276D02*
X48999687Y-74276657D01*
X48999687Y-74276657D02*
X48999687Y-74467133D01*
X48999687Y-74467133D02*
X49037782Y-74619514D01*
X49037782Y-74619514D02*
X49075877Y-74695704D01*
X49075877Y-74695704D02*
X49113972Y-74733800D01*
X49113972Y-74733800D02*
X49190163Y-74771895D01*
X49190163Y-74771895D02*
X49266353Y-74771895D01*
X49266353Y-74771895D02*
X49342544Y-74733800D01*
X49342544Y-74733800D02*
X49380639Y-74695704D01*
X49380639Y-74695704D02*
X49418734Y-74619514D01*
X49418734Y-74619514D02*
X49456830Y-74467133D01*
X49456830Y-74467133D02*
X49456830Y-74276657D01*
X49456830Y-74276657D02*
X49418734Y-74124276D01*
X49418734Y-74124276D02*
X49380639Y-74048085D01*
X49380639Y-74048085D02*
X49342544Y-74009990D01*
X49342544Y-74009990D02*
X49266353Y-73971895D01*
X48275877Y-73971895D02*
X48656829Y-73971895D01*
X48656829Y-73971895D02*
X48694925Y-74352847D01*
X48694925Y-74352847D02*
X48656829Y-74314752D01*
X48656829Y-74314752D02*
X48580639Y-74276657D01*
X48580639Y-74276657D02*
X48390163Y-74276657D01*
X48390163Y-74276657D02*
X48313972Y-74314752D01*
X48313972Y-74314752D02*
X48275877Y-74352847D01*
X48275877Y-74352847D02*
X48237782Y-74429038D01*
X48237782Y-74429038D02*
X48237782Y-74619514D01*
X48237782Y-74619514D02*
X48275877Y-74695704D01*
X48275877Y-74695704D02*
X48313972Y-74733800D01*
X48313972Y-74733800D02*
X48390163Y-74771895D01*
X48390163Y-74771895D02*
X48580639Y-74771895D01*
X48580639Y-74771895D02*
X48656829Y-74733800D01*
X48656829Y-74733800D02*
X48694925Y-74695704D01*
X47323496Y-73933800D02*
X48009210Y-74962371D01*
X47094925Y-74048085D02*
X47056829Y-74009990D01*
X47056829Y-74009990D02*
X46980639Y-73971895D01*
X46980639Y-73971895D02*
X46790163Y-73971895D01*
X46790163Y-73971895D02*
X46713972Y-74009990D01*
X46713972Y-74009990D02*
X46675877Y-74048085D01*
X46675877Y-74048085D02*
X46637782Y-74124276D01*
X46637782Y-74124276D02*
X46637782Y-74200466D01*
X46637782Y-74200466D02*
X46675877Y-74314752D01*
X46675877Y-74314752D02*
X47133020Y-74771895D01*
X47133020Y-74771895D02*
X46637782Y-74771895D01*
X46142543Y-73971895D02*
X46066353Y-73971895D01*
X46066353Y-73971895D02*
X45990162Y-74009990D01*
X45990162Y-74009990D02*
X45952067Y-74048085D01*
X45952067Y-74048085D02*
X45913972Y-74124276D01*
X45913972Y-74124276D02*
X45875877Y-74276657D01*
X45875877Y-74276657D02*
X45875877Y-74467133D01*
X45875877Y-74467133D02*
X45913972Y-74619514D01*
X45913972Y-74619514D02*
X45952067Y-74695704D01*
X45952067Y-74695704D02*
X45990162Y-74733800D01*
X45990162Y-74733800D02*
X46066353Y-74771895D01*
X46066353Y-74771895D02*
X46142543Y-74771895D01*
X46142543Y-74771895D02*
X46218734Y-74733800D01*
X46218734Y-74733800D02*
X46256829Y-74695704D01*
X46256829Y-74695704D02*
X46294924Y-74619514D01*
X46294924Y-74619514D02*
X46333020Y-74467133D01*
X46333020Y-74467133D02*
X46333020Y-74276657D01*
X46333020Y-74276657D02*
X46294924Y-74124276D01*
X46294924Y-74124276D02*
X46256829Y-74048085D01*
X46256829Y-74048085D02*
X46218734Y-74009990D01*
X46218734Y-74009990D02*
X46142543Y-73971895D01*
X45571115Y-74048085D02*
X45533019Y-74009990D01*
X45533019Y-74009990D02*
X45456829Y-73971895D01*
X45456829Y-73971895D02*
X45266353Y-73971895D01*
X45266353Y-73971895D02*
X45190162Y-74009990D01*
X45190162Y-74009990D02*
X45152067Y-74048085D01*
X45152067Y-74048085D02*
X45113972Y-74124276D01*
X45113972Y-74124276D02*
X45113972Y-74200466D01*
X45113972Y-74200466D02*
X45152067Y-74314752D01*
X45152067Y-74314752D02*
X45609210Y-74771895D01*
X45609210Y-74771895D02*
X45113972Y-74771895D01*
X44428257Y-73971895D02*
X44580638Y-73971895D01*
X44580638Y-73971895D02*
X44656829Y-74009990D01*
X44656829Y-74009990D02*
X44694924Y-74048085D01*
X44694924Y-74048085D02*
X44771114Y-74162371D01*
X44771114Y-74162371D02*
X44809210Y-74314752D01*
X44809210Y-74314752D02*
X44809210Y-74619514D01*
X44809210Y-74619514D02*
X44771114Y-74695704D01*
X44771114Y-74695704D02*
X44733019Y-74733800D01*
X44733019Y-74733800D02*
X44656829Y-74771895D01*
X44656829Y-74771895D02*
X44504448Y-74771895D01*
X44504448Y-74771895D02*
X44428257Y-74733800D01*
X44428257Y-74733800D02*
X44390162Y-74695704D01*
X44390162Y-74695704D02*
X44352067Y-74619514D01*
X44352067Y-74619514D02*
X44352067Y-74429038D01*
X44352067Y-74429038D02*
X44390162Y-74352847D01*
X44390162Y-74352847D02*
X44428257Y-74314752D01*
X44428257Y-74314752D02*
X44504448Y-74276657D01*
X44504448Y-74276657D02*
X44656829Y-74276657D01*
X44656829Y-74276657D02*
X44733019Y-74314752D01*
X44733019Y-74314752D02*
X44771114Y-74352847D01*
X44771114Y-74352847D02*
X44809210Y-74429038D01*
X130520704Y-71263408D02*
X130558800Y-71225312D01*
X130558800Y-71225312D02*
X130596895Y-71111027D01*
X130596895Y-71111027D02*
X130596895Y-71034836D01*
X130596895Y-71034836D02*
X130558800Y-70920550D01*
X130558800Y-70920550D02*
X130482609Y-70844360D01*
X130482609Y-70844360D02*
X130406419Y-70806265D01*
X130406419Y-70806265D02*
X130254038Y-70768169D01*
X130254038Y-70768169D02*
X130139752Y-70768169D01*
X130139752Y-70768169D02*
X129987371Y-70806265D01*
X129987371Y-70806265D02*
X129911180Y-70844360D01*
X129911180Y-70844360D02*
X129834990Y-70920550D01*
X129834990Y-70920550D02*
X129796895Y-71034836D01*
X129796895Y-71034836D02*
X129796895Y-71111027D01*
X129796895Y-71111027D02*
X129834990Y-71225312D01*
X129834990Y-71225312D02*
X129873085Y-71263408D01*
X130596895Y-71987217D02*
X130596895Y-71606265D01*
X130596895Y-71606265D02*
X129796895Y-71606265D01*
X130596895Y-72253884D02*
X129796895Y-72253884D01*
X130596895Y-72711027D02*
X130139752Y-72368169D01*
X129796895Y-72711027D02*
X130254038Y-72253884D01*
X132346895Y-70666979D02*
X133146895Y-70933646D01*
X133146895Y-70933646D02*
X132346895Y-71200312D01*
X133070704Y-71924122D02*
X133108800Y-71886026D01*
X133108800Y-71886026D02*
X133146895Y-71771741D01*
X133146895Y-71771741D02*
X133146895Y-71695550D01*
X133146895Y-71695550D02*
X133108800Y-71581264D01*
X133108800Y-71581264D02*
X133032609Y-71505074D01*
X133032609Y-71505074D02*
X132956419Y-71466979D01*
X132956419Y-71466979D02*
X132804038Y-71428883D01*
X132804038Y-71428883D02*
X132689752Y-71428883D01*
X132689752Y-71428883D02*
X132537371Y-71466979D01*
X132537371Y-71466979D02*
X132461180Y-71505074D01*
X132461180Y-71505074D02*
X132384990Y-71581264D01*
X132384990Y-71581264D02*
X132346895Y-71695550D01*
X132346895Y-71695550D02*
X132346895Y-71771741D01*
X132346895Y-71771741D02*
X132384990Y-71886026D01*
X132384990Y-71886026D02*
X132423085Y-71924122D01*
X133070704Y-72724122D02*
X133108800Y-72686026D01*
X133108800Y-72686026D02*
X133146895Y-72571741D01*
X133146895Y-72571741D02*
X133146895Y-72495550D01*
X133146895Y-72495550D02*
X133108800Y-72381264D01*
X133108800Y-72381264D02*
X133032609Y-72305074D01*
X133032609Y-72305074D02*
X132956419Y-72266979D01*
X132956419Y-72266979D02*
X132804038Y-72228883D01*
X132804038Y-72228883D02*
X132689752Y-72228883D01*
X132689752Y-72228883D02*
X132537371Y-72266979D01*
X132537371Y-72266979D02*
X132461180Y-72305074D01*
X132461180Y-72305074D02*
X132384990Y-72381264D01*
X132384990Y-72381264D02*
X132346895Y-72495550D01*
X132346895Y-72495550D02*
X132346895Y-72571741D01*
X132346895Y-72571741D02*
X132384990Y-72686026D01*
X132384990Y-72686026D02*
X132423085Y-72724122D01*
X122958800Y-70718169D02*
X122996895Y-70832455D01*
X122996895Y-70832455D02*
X122996895Y-71022931D01*
X122996895Y-71022931D02*
X122958800Y-71099122D01*
X122958800Y-71099122D02*
X122920704Y-71137217D01*
X122920704Y-71137217D02*
X122844514Y-71175312D01*
X122844514Y-71175312D02*
X122768323Y-71175312D01*
X122768323Y-71175312D02*
X122692133Y-71137217D01*
X122692133Y-71137217D02*
X122654038Y-71099122D01*
X122654038Y-71099122D02*
X122615942Y-71022931D01*
X122615942Y-71022931D02*
X122577847Y-70870550D01*
X122577847Y-70870550D02*
X122539752Y-70794360D01*
X122539752Y-70794360D02*
X122501657Y-70756265D01*
X122501657Y-70756265D02*
X122425466Y-70718169D01*
X122425466Y-70718169D02*
X122349276Y-70718169D01*
X122349276Y-70718169D02*
X122273085Y-70756265D01*
X122273085Y-70756265D02*
X122234990Y-70794360D01*
X122234990Y-70794360D02*
X122196895Y-70870550D01*
X122196895Y-70870550D02*
X122196895Y-71061027D01*
X122196895Y-71061027D02*
X122234990Y-71175312D01*
X122920704Y-71975313D02*
X122958800Y-71937217D01*
X122958800Y-71937217D02*
X122996895Y-71822932D01*
X122996895Y-71822932D02*
X122996895Y-71746741D01*
X122996895Y-71746741D02*
X122958800Y-71632455D01*
X122958800Y-71632455D02*
X122882609Y-71556265D01*
X122882609Y-71556265D02*
X122806419Y-71518170D01*
X122806419Y-71518170D02*
X122654038Y-71480074D01*
X122654038Y-71480074D02*
X122539752Y-71480074D01*
X122539752Y-71480074D02*
X122387371Y-71518170D01*
X122387371Y-71518170D02*
X122311180Y-71556265D01*
X122311180Y-71556265D02*
X122234990Y-71632455D01*
X122234990Y-71632455D02*
X122196895Y-71746741D01*
X122196895Y-71746741D02*
X122196895Y-71822932D01*
X122196895Y-71822932D02*
X122234990Y-71937217D01*
X122234990Y-71937217D02*
X122273085Y-71975313D01*
X122996895Y-72699122D02*
X122996895Y-72318170D01*
X122996895Y-72318170D02*
X122196895Y-72318170D01*
X120383800Y-70693169D02*
X120421895Y-70807455D01*
X120421895Y-70807455D02*
X120421895Y-70997931D01*
X120421895Y-70997931D02*
X120383800Y-71074122D01*
X120383800Y-71074122D02*
X120345704Y-71112217D01*
X120345704Y-71112217D02*
X120269514Y-71150312D01*
X120269514Y-71150312D02*
X120193323Y-71150312D01*
X120193323Y-71150312D02*
X120117133Y-71112217D01*
X120117133Y-71112217D02*
X120079038Y-71074122D01*
X120079038Y-71074122D02*
X120040942Y-70997931D01*
X120040942Y-70997931D02*
X120002847Y-70845550D01*
X120002847Y-70845550D02*
X119964752Y-70769360D01*
X119964752Y-70769360D02*
X119926657Y-70731265D01*
X119926657Y-70731265D02*
X119850466Y-70693169D01*
X119850466Y-70693169D02*
X119774276Y-70693169D01*
X119774276Y-70693169D02*
X119698085Y-70731265D01*
X119698085Y-70731265D02*
X119659990Y-70769360D01*
X119659990Y-70769360D02*
X119621895Y-70845550D01*
X119621895Y-70845550D02*
X119621895Y-71036027D01*
X119621895Y-71036027D02*
X119659990Y-71150312D01*
X120421895Y-71493170D02*
X119621895Y-71493170D01*
X119621895Y-71493170D02*
X119621895Y-71683646D01*
X119621895Y-71683646D02*
X119659990Y-71797932D01*
X119659990Y-71797932D02*
X119736180Y-71874122D01*
X119736180Y-71874122D02*
X119812371Y-71912217D01*
X119812371Y-71912217D02*
X119964752Y-71950313D01*
X119964752Y-71950313D02*
X120079038Y-71950313D01*
X120079038Y-71950313D02*
X120231419Y-71912217D01*
X120231419Y-71912217D02*
X120307609Y-71874122D01*
X120307609Y-71874122D02*
X120383800Y-71797932D01*
X120383800Y-71797932D02*
X120421895Y-71683646D01*
X120421895Y-71683646D02*
X120421895Y-71493170D01*
X120193323Y-72255074D02*
X120193323Y-72636027D01*
X120421895Y-72178884D02*
X119621895Y-72445551D01*
X119621895Y-72445551D02*
X120421895Y-72712217D01*
X117159990Y-71050312D02*
X117121895Y-70974122D01*
X117121895Y-70974122D02*
X117121895Y-70859836D01*
X117121895Y-70859836D02*
X117159990Y-70745550D01*
X117159990Y-70745550D02*
X117236180Y-70669360D01*
X117236180Y-70669360D02*
X117312371Y-70631265D01*
X117312371Y-70631265D02*
X117464752Y-70593169D01*
X117464752Y-70593169D02*
X117579038Y-70593169D01*
X117579038Y-70593169D02*
X117731419Y-70631265D01*
X117731419Y-70631265D02*
X117807609Y-70669360D01*
X117807609Y-70669360D02*
X117883800Y-70745550D01*
X117883800Y-70745550D02*
X117921895Y-70859836D01*
X117921895Y-70859836D02*
X117921895Y-70936027D01*
X117921895Y-70936027D02*
X117883800Y-71050312D01*
X117883800Y-71050312D02*
X117845704Y-71088408D01*
X117845704Y-71088408D02*
X117579038Y-71088408D01*
X117579038Y-71088408D02*
X117579038Y-70936027D01*
X117921895Y-71431265D02*
X117121895Y-71431265D01*
X117121895Y-71431265D02*
X117921895Y-71888408D01*
X117921895Y-71888408D02*
X117121895Y-71888408D01*
X117921895Y-72269360D02*
X117121895Y-72269360D01*
X117121895Y-72269360D02*
X117121895Y-72459836D01*
X117121895Y-72459836D02*
X117159990Y-72574122D01*
X117159990Y-72574122D02*
X117236180Y-72650312D01*
X117236180Y-72650312D02*
X117312371Y-72688407D01*
X117312371Y-72688407D02*
X117464752Y-72726503D01*
X117464752Y-72726503D02*
X117579038Y-72726503D01*
X117579038Y-72726503D02*
X117731419Y-72688407D01*
X117731419Y-72688407D02*
X117807609Y-72650312D01*
X117807609Y-72650312D02*
X117883800Y-72574122D01*
X117883800Y-72574122D02*
X117921895Y-72459836D01*
X117921895Y-72459836D02*
X117921895Y-72269360D01*
X114584990Y-71025312D02*
X114546895Y-70949122D01*
X114546895Y-70949122D02*
X114546895Y-70834836D01*
X114546895Y-70834836D02*
X114584990Y-70720550D01*
X114584990Y-70720550D02*
X114661180Y-70644360D01*
X114661180Y-70644360D02*
X114737371Y-70606265D01*
X114737371Y-70606265D02*
X114889752Y-70568169D01*
X114889752Y-70568169D02*
X115004038Y-70568169D01*
X115004038Y-70568169D02*
X115156419Y-70606265D01*
X115156419Y-70606265D02*
X115232609Y-70644360D01*
X115232609Y-70644360D02*
X115308800Y-70720550D01*
X115308800Y-70720550D02*
X115346895Y-70834836D01*
X115346895Y-70834836D02*
X115346895Y-70911027D01*
X115346895Y-70911027D02*
X115308800Y-71025312D01*
X115308800Y-71025312D02*
X115270704Y-71063408D01*
X115270704Y-71063408D02*
X115004038Y-71063408D01*
X115004038Y-71063408D02*
X115004038Y-70911027D01*
X115346895Y-71406265D02*
X114546895Y-71406265D01*
X114546895Y-71406265D02*
X115346895Y-71863408D01*
X115346895Y-71863408D02*
X114546895Y-71863408D01*
X115346895Y-72244360D02*
X114546895Y-72244360D01*
X114546895Y-72244360D02*
X114546895Y-72434836D01*
X114546895Y-72434836D02*
X114584990Y-72549122D01*
X114584990Y-72549122D02*
X114661180Y-72625312D01*
X114661180Y-72625312D02*
X114737371Y-72663407D01*
X114737371Y-72663407D02*
X114889752Y-72701503D01*
X114889752Y-72701503D02*
X115004038Y-72701503D01*
X115004038Y-72701503D02*
X115156419Y-72663407D01*
X115156419Y-72663407D02*
X115232609Y-72625312D01*
X115232609Y-72625312D02*
X115308800Y-72549122D01*
X115308800Y-72549122D02*
X115346895Y-72434836D01*
X115346895Y-72434836D02*
X115346895Y-72244360D01*
X128021895Y-70156265D02*
X127221895Y-70156265D01*
X127221895Y-70156265D02*
X127793323Y-70422931D01*
X127793323Y-70422931D02*
X127221895Y-70689598D01*
X127221895Y-70689598D02*
X128021895Y-70689598D01*
X128021895Y-71070551D02*
X127221895Y-71070551D01*
X127983800Y-71413407D02*
X128021895Y-71527693D01*
X128021895Y-71527693D02*
X128021895Y-71718169D01*
X128021895Y-71718169D02*
X127983800Y-71794360D01*
X127983800Y-71794360D02*
X127945704Y-71832455D01*
X127945704Y-71832455D02*
X127869514Y-71870550D01*
X127869514Y-71870550D02*
X127793323Y-71870550D01*
X127793323Y-71870550D02*
X127717133Y-71832455D01*
X127717133Y-71832455D02*
X127679038Y-71794360D01*
X127679038Y-71794360D02*
X127640942Y-71718169D01*
X127640942Y-71718169D02*
X127602847Y-71565788D01*
X127602847Y-71565788D02*
X127564752Y-71489598D01*
X127564752Y-71489598D02*
X127526657Y-71451503D01*
X127526657Y-71451503D02*
X127450466Y-71413407D01*
X127450466Y-71413407D02*
X127374276Y-71413407D01*
X127374276Y-71413407D02*
X127298085Y-71451503D01*
X127298085Y-71451503D02*
X127259990Y-71489598D01*
X127259990Y-71489598D02*
X127221895Y-71565788D01*
X127221895Y-71565788D02*
X127221895Y-71756265D01*
X127221895Y-71756265D02*
X127259990Y-71870550D01*
X127221895Y-72365789D02*
X127221895Y-72518170D01*
X127221895Y-72518170D02*
X127259990Y-72594360D01*
X127259990Y-72594360D02*
X127336180Y-72670551D01*
X127336180Y-72670551D02*
X127488561Y-72708646D01*
X127488561Y-72708646D02*
X127755228Y-72708646D01*
X127755228Y-72708646D02*
X127907609Y-72670551D01*
X127907609Y-72670551D02*
X127983800Y-72594360D01*
X127983800Y-72594360D02*
X128021895Y-72518170D01*
X128021895Y-72518170D02*
X128021895Y-72365789D01*
X128021895Y-72365789D02*
X127983800Y-72289598D01*
X127983800Y-72289598D02*
X127907609Y-72213408D01*
X127907609Y-72213408D02*
X127755228Y-72175312D01*
X127755228Y-72175312D02*
X127488561Y-72175312D01*
X127488561Y-72175312D02*
X127336180Y-72213408D01*
X127336180Y-72213408D02*
X127259990Y-72289598D01*
X127259990Y-72289598D02*
X127221895Y-72365789D01*
X125496895Y-70181265D02*
X124696895Y-70181265D01*
X124696895Y-70181265D02*
X125268323Y-70447931D01*
X125268323Y-70447931D02*
X124696895Y-70714598D01*
X124696895Y-70714598D02*
X125496895Y-70714598D01*
X124696895Y-71247932D02*
X124696895Y-71400313D01*
X124696895Y-71400313D02*
X124734990Y-71476503D01*
X124734990Y-71476503D02*
X124811180Y-71552694D01*
X124811180Y-71552694D02*
X124963561Y-71590789D01*
X124963561Y-71590789D02*
X125230228Y-71590789D01*
X125230228Y-71590789D02*
X125382609Y-71552694D01*
X125382609Y-71552694D02*
X125458800Y-71476503D01*
X125458800Y-71476503D02*
X125496895Y-71400313D01*
X125496895Y-71400313D02*
X125496895Y-71247932D01*
X125496895Y-71247932D02*
X125458800Y-71171741D01*
X125458800Y-71171741D02*
X125382609Y-71095551D01*
X125382609Y-71095551D02*
X125230228Y-71057455D01*
X125230228Y-71057455D02*
X124963561Y-71057455D01*
X124963561Y-71057455D02*
X124811180Y-71095551D01*
X124811180Y-71095551D02*
X124734990Y-71171741D01*
X124734990Y-71171741D02*
X124696895Y-71247932D01*
X125458800Y-71895550D02*
X125496895Y-72009836D01*
X125496895Y-72009836D02*
X125496895Y-72200312D01*
X125496895Y-72200312D02*
X125458800Y-72276503D01*
X125458800Y-72276503D02*
X125420704Y-72314598D01*
X125420704Y-72314598D02*
X125344514Y-72352693D01*
X125344514Y-72352693D02*
X125268323Y-72352693D01*
X125268323Y-72352693D02*
X125192133Y-72314598D01*
X125192133Y-72314598D02*
X125154038Y-72276503D01*
X125154038Y-72276503D02*
X125115942Y-72200312D01*
X125115942Y-72200312D02*
X125077847Y-72047931D01*
X125077847Y-72047931D02*
X125039752Y-71971741D01*
X125039752Y-71971741D02*
X125001657Y-71933646D01*
X125001657Y-71933646D02*
X124925466Y-71895550D01*
X124925466Y-71895550D02*
X124849276Y-71895550D01*
X124849276Y-71895550D02*
X124773085Y-71933646D01*
X124773085Y-71933646D02*
X124734990Y-71971741D01*
X124734990Y-71971741D02*
X124696895Y-72047931D01*
X124696895Y-72047931D02*
X124696895Y-72238408D01*
X124696895Y-72238408D02*
X124734990Y-72352693D01*
X125496895Y-72695551D02*
X124696895Y-72695551D01*
X156721895Y-70156265D02*
X155921895Y-70156265D01*
X155921895Y-70156265D02*
X156493323Y-70422931D01*
X156493323Y-70422931D02*
X155921895Y-70689598D01*
X155921895Y-70689598D02*
X156721895Y-70689598D01*
X156721895Y-71070551D02*
X155921895Y-71070551D01*
X156683800Y-71413407D02*
X156721895Y-71527693D01*
X156721895Y-71527693D02*
X156721895Y-71718169D01*
X156721895Y-71718169D02*
X156683800Y-71794360D01*
X156683800Y-71794360D02*
X156645704Y-71832455D01*
X156645704Y-71832455D02*
X156569514Y-71870550D01*
X156569514Y-71870550D02*
X156493323Y-71870550D01*
X156493323Y-71870550D02*
X156417133Y-71832455D01*
X156417133Y-71832455D02*
X156379038Y-71794360D01*
X156379038Y-71794360D02*
X156340942Y-71718169D01*
X156340942Y-71718169D02*
X156302847Y-71565788D01*
X156302847Y-71565788D02*
X156264752Y-71489598D01*
X156264752Y-71489598D02*
X156226657Y-71451503D01*
X156226657Y-71451503D02*
X156150466Y-71413407D01*
X156150466Y-71413407D02*
X156074276Y-71413407D01*
X156074276Y-71413407D02*
X155998085Y-71451503D01*
X155998085Y-71451503D02*
X155959990Y-71489598D01*
X155959990Y-71489598D02*
X155921895Y-71565788D01*
X155921895Y-71565788D02*
X155921895Y-71756265D01*
X155921895Y-71756265D02*
X155959990Y-71870550D01*
X155921895Y-72365789D02*
X155921895Y-72518170D01*
X155921895Y-72518170D02*
X155959990Y-72594360D01*
X155959990Y-72594360D02*
X156036180Y-72670551D01*
X156036180Y-72670551D02*
X156188561Y-72708646D01*
X156188561Y-72708646D02*
X156455228Y-72708646D01*
X156455228Y-72708646D02*
X156607609Y-72670551D01*
X156607609Y-72670551D02*
X156683800Y-72594360D01*
X156683800Y-72594360D02*
X156721895Y-72518170D01*
X156721895Y-72518170D02*
X156721895Y-72365789D01*
X156721895Y-72365789D02*
X156683800Y-72289598D01*
X156683800Y-72289598D02*
X156607609Y-72213408D01*
X156607609Y-72213408D02*
X156455228Y-72175312D01*
X156455228Y-72175312D02*
X156188561Y-72175312D01*
X156188561Y-72175312D02*
X156036180Y-72213408D01*
X156036180Y-72213408D02*
X155959990Y-72289598D01*
X155959990Y-72289598D02*
X155921895Y-72365789D01*
X154196895Y-70181265D02*
X153396895Y-70181265D01*
X153396895Y-70181265D02*
X153968323Y-70447931D01*
X153968323Y-70447931D02*
X153396895Y-70714598D01*
X153396895Y-70714598D02*
X154196895Y-70714598D01*
X153396895Y-71247932D02*
X153396895Y-71400313D01*
X153396895Y-71400313D02*
X153434990Y-71476503D01*
X153434990Y-71476503D02*
X153511180Y-71552694D01*
X153511180Y-71552694D02*
X153663561Y-71590789D01*
X153663561Y-71590789D02*
X153930228Y-71590789D01*
X153930228Y-71590789D02*
X154082609Y-71552694D01*
X154082609Y-71552694D02*
X154158800Y-71476503D01*
X154158800Y-71476503D02*
X154196895Y-71400313D01*
X154196895Y-71400313D02*
X154196895Y-71247932D01*
X154196895Y-71247932D02*
X154158800Y-71171741D01*
X154158800Y-71171741D02*
X154082609Y-71095551D01*
X154082609Y-71095551D02*
X153930228Y-71057455D01*
X153930228Y-71057455D02*
X153663561Y-71057455D01*
X153663561Y-71057455D02*
X153511180Y-71095551D01*
X153511180Y-71095551D02*
X153434990Y-71171741D01*
X153434990Y-71171741D02*
X153396895Y-71247932D01*
X154158800Y-71895550D02*
X154196895Y-72009836D01*
X154196895Y-72009836D02*
X154196895Y-72200312D01*
X154196895Y-72200312D02*
X154158800Y-72276503D01*
X154158800Y-72276503D02*
X154120704Y-72314598D01*
X154120704Y-72314598D02*
X154044514Y-72352693D01*
X154044514Y-72352693D02*
X153968323Y-72352693D01*
X153968323Y-72352693D02*
X153892133Y-72314598D01*
X153892133Y-72314598D02*
X153854038Y-72276503D01*
X153854038Y-72276503D02*
X153815942Y-72200312D01*
X153815942Y-72200312D02*
X153777847Y-72047931D01*
X153777847Y-72047931D02*
X153739752Y-71971741D01*
X153739752Y-71971741D02*
X153701657Y-71933646D01*
X153701657Y-71933646D02*
X153625466Y-71895550D01*
X153625466Y-71895550D02*
X153549276Y-71895550D01*
X153549276Y-71895550D02*
X153473085Y-71933646D01*
X153473085Y-71933646D02*
X153434990Y-71971741D01*
X153434990Y-71971741D02*
X153396895Y-72047931D01*
X153396895Y-72047931D02*
X153396895Y-72238408D01*
X153396895Y-72238408D02*
X153434990Y-72352693D01*
X154196895Y-72695551D02*
X153396895Y-72695551D01*
X159220704Y-71263408D02*
X159258800Y-71225312D01*
X159258800Y-71225312D02*
X159296895Y-71111027D01*
X159296895Y-71111027D02*
X159296895Y-71034836D01*
X159296895Y-71034836D02*
X159258800Y-70920550D01*
X159258800Y-70920550D02*
X159182609Y-70844360D01*
X159182609Y-70844360D02*
X159106419Y-70806265D01*
X159106419Y-70806265D02*
X158954038Y-70768169D01*
X158954038Y-70768169D02*
X158839752Y-70768169D01*
X158839752Y-70768169D02*
X158687371Y-70806265D01*
X158687371Y-70806265D02*
X158611180Y-70844360D01*
X158611180Y-70844360D02*
X158534990Y-70920550D01*
X158534990Y-70920550D02*
X158496895Y-71034836D01*
X158496895Y-71034836D02*
X158496895Y-71111027D01*
X158496895Y-71111027D02*
X158534990Y-71225312D01*
X158534990Y-71225312D02*
X158573085Y-71263408D01*
X159296895Y-71987217D02*
X159296895Y-71606265D01*
X159296895Y-71606265D02*
X158496895Y-71606265D01*
X159296895Y-72253884D02*
X158496895Y-72253884D01*
X159296895Y-72711027D02*
X158839752Y-72368169D01*
X158496895Y-72711027D02*
X158954038Y-72253884D01*
X161046895Y-70666979D02*
X161846895Y-70933646D01*
X161846895Y-70933646D02*
X161046895Y-71200312D01*
X161770704Y-71924122D02*
X161808800Y-71886026D01*
X161808800Y-71886026D02*
X161846895Y-71771741D01*
X161846895Y-71771741D02*
X161846895Y-71695550D01*
X161846895Y-71695550D02*
X161808800Y-71581264D01*
X161808800Y-71581264D02*
X161732609Y-71505074D01*
X161732609Y-71505074D02*
X161656419Y-71466979D01*
X161656419Y-71466979D02*
X161504038Y-71428883D01*
X161504038Y-71428883D02*
X161389752Y-71428883D01*
X161389752Y-71428883D02*
X161237371Y-71466979D01*
X161237371Y-71466979D02*
X161161180Y-71505074D01*
X161161180Y-71505074D02*
X161084990Y-71581264D01*
X161084990Y-71581264D02*
X161046895Y-71695550D01*
X161046895Y-71695550D02*
X161046895Y-71771741D01*
X161046895Y-71771741D02*
X161084990Y-71886026D01*
X161084990Y-71886026D02*
X161123085Y-71924122D01*
X161770704Y-72724122D02*
X161808800Y-72686026D01*
X161808800Y-72686026D02*
X161846895Y-72571741D01*
X161846895Y-72571741D02*
X161846895Y-72495550D01*
X161846895Y-72495550D02*
X161808800Y-72381264D01*
X161808800Y-72381264D02*
X161732609Y-72305074D01*
X161732609Y-72305074D02*
X161656419Y-72266979D01*
X161656419Y-72266979D02*
X161504038Y-72228883D01*
X161504038Y-72228883D02*
X161389752Y-72228883D01*
X161389752Y-72228883D02*
X161237371Y-72266979D01*
X161237371Y-72266979D02*
X161161180Y-72305074D01*
X161161180Y-72305074D02*
X161084990Y-72381264D01*
X161084990Y-72381264D02*
X161046895Y-72495550D01*
X161046895Y-72495550D02*
X161046895Y-72571741D01*
X161046895Y-72571741D02*
X161084990Y-72686026D01*
X161084990Y-72686026D02*
X161123085Y-72724122D01*
X151658800Y-70718169D02*
X151696895Y-70832455D01*
X151696895Y-70832455D02*
X151696895Y-71022931D01*
X151696895Y-71022931D02*
X151658800Y-71099122D01*
X151658800Y-71099122D02*
X151620704Y-71137217D01*
X151620704Y-71137217D02*
X151544514Y-71175312D01*
X151544514Y-71175312D02*
X151468323Y-71175312D01*
X151468323Y-71175312D02*
X151392133Y-71137217D01*
X151392133Y-71137217D02*
X151354038Y-71099122D01*
X151354038Y-71099122D02*
X151315942Y-71022931D01*
X151315942Y-71022931D02*
X151277847Y-70870550D01*
X151277847Y-70870550D02*
X151239752Y-70794360D01*
X151239752Y-70794360D02*
X151201657Y-70756265D01*
X151201657Y-70756265D02*
X151125466Y-70718169D01*
X151125466Y-70718169D02*
X151049276Y-70718169D01*
X151049276Y-70718169D02*
X150973085Y-70756265D01*
X150973085Y-70756265D02*
X150934990Y-70794360D01*
X150934990Y-70794360D02*
X150896895Y-70870550D01*
X150896895Y-70870550D02*
X150896895Y-71061027D01*
X150896895Y-71061027D02*
X150934990Y-71175312D01*
X151620704Y-71975313D02*
X151658800Y-71937217D01*
X151658800Y-71937217D02*
X151696895Y-71822932D01*
X151696895Y-71822932D02*
X151696895Y-71746741D01*
X151696895Y-71746741D02*
X151658800Y-71632455D01*
X151658800Y-71632455D02*
X151582609Y-71556265D01*
X151582609Y-71556265D02*
X151506419Y-71518170D01*
X151506419Y-71518170D02*
X151354038Y-71480074D01*
X151354038Y-71480074D02*
X151239752Y-71480074D01*
X151239752Y-71480074D02*
X151087371Y-71518170D01*
X151087371Y-71518170D02*
X151011180Y-71556265D01*
X151011180Y-71556265D02*
X150934990Y-71632455D01*
X150934990Y-71632455D02*
X150896895Y-71746741D01*
X150896895Y-71746741D02*
X150896895Y-71822932D01*
X150896895Y-71822932D02*
X150934990Y-71937217D01*
X150934990Y-71937217D02*
X150973085Y-71975313D01*
X151696895Y-72699122D02*
X151696895Y-72318170D01*
X151696895Y-72318170D02*
X150896895Y-72318170D01*
X149083800Y-70693169D02*
X149121895Y-70807455D01*
X149121895Y-70807455D02*
X149121895Y-70997931D01*
X149121895Y-70997931D02*
X149083800Y-71074122D01*
X149083800Y-71074122D02*
X149045704Y-71112217D01*
X149045704Y-71112217D02*
X148969514Y-71150312D01*
X148969514Y-71150312D02*
X148893323Y-71150312D01*
X148893323Y-71150312D02*
X148817133Y-71112217D01*
X148817133Y-71112217D02*
X148779038Y-71074122D01*
X148779038Y-71074122D02*
X148740942Y-70997931D01*
X148740942Y-70997931D02*
X148702847Y-70845550D01*
X148702847Y-70845550D02*
X148664752Y-70769360D01*
X148664752Y-70769360D02*
X148626657Y-70731265D01*
X148626657Y-70731265D02*
X148550466Y-70693169D01*
X148550466Y-70693169D02*
X148474276Y-70693169D01*
X148474276Y-70693169D02*
X148398085Y-70731265D01*
X148398085Y-70731265D02*
X148359990Y-70769360D01*
X148359990Y-70769360D02*
X148321895Y-70845550D01*
X148321895Y-70845550D02*
X148321895Y-71036027D01*
X148321895Y-71036027D02*
X148359990Y-71150312D01*
X149121895Y-71493170D02*
X148321895Y-71493170D01*
X148321895Y-71493170D02*
X148321895Y-71683646D01*
X148321895Y-71683646D02*
X148359990Y-71797932D01*
X148359990Y-71797932D02*
X148436180Y-71874122D01*
X148436180Y-71874122D02*
X148512371Y-71912217D01*
X148512371Y-71912217D02*
X148664752Y-71950313D01*
X148664752Y-71950313D02*
X148779038Y-71950313D01*
X148779038Y-71950313D02*
X148931419Y-71912217D01*
X148931419Y-71912217D02*
X149007609Y-71874122D01*
X149007609Y-71874122D02*
X149083800Y-71797932D01*
X149083800Y-71797932D02*
X149121895Y-71683646D01*
X149121895Y-71683646D02*
X149121895Y-71493170D01*
X148893323Y-72255074D02*
X148893323Y-72636027D01*
X149121895Y-72178884D02*
X148321895Y-72445551D01*
X148321895Y-72445551D02*
X149121895Y-72712217D01*
X145859990Y-71050312D02*
X145821895Y-70974122D01*
X145821895Y-70974122D02*
X145821895Y-70859836D01*
X145821895Y-70859836D02*
X145859990Y-70745550D01*
X145859990Y-70745550D02*
X145936180Y-70669360D01*
X145936180Y-70669360D02*
X146012371Y-70631265D01*
X146012371Y-70631265D02*
X146164752Y-70593169D01*
X146164752Y-70593169D02*
X146279038Y-70593169D01*
X146279038Y-70593169D02*
X146431419Y-70631265D01*
X146431419Y-70631265D02*
X146507609Y-70669360D01*
X146507609Y-70669360D02*
X146583800Y-70745550D01*
X146583800Y-70745550D02*
X146621895Y-70859836D01*
X146621895Y-70859836D02*
X146621895Y-70936027D01*
X146621895Y-70936027D02*
X146583800Y-71050312D01*
X146583800Y-71050312D02*
X146545704Y-71088408D01*
X146545704Y-71088408D02*
X146279038Y-71088408D01*
X146279038Y-71088408D02*
X146279038Y-70936027D01*
X146621895Y-71431265D02*
X145821895Y-71431265D01*
X145821895Y-71431265D02*
X146621895Y-71888408D01*
X146621895Y-71888408D02*
X145821895Y-71888408D01*
X146621895Y-72269360D02*
X145821895Y-72269360D01*
X145821895Y-72269360D02*
X145821895Y-72459836D01*
X145821895Y-72459836D02*
X145859990Y-72574122D01*
X145859990Y-72574122D02*
X145936180Y-72650312D01*
X145936180Y-72650312D02*
X146012371Y-72688407D01*
X146012371Y-72688407D02*
X146164752Y-72726503D01*
X146164752Y-72726503D02*
X146279038Y-72726503D01*
X146279038Y-72726503D02*
X146431419Y-72688407D01*
X146431419Y-72688407D02*
X146507609Y-72650312D01*
X146507609Y-72650312D02*
X146583800Y-72574122D01*
X146583800Y-72574122D02*
X146621895Y-72459836D01*
X146621895Y-72459836D02*
X146621895Y-72269360D01*
X143284990Y-71025312D02*
X143246895Y-70949122D01*
X143246895Y-70949122D02*
X143246895Y-70834836D01*
X143246895Y-70834836D02*
X143284990Y-70720550D01*
X143284990Y-70720550D02*
X143361180Y-70644360D01*
X143361180Y-70644360D02*
X143437371Y-70606265D01*
X143437371Y-70606265D02*
X143589752Y-70568169D01*
X143589752Y-70568169D02*
X143704038Y-70568169D01*
X143704038Y-70568169D02*
X143856419Y-70606265D01*
X143856419Y-70606265D02*
X143932609Y-70644360D01*
X143932609Y-70644360D02*
X144008800Y-70720550D01*
X144008800Y-70720550D02*
X144046895Y-70834836D01*
X144046895Y-70834836D02*
X144046895Y-70911027D01*
X144046895Y-70911027D02*
X144008800Y-71025312D01*
X144008800Y-71025312D02*
X143970704Y-71063408D01*
X143970704Y-71063408D02*
X143704038Y-71063408D01*
X143704038Y-71063408D02*
X143704038Y-70911027D01*
X144046895Y-71406265D02*
X143246895Y-71406265D01*
X143246895Y-71406265D02*
X144046895Y-71863408D01*
X144046895Y-71863408D02*
X143246895Y-71863408D01*
X144046895Y-72244360D02*
X143246895Y-72244360D01*
X143246895Y-72244360D02*
X143246895Y-72434836D01*
X143246895Y-72434836D02*
X143284990Y-72549122D01*
X143284990Y-72549122D02*
X143361180Y-72625312D01*
X143361180Y-72625312D02*
X143437371Y-72663407D01*
X143437371Y-72663407D02*
X143589752Y-72701503D01*
X143589752Y-72701503D02*
X143704038Y-72701503D01*
X143704038Y-72701503D02*
X143856419Y-72663407D01*
X143856419Y-72663407D02*
X143932609Y-72625312D01*
X143932609Y-72625312D02*
X144008800Y-72549122D01*
X144008800Y-72549122D02*
X144046895Y-72434836D01*
X144046895Y-72434836D02*
X144046895Y-72244360D01*
D11*
X161966666Y-53324819D02*
X162299999Y-52848628D01*
X162538094Y-53324819D02*
X162538094Y-52324819D01*
X162538094Y-52324819D02*
X162157142Y-52324819D01*
X162157142Y-52324819D02*
X162061904Y-52372438D01*
X162061904Y-52372438D02*
X162014285Y-52420057D01*
X162014285Y-52420057D02*
X161966666Y-52515295D01*
X161966666Y-52515295D02*
X161966666Y-52658152D01*
X161966666Y-52658152D02*
X162014285Y-52753390D01*
X162014285Y-52753390D02*
X162061904Y-52801009D01*
X162061904Y-52801009D02*
X162157142Y-52848628D01*
X162157142Y-52848628D02*
X162538094Y-52848628D01*
X161061904Y-52324819D02*
X161538094Y-52324819D01*
X161538094Y-52324819D02*
X161585713Y-52801009D01*
X161585713Y-52801009D02*
X161538094Y-52753390D01*
X161538094Y-52753390D02*
X161442856Y-52705771D01*
X161442856Y-52705771D02*
X161204761Y-52705771D01*
X161204761Y-52705771D02*
X161109523Y-52753390D01*
X161109523Y-52753390D02*
X161061904Y-52801009D01*
X161061904Y-52801009D02*
X161014285Y-52896247D01*
X161014285Y-52896247D02*
X161014285Y-53134342D01*
X161014285Y-53134342D02*
X161061904Y-53229580D01*
X161061904Y-53229580D02*
X161109523Y-53277200D01*
X161109523Y-53277200D02*
X161204761Y-53324819D01*
X161204761Y-53324819D02*
X161442856Y-53324819D01*
X161442856Y-53324819D02*
X161538094Y-53277200D01*
X161538094Y-53277200D02*
X161585713Y-53229580D01*
X161966666Y-58074819D02*
X162299999Y-57598628D01*
X162538094Y-58074819D02*
X162538094Y-57074819D01*
X162538094Y-57074819D02*
X162157142Y-57074819D01*
X162157142Y-57074819D02*
X162061904Y-57122438D01*
X162061904Y-57122438D02*
X162014285Y-57170057D01*
X162014285Y-57170057D02*
X161966666Y-57265295D01*
X161966666Y-57265295D02*
X161966666Y-57408152D01*
X161966666Y-57408152D02*
X162014285Y-57503390D01*
X162014285Y-57503390D02*
X162061904Y-57551009D01*
X162061904Y-57551009D02*
X162157142Y-57598628D01*
X162157142Y-57598628D02*
X162538094Y-57598628D01*
X161109523Y-57408152D02*
X161109523Y-58074819D01*
X161347618Y-57027200D02*
X161585713Y-57741485D01*
X161585713Y-57741485D02*
X160966666Y-57741485D01*
X147486666Y-65379580D02*
X147534285Y-65427200D01*
X147534285Y-65427200D02*
X147677142Y-65474819D01*
X147677142Y-65474819D02*
X147772380Y-65474819D01*
X147772380Y-65474819D02*
X147915237Y-65427200D01*
X147915237Y-65427200D02*
X148010475Y-65331961D01*
X148010475Y-65331961D02*
X148058094Y-65236723D01*
X148058094Y-65236723D02*
X148105713Y-65046247D01*
X148105713Y-65046247D02*
X148105713Y-64903390D01*
X148105713Y-64903390D02*
X148058094Y-64712914D01*
X148058094Y-64712914D02*
X148010475Y-64617676D01*
X148010475Y-64617676D02*
X147915237Y-64522438D01*
X147915237Y-64522438D02*
X147772380Y-64474819D01*
X147772380Y-64474819D02*
X147677142Y-64474819D01*
X147677142Y-64474819D02*
X147534285Y-64522438D01*
X147534285Y-64522438D02*
X147486666Y-64570057D01*
X146534285Y-65474819D02*
X147105713Y-65474819D01*
X146819999Y-65474819D02*
X146819999Y-64474819D01*
X146819999Y-64474819D02*
X146915237Y-64617676D01*
X146915237Y-64617676D02*
X147010475Y-64712914D01*
X147010475Y-64712914D02*
X147105713Y-64760533D01*
X139406666Y-63504819D02*
X139739999Y-63028628D01*
X139978094Y-63504819D02*
X139978094Y-62504819D01*
X139978094Y-62504819D02*
X139597142Y-62504819D01*
X139597142Y-62504819D02*
X139501904Y-62552438D01*
X139501904Y-62552438D02*
X139454285Y-62600057D01*
X139454285Y-62600057D02*
X139406666Y-62695295D01*
X139406666Y-62695295D02*
X139406666Y-62838152D01*
X139406666Y-62838152D02*
X139454285Y-62933390D01*
X139454285Y-62933390D02*
X139501904Y-62981009D01*
X139501904Y-62981009D02*
X139597142Y-63028628D01*
X139597142Y-63028628D02*
X139978094Y-63028628D01*
X139025713Y-62600057D02*
X138978094Y-62552438D01*
X138978094Y-62552438D02*
X138882856Y-62504819D01*
X138882856Y-62504819D02*
X138644761Y-62504819D01*
X138644761Y-62504819D02*
X138549523Y-62552438D01*
X138549523Y-62552438D02*
X138501904Y-62600057D01*
X138501904Y-62600057D02*
X138454285Y-62695295D01*
X138454285Y-62695295D02*
X138454285Y-62790533D01*
X138454285Y-62790533D02*
X138501904Y-62933390D01*
X138501904Y-62933390D02*
X139073332Y-63504819D01*
X139073332Y-63504819D02*
X138454285Y-63504819D01*
X140713333Y-54939821D02*
X140713333Y-55654106D01*
X140713333Y-55654106D02*
X140760952Y-55796963D01*
X140760952Y-55796963D02*
X140856190Y-55892202D01*
X140856190Y-55892202D02*
X140999047Y-55939821D01*
X140999047Y-55939821D02*
X141094285Y-55939821D01*
X140237142Y-55939821D02*
X140237142Y-54939821D01*
X140237142Y-54939821D02*
X139856190Y-54939821D01*
X139856190Y-54939821D02*
X139760952Y-54987440D01*
X139760952Y-54987440D02*
X139713333Y-55035059D01*
X139713333Y-55035059D02*
X139665714Y-55130297D01*
X139665714Y-55130297D02*
X139665714Y-55273154D01*
X139665714Y-55273154D02*
X139713333Y-55368392D01*
X139713333Y-55368392D02*
X139760952Y-55416011D01*
X139760952Y-55416011D02*
X139856190Y-55463630D01*
X139856190Y-55463630D02*
X140237142Y-55463630D01*
X139284761Y-55035059D02*
X139237142Y-54987440D01*
X139237142Y-54987440D02*
X139141904Y-54939821D01*
X139141904Y-54939821D02*
X138903809Y-54939821D01*
X138903809Y-54939821D02*
X138808571Y-54987440D01*
X138808571Y-54987440D02*
X138760952Y-55035059D01*
X138760952Y-55035059D02*
X138713333Y-55130297D01*
X138713333Y-55130297D02*
X138713333Y-55225535D01*
X138713333Y-55225535D02*
X138760952Y-55368392D01*
X138760952Y-55368392D02*
X139332380Y-55939821D01*
X139332380Y-55939821D02*
X138713333Y-55939821D01*
X144213333Y-54939820D02*
X144213333Y-55654105D01*
X144213333Y-55654105D02*
X144260952Y-55796962D01*
X144260952Y-55796962D02*
X144356190Y-55892201D01*
X144356190Y-55892201D02*
X144499047Y-55939820D01*
X144499047Y-55939820D02*
X144594285Y-55939820D01*
X143737142Y-55939820D02*
X143737142Y-54939820D01*
X143737142Y-54939820D02*
X143356190Y-54939820D01*
X143356190Y-54939820D02*
X143260952Y-54987439D01*
X143260952Y-54987439D02*
X143213333Y-55035058D01*
X143213333Y-55035058D02*
X143165714Y-55130296D01*
X143165714Y-55130296D02*
X143165714Y-55273153D01*
X143165714Y-55273153D02*
X143213333Y-55368391D01*
X143213333Y-55368391D02*
X143260952Y-55416010D01*
X143260952Y-55416010D02*
X143356190Y-55463629D01*
X143356190Y-55463629D02*
X143737142Y-55463629D01*
X142213333Y-55939820D02*
X142784761Y-55939820D01*
X142499047Y-55939820D02*
X142499047Y-54939820D01*
X142499047Y-54939820D02*
X142594285Y-55082677D01*
X142594285Y-55082677D02*
X142689523Y-55177915D01*
X142689523Y-55177915D02*
X142784761Y-55225534D01*
X153311904Y-48304819D02*
X153311904Y-49114342D01*
X153311904Y-49114342D02*
X153264285Y-49209580D01*
X153264285Y-49209580D02*
X153216666Y-49257200D01*
X153216666Y-49257200D02*
X153121428Y-49304819D01*
X153121428Y-49304819D02*
X152930952Y-49304819D01*
X152930952Y-49304819D02*
X152835714Y-49257200D01*
X152835714Y-49257200D02*
X152788095Y-49209580D01*
X152788095Y-49209580D02*
X152740476Y-49114342D01*
X152740476Y-49114342D02*
X152740476Y-48304819D01*
X151740476Y-49304819D02*
X152311904Y-49304819D01*
X152026190Y-49304819D02*
X152026190Y-48304819D01*
X152026190Y-48304819D02*
X152121428Y-48447676D01*
X152121428Y-48447676D02*
X152216666Y-48542914D01*
X152216666Y-48542914D02*
X152311904Y-48590533D01*
X136556666Y-63524819D02*
X136889999Y-63048628D01*
X137128094Y-63524819D02*
X137128094Y-62524819D01*
X137128094Y-62524819D02*
X136747142Y-62524819D01*
X136747142Y-62524819D02*
X136651904Y-62572438D01*
X136651904Y-62572438D02*
X136604285Y-62620057D01*
X136604285Y-62620057D02*
X136556666Y-62715295D01*
X136556666Y-62715295D02*
X136556666Y-62858152D01*
X136556666Y-62858152D02*
X136604285Y-62953390D01*
X136604285Y-62953390D02*
X136651904Y-63001009D01*
X136651904Y-63001009D02*
X136747142Y-63048628D01*
X136747142Y-63048628D02*
X137128094Y-63048628D01*
X135604285Y-63524819D02*
X136175713Y-63524819D01*
X135889999Y-63524819D02*
X135889999Y-62524819D01*
X135889999Y-62524819D02*
X135985237Y-62667676D01*
X135985237Y-62667676D02*
X136080475Y-62762914D01*
X136080475Y-62762914D02*
X136175713Y-62810533D01*
X137213333Y-54939820D02*
X137213333Y-55654105D01*
X137213333Y-55654105D02*
X137260952Y-55796962D01*
X137260952Y-55796962D02*
X137356190Y-55892201D01*
X137356190Y-55892201D02*
X137499047Y-55939820D01*
X137499047Y-55939820D02*
X137594285Y-55939820D01*
X136737142Y-55939820D02*
X136737142Y-54939820D01*
X136737142Y-54939820D02*
X136356190Y-54939820D01*
X136356190Y-54939820D02*
X136260952Y-54987439D01*
X136260952Y-54987439D02*
X136213333Y-55035058D01*
X136213333Y-55035058D02*
X136165714Y-55130296D01*
X136165714Y-55130296D02*
X136165714Y-55273153D01*
X136165714Y-55273153D02*
X136213333Y-55368391D01*
X136213333Y-55368391D02*
X136260952Y-55416010D01*
X136260952Y-55416010D02*
X136356190Y-55463629D01*
X136356190Y-55463629D02*
X136737142Y-55463629D01*
X135832380Y-54939820D02*
X135213333Y-54939820D01*
X135213333Y-54939820D02*
X135546666Y-55320772D01*
X135546666Y-55320772D02*
X135403809Y-55320772D01*
X135403809Y-55320772D02*
X135308571Y-55368391D01*
X135308571Y-55368391D02*
X135260952Y-55416010D01*
X135260952Y-55416010D02*
X135213333Y-55511248D01*
X135213333Y-55511248D02*
X135213333Y-55749343D01*
X135213333Y-55749343D02*
X135260952Y-55844581D01*
X135260952Y-55844581D02*
X135308571Y-55892201D01*
X135308571Y-55892201D02*
X135403809Y-55939820D01*
X135403809Y-55939820D02*
X135689523Y-55939820D01*
X135689523Y-55939820D02*
X135784761Y-55892201D01*
X135784761Y-55892201D02*
X135832380Y-55844581D01*
X142266666Y-63514819D02*
X142599999Y-63038628D01*
X142838094Y-63514819D02*
X142838094Y-62514819D01*
X142838094Y-62514819D02*
X142457142Y-62514819D01*
X142457142Y-62514819D02*
X142361904Y-62562438D01*
X142361904Y-62562438D02*
X142314285Y-62610057D01*
X142314285Y-62610057D02*
X142266666Y-62705295D01*
X142266666Y-62705295D02*
X142266666Y-62848152D01*
X142266666Y-62848152D02*
X142314285Y-62943390D01*
X142314285Y-62943390D02*
X142361904Y-62991009D01*
X142361904Y-62991009D02*
X142457142Y-63038628D01*
X142457142Y-63038628D02*
X142838094Y-63038628D01*
X141933332Y-62514819D02*
X141314285Y-62514819D01*
X141314285Y-62514819D02*
X141647618Y-62895771D01*
X141647618Y-62895771D02*
X141504761Y-62895771D01*
X141504761Y-62895771D02*
X141409523Y-62943390D01*
X141409523Y-62943390D02*
X141361904Y-62991009D01*
X141361904Y-62991009D02*
X141314285Y-63086247D01*
X141314285Y-63086247D02*
X141314285Y-63324342D01*
X141314285Y-63324342D02*
X141361904Y-63419580D01*
X141361904Y-63419580D02*
X141409523Y-63467200D01*
X141409523Y-63467200D02*
X141504761Y-63514819D01*
X141504761Y-63514819D02*
X141790475Y-63514819D01*
X141790475Y-63514819D02*
X141885713Y-63467200D01*
X141885713Y-63467200D02*
X141933332Y-63419580D01*
D12*
%TO.C,R5*%
X162037258Y-53777500D02*
X161562742Y-53777500D01*
X162037258Y-54822500D02*
X161562742Y-54822500D01*
%TO.C,R4*%
X162037258Y-56562500D02*
X161562742Y-56562500D01*
X162037258Y-55517500D02*
X161562742Y-55517500D01*
%TO.C,C1*%
X147179419Y-63930000D02*
X147460581Y-63930000D01*
X147179419Y-62910000D02*
X147460581Y-62910000D01*
%TO.C,R2*%
X139762500Y-60942258D02*
X139762500Y-60467742D01*
X138717500Y-60942258D02*
X138717500Y-60467742D01*
%TO.C,JP2*%
X140880000Y-51580001D02*
X138880000Y-51580001D01*
X138880000Y-51580001D02*
X138880000Y-54380001D01*
X140880000Y-54380001D02*
X140880000Y-51580001D01*
X138880000Y-54380001D02*
X140880000Y-54380001D01*
%TO.C,JP1*%
X144380000Y-51580000D02*
X142380000Y-51580000D01*
X142380000Y-51580000D02*
X142380000Y-54380000D01*
X144380000Y-54380000D02*
X144380000Y-51580000D01*
X142380000Y-54380000D02*
X144380000Y-54380000D01*
%TO.C,U1*%
X147547500Y-51439999D02*
X147077500Y-51780000D01*
X147077500Y-51100000D01*
X147547500Y-51439999D01*
G36*
X147547500Y-51439999D02*
G01*
X147077500Y-51780000D01*
X147077500Y-51100000D01*
X147547500Y-51439999D01*
G37*
X147297500Y-59950000D02*
X147552500Y-59950000D01*
X157562500Y-59950000D02*
X157817500Y-59950000D01*
X157817500Y-59950000D02*
X157817500Y-52230000D01*
X147297500Y-52230000D02*
X147297500Y-59950000D01*
X147552500Y-52230000D02*
X147297500Y-52230000D01*
X157817500Y-52230000D02*
X157562500Y-52230000D01*
%TO.C,R1*%
X135857500Y-60942258D02*
X135857500Y-60467742D01*
X136902500Y-60942258D02*
X136902500Y-60467742D01*
%TO.C,JP3*%
X137380000Y-51580000D02*
X135380000Y-51580000D01*
X135380000Y-51580000D02*
X135380000Y-54380000D01*
X137380000Y-54380000D02*
X137380000Y-51580000D01*
X135380000Y-54380000D02*
X137380000Y-54380000D01*
%TO.C,R3*%
X141577500Y-60942258D02*
X141577500Y-60467742D01*
X142622500Y-60942258D02*
X142622500Y-60467742D01*
%TD*%
%LPC*%
D13*
%TO.C,JP2*%
G36*
X140630000Y-54205001D02*
G01*
X139130000Y-54205001D01*
X139130000Y-51755001D01*
X140630000Y-51755001D01*
X140630000Y-54205001D01*
G37*
%TO.C,JP1*%
G36*
X144130000Y-54205000D02*
G01*
X142630000Y-54205000D01*
X142630000Y-51755000D01*
X144130000Y-51755000D01*
X144130000Y-54205000D01*
G37*
%TO.C,JP3*%
G36*
X137130000Y-54205000D02*
G01*
X135630000Y-54205000D01*
X135630000Y-51755000D01*
X137130000Y-51755000D01*
X137130000Y-54205000D01*
G37*
%TD*%
D14*
%TO.C,R5*%
X162625000Y-54300000D03*
X160975000Y-54300000D03*
%TD*%
%TO.C,R4*%
X160975000Y-56040000D03*
X162625000Y-56040000D03*
%TD*%
D15*
%TO.C,C1*%
X146545000Y-63420000D03*
X148095000Y-63420000D03*
%TD*%
D16*
%TO.C,R2*%
X139240000Y-61530000D03*
X139240000Y-59880000D03*
%TD*%
D17*
%TO.C,IC4*%
X128040001Y-44770000D03*
X148360001Y-44770000D03*
D18*
X129311001Y-67503000D03*
X131851101Y-67503000D03*
X134391101Y-67503000D03*
X136931101Y-67503000D03*
X139471101Y-67503000D03*
X142011101Y-67503000D03*
X144551101Y-67503000D03*
X147091101Y-67503000D03*
D19*
X132972101Y-45913000D03*
X136472101Y-45913000D03*
X139957101Y-45913000D03*
X143457101Y-45913000D03*
%TD*%
D20*
%TO.C,J8*%
X245380000Y-38230000D03*
X250460000Y-38230000D03*
X255540000Y-38230000D03*
D21*
X260620000Y-38230000D03*
%TD*%
D20*
%TO.C,J7*%
X216680000Y-38230000D03*
X221760000Y-38230000D03*
X226840000Y-38230000D03*
D21*
X231920000Y-38230000D03*
%TD*%
D20*
%TO.C,J6*%
X187980000Y-38230000D03*
X193060000Y-38230000D03*
X198140000Y-38230000D03*
D21*
X203220000Y-38230000D03*
%TD*%
D20*
%TO.C,J5*%
X159280000Y-38230000D03*
X164360000Y-38230000D03*
X169440000Y-38230000D03*
D21*
X174520000Y-38230000D03*
%TD*%
D20*
%TO.C,J4*%
X130580000Y-38230000D03*
X135660000Y-38230000D03*
X140740000Y-38230000D03*
D21*
X145820000Y-38230000D03*
%TD*%
D20*
%TO.C,J3*%
X101880000Y-38230000D03*
X106960000Y-38230000D03*
X112040000Y-38230000D03*
D21*
X117120000Y-38230000D03*
%TD*%
D20*
%TO.C,J2*%
X73180000Y-38230000D03*
X78260000Y-38230000D03*
X83340000Y-38230000D03*
D21*
X88420000Y-38230000D03*
%TD*%
D20*
%TO.C,J1*%
X44480000Y-38230000D03*
X49560000Y-38230000D03*
X54640000Y-38230000D03*
D21*
X59720000Y-38230000D03*
%TD*%
D17*
%TO.C,H1*%
X34550000Y-34230000D03*
%TD*%
D19*
%TO.C,IC1*%
X57357100Y-45913000D03*
X53857100Y-45913000D03*
X50372100Y-45913000D03*
X46872100Y-45913000D03*
D18*
X60991100Y-67503000D03*
X58451100Y-67503000D03*
X55911100Y-67503000D03*
X53371100Y-67503000D03*
X50831100Y-67503000D03*
X48291100Y-67503000D03*
X45751100Y-67503000D03*
X43211000Y-67503000D03*
D17*
X62260000Y-44770000D03*
X41940000Y-44770000D03*
%TD*%
D19*
%TO.C,IC2*%
X86057101Y-45913000D03*
X82557101Y-45913000D03*
X79072101Y-45913000D03*
X75572101Y-45913000D03*
D18*
X89691101Y-67503000D03*
X87151101Y-67503000D03*
X84611101Y-67503000D03*
X82071101Y-67503000D03*
X79531101Y-67503000D03*
X76991101Y-67503000D03*
X74451101Y-67503000D03*
X71911001Y-67503000D03*
D17*
X90960001Y-44770000D03*
X70640001Y-44770000D03*
%TD*%
D19*
%TO.C,IC7*%
X229557098Y-45913000D03*
X226057098Y-45913000D03*
X222572098Y-45913000D03*
X219072098Y-45913000D03*
D18*
X233191098Y-67503000D03*
X230651098Y-67503000D03*
X228111098Y-67503000D03*
X225571098Y-67503000D03*
X223031098Y-67503000D03*
X220491098Y-67503000D03*
X217951098Y-67503000D03*
X215410998Y-67503000D03*
D17*
X234459998Y-44770000D03*
X214139998Y-44770000D03*
%TD*%
%TO.C,H3*%
X270550000Y-34230000D03*
%TD*%
D22*
%TO.C,J9*%
X161439999Y-74180000D03*
X158899999Y-74180000D03*
X156359999Y-74180000D03*
X153819999Y-74180000D03*
X151279999Y-74180000D03*
X148739999Y-74180000D03*
X146199999Y-74180000D03*
D23*
X143659999Y-74180000D03*
%TD*%
D19*
%TO.C,IC5*%
X172157100Y-45913000D03*
X168657100Y-45913000D03*
X165172100Y-45913000D03*
X161672100Y-45913000D03*
D18*
X175791100Y-67503000D03*
X173251100Y-67503000D03*
X170711100Y-67503000D03*
X168171100Y-67503000D03*
X165631100Y-67503000D03*
X163091100Y-67503000D03*
X160551100Y-67503000D03*
X158011000Y-67503000D03*
D17*
X177060000Y-44770000D03*
X156740000Y-44770000D03*
%TD*%
D19*
%TO.C,IC3*%
X114757101Y-45913000D03*
X111257101Y-45913000D03*
X107772101Y-45913000D03*
X104272101Y-45913000D03*
D18*
X118391101Y-67503000D03*
X115851101Y-67503000D03*
X113311101Y-67503000D03*
X110771101Y-67503000D03*
X108231101Y-67503000D03*
X105691101Y-67503000D03*
X103151101Y-67503000D03*
X100611001Y-67503000D03*
D17*
X119660001Y-44770000D03*
X99340001Y-44770000D03*
%TD*%
%TO.C,H2*%
X34550000Y-73230000D03*
%TD*%
D19*
%TO.C,IC8*%
X258257099Y-45913000D03*
X254757099Y-45913000D03*
X251272099Y-45913000D03*
X247772099Y-45913000D03*
D18*
X261891099Y-67503000D03*
X259351099Y-67503000D03*
X256811099Y-67503000D03*
X254271099Y-67503000D03*
X251731099Y-67503000D03*
X249191099Y-67503000D03*
X246651099Y-67503000D03*
X244110999Y-67503000D03*
D17*
X263159999Y-44770000D03*
X242839999Y-44770000D03*
%TD*%
%TO.C,H4*%
X270490000Y-73230000D03*
%TD*%
D22*
%TO.C,J10*%
X132740000Y-74180000D03*
X130200000Y-74180000D03*
X127660000Y-74180000D03*
X125120000Y-74180000D03*
X122580000Y-74180000D03*
X120040000Y-74180000D03*
X117500000Y-74180000D03*
D23*
X114960000Y-74180000D03*
%TD*%
D19*
%TO.C,IC6*%
X200857101Y-45913000D03*
X197357101Y-45913000D03*
X193872101Y-45913000D03*
X190372101Y-45913000D03*
D18*
X204491101Y-67503000D03*
X201951101Y-67503000D03*
X199411101Y-67503000D03*
X196871101Y-67503000D03*
X194331101Y-67503000D03*
X191791101Y-67503000D03*
X189251101Y-67503000D03*
X186711001Y-67503000D03*
D17*
X205760001Y-44770000D03*
X185440001Y-44770000D03*
%TD*%
D24*
%TO.C,C2*%
X166010000Y-73840000D03*
X167424214Y-75254214D03*
%TD*%
D25*
%TO.C,JP2*%
X139880000Y-53705000D03*
D26*
X139880000Y-52255002D03*
%TD*%
D25*
%TO.C,JP1*%
X143380000Y-53704999D03*
D26*
X143380000Y-52255001D03*
%TD*%
D27*
%TO.C,U1*%
X148112500Y-60740000D03*
X149382500Y-60740001D03*
X150652500Y-60740000D03*
X151922500Y-60740000D03*
X153192500Y-60740000D03*
X154462500Y-60740000D03*
X155732500Y-60740001D03*
X157002500Y-60740000D03*
X157002500Y-51440000D03*
X155732500Y-51439999D03*
X154462500Y-51440000D03*
X153192500Y-51440000D03*
X151922500Y-51440000D03*
X150652500Y-51440000D03*
X149382500Y-51439999D03*
X148112500Y-51440000D03*
%TD*%
D16*
%TO.C,R1*%
X136380000Y-59880000D03*
X136380000Y-61530000D03*
%TD*%
D25*
%TO.C,JP3*%
X136380000Y-53704999D03*
D26*
X136380000Y-52255001D03*
%TD*%
D16*
%TO.C,R3*%
X142100000Y-59880000D03*
X142100000Y-61530000D03*
%TD*%
%LPD*%
M02*
