%TF.GenerationSoftware,KiCad,Pcbnew,9.0.5*%
%TF.CreationDate,2026-05-06T17:54:18+02:00*%
%TF.ProjectId,max31865_stack,6d617833-3138-4363-955f-737461636b2e,rev?*%
%TF.SameCoordinates,Original*%
%TF.FileFunction,Legend,Top*%
%TF.FilePolarity,Positive*%
%FSLAX46Y46*%
G04 Gerber Fmt 4.6, Leading zero omitted, Abs format (unit mm)*
G04 Created by KiCad (PCBNEW 9.0.5) date 2026-05-06 17:54:18*
%MOMM*%
%LPD*%
G01*
G04 APERTURE LIST*
G04 Aperture macros list*
%AMRoundRect*
0 Rectangle with rounded corners*
0 $1 Rounding radius*
0 $2 $3 $4 $5 $6 $7 $8 $9 X,Y pos of 4 corners*
0 Add a 4 corners polygon primitive as box body*
4,1,4,$2,$3,$4,$5,$6,$7,$8,$9,$2,$3,0*
0 Add four circle primitives for the rounded corners*
1,1,$1+$1,$2,$3*
1,1,$1+$1,$4,$5*
1,1,$1+$1,$6,$7*
1,1,$1+$1,$8,$9*
0 Add four rect primitives between the rounded corners*
20,1,$1+$1,$2,$3,$4,$5,0*
20,1,$1+$1,$4,$5,$6,$7,0*
20,1,$1+$1,$6,$7,$8,$9,0*
20,1,$1+$1,$8,$9,$2,$3,0*%
G04 Aperture macros list end*
%ADD10C,0.100000*%
%ADD11C,0.187500*%
%ADD12C,0.152400*%
%ADD13C,0.142240*%
%ADD14C,0.150000*%
%ADD15C,0.177800*%
%ADD16C,0.120000*%
%ADD17C,3.200000*%
%ADD18C,1.778000*%
%ADD19C,2.184400*%
%ADD20O,2.080000X3.600000*%
%ADD21RoundRect,0.249999X0.790001X1.550001X-0.790001X1.550001X-0.790001X-1.550001X0.790001X-1.550001X0*%
%ADD22C,1.700000*%
%ADD23R,1.700000X1.700000*%
%ADD24C,1.200000*%
G04 APERTURE END LIST*
D10*
X137373811Y-58787419D02*
X137373811Y-57787419D01*
X138421429Y-58692180D02*
X138373810Y-58739800D01*
X138373810Y-58739800D02*
X138230953Y-58787419D01*
X138230953Y-58787419D02*
X138135715Y-58787419D01*
X138135715Y-58787419D02*
X137992858Y-58739800D01*
X137992858Y-58739800D02*
X137897620Y-58644561D01*
X137897620Y-58644561D02*
X137850001Y-58549323D01*
X137850001Y-58549323D02*
X137802382Y-58358847D01*
X137802382Y-58358847D02*
X137802382Y-58215990D01*
X137802382Y-58215990D02*
X137850001Y-58025514D01*
X137850001Y-58025514D02*
X137897620Y-57930276D01*
X137897620Y-57930276D02*
X137992858Y-57835038D01*
X137992858Y-57835038D02*
X138135715Y-57787419D01*
X138135715Y-57787419D02*
X138230953Y-57787419D01*
X138230953Y-57787419D02*
X138373810Y-57835038D01*
X138373810Y-57835038D02*
X138421429Y-57882657D01*
X139278572Y-58120752D02*
X139278572Y-58787419D01*
X139040477Y-57739800D02*
X138802382Y-58454085D01*
X138802382Y-58454085D02*
X139421429Y-58454085D01*
D11*
X132921430Y-56884178D02*
X132921430Y-55384178D01*
X132921430Y-55384178D02*
X133421430Y-56455607D01*
X133421430Y-56455607D02*
X133921430Y-55384178D01*
X133921430Y-55384178D02*
X133921430Y-56884178D01*
X134564288Y-56455607D02*
X135278574Y-56455607D01*
X134421431Y-56884178D02*
X134921431Y-55384178D01*
X134921431Y-55384178D02*
X135421431Y-56884178D01*
X135778573Y-55384178D02*
X136778573Y-56884178D01*
X136778573Y-55384178D02*
X135778573Y-56884178D01*
X137207144Y-55384178D02*
X138135716Y-55384178D01*
X138135716Y-55384178D02*
X137635716Y-55955607D01*
X137635716Y-55955607D02*
X137850001Y-55955607D01*
X137850001Y-55955607D02*
X137992859Y-56027035D01*
X137992859Y-56027035D02*
X138064287Y-56098464D01*
X138064287Y-56098464D02*
X138135716Y-56241321D01*
X138135716Y-56241321D02*
X138135716Y-56598464D01*
X138135716Y-56598464D02*
X138064287Y-56741321D01*
X138064287Y-56741321D02*
X137992859Y-56812750D01*
X137992859Y-56812750D02*
X137850001Y-56884178D01*
X137850001Y-56884178D02*
X137421430Y-56884178D01*
X137421430Y-56884178D02*
X137278573Y-56812750D01*
X137278573Y-56812750D02*
X137207144Y-56741321D01*
X139564287Y-56884178D02*
X138707144Y-56884178D01*
X139135715Y-56884178D02*
X139135715Y-55384178D01*
X139135715Y-55384178D02*
X138992858Y-55598464D01*
X138992858Y-55598464D02*
X138850001Y-55741321D01*
X138850001Y-55741321D02*
X138707144Y-55812750D01*
X140421429Y-56027035D02*
X140278572Y-55955607D01*
X140278572Y-55955607D02*
X140207143Y-55884178D01*
X140207143Y-55884178D02*
X140135715Y-55741321D01*
X140135715Y-55741321D02*
X140135715Y-55669892D01*
X140135715Y-55669892D02*
X140207143Y-55527035D01*
X140207143Y-55527035D02*
X140278572Y-55455607D01*
X140278572Y-55455607D02*
X140421429Y-55384178D01*
X140421429Y-55384178D02*
X140707143Y-55384178D01*
X140707143Y-55384178D02*
X140850001Y-55455607D01*
X140850001Y-55455607D02*
X140921429Y-55527035D01*
X140921429Y-55527035D02*
X140992858Y-55669892D01*
X140992858Y-55669892D02*
X140992858Y-55741321D01*
X140992858Y-55741321D02*
X140921429Y-55884178D01*
X140921429Y-55884178D02*
X140850001Y-55955607D01*
X140850001Y-55955607D02*
X140707143Y-56027035D01*
X140707143Y-56027035D02*
X140421429Y-56027035D01*
X140421429Y-56027035D02*
X140278572Y-56098464D01*
X140278572Y-56098464D02*
X140207143Y-56169892D01*
X140207143Y-56169892D02*
X140135715Y-56312750D01*
X140135715Y-56312750D02*
X140135715Y-56598464D01*
X140135715Y-56598464D02*
X140207143Y-56741321D01*
X140207143Y-56741321D02*
X140278572Y-56812750D01*
X140278572Y-56812750D02*
X140421429Y-56884178D01*
X140421429Y-56884178D02*
X140707143Y-56884178D01*
X140707143Y-56884178D02*
X140850001Y-56812750D01*
X140850001Y-56812750D02*
X140921429Y-56741321D01*
X140921429Y-56741321D02*
X140992858Y-56598464D01*
X140992858Y-56598464D02*
X140992858Y-56312750D01*
X140992858Y-56312750D02*
X140921429Y-56169892D01*
X140921429Y-56169892D02*
X140850001Y-56098464D01*
X140850001Y-56098464D02*
X140707143Y-56027035D01*
X142278572Y-55384178D02*
X141992857Y-55384178D01*
X141992857Y-55384178D02*
X141850000Y-55455607D01*
X141850000Y-55455607D02*
X141778572Y-55527035D01*
X141778572Y-55527035D02*
X141635714Y-55741321D01*
X141635714Y-55741321D02*
X141564286Y-56027035D01*
X141564286Y-56027035D02*
X141564286Y-56598464D01*
X141564286Y-56598464D02*
X141635714Y-56741321D01*
X141635714Y-56741321D02*
X141707143Y-56812750D01*
X141707143Y-56812750D02*
X141850000Y-56884178D01*
X141850000Y-56884178D02*
X142135714Y-56884178D01*
X142135714Y-56884178D02*
X142278572Y-56812750D01*
X142278572Y-56812750D02*
X142350000Y-56741321D01*
X142350000Y-56741321D02*
X142421429Y-56598464D01*
X142421429Y-56598464D02*
X142421429Y-56241321D01*
X142421429Y-56241321D02*
X142350000Y-56098464D01*
X142350000Y-56098464D02*
X142278572Y-56027035D01*
X142278572Y-56027035D02*
X142135714Y-55955607D01*
X142135714Y-55955607D02*
X141850000Y-55955607D01*
X141850000Y-55955607D02*
X141707143Y-56027035D01*
X141707143Y-56027035D02*
X141635714Y-56098464D01*
X141635714Y-56098464D02*
X141564286Y-56241321D01*
X143778571Y-55384178D02*
X143064285Y-55384178D01*
X143064285Y-55384178D02*
X142992857Y-56098464D01*
X142992857Y-56098464D02*
X143064285Y-56027035D01*
X143064285Y-56027035D02*
X143207143Y-55955607D01*
X143207143Y-55955607D02*
X143564285Y-55955607D01*
X143564285Y-55955607D02*
X143707143Y-56027035D01*
X143707143Y-56027035D02*
X143778571Y-56098464D01*
X143778571Y-56098464D02*
X143850000Y-56241321D01*
X143850000Y-56241321D02*
X143850000Y-56598464D01*
X143850000Y-56598464D02*
X143778571Y-56741321D01*
X143778571Y-56741321D02*
X143707143Y-56812750D01*
X143707143Y-56812750D02*
X143564285Y-56884178D01*
X143564285Y-56884178D02*
X143207143Y-56884178D01*
X143207143Y-56884178D02*
X143064285Y-56812750D01*
X143064285Y-56812750D02*
X142992857Y-56741321D01*
D12*
X146845391Y-69561593D02*
X146557525Y-69150355D01*
X146351906Y-69561593D02*
X146351906Y-68697993D01*
X146351906Y-68697993D02*
X146680896Y-68697993D01*
X146680896Y-68697993D02*
X146763144Y-68739117D01*
X146763144Y-68739117D02*
X146804267Y-68780241D01*
X146804267Y-68780241D02*
X146845391Y-68862489D01*
X146845391Y-68862489D02*
X146845391Y-68985860D01*
X146845391Y-68985860D02*
X146804267Y-69068108D01*
X146804267Y-69068108D02*
X146763144Y-69109231D01*
X146763144Y-69109231D02*
X146680896Y-69150355D01*
X146680896Y-69150355D02*
X146351906Y-69150355D01*
X147215506Y-69561593D02*
X147215506Y-68697993D01*
X147215506Y-68697993D02*
X147421125Y-68697993D01*
X147421125Y-68697993D02*
X147544496Y-68739117D01*
X147544496Y-68739117D02*
X147626744Y-68821365D01*
X147626744Y-68821365D02*
X147667867Y-68903612D01*
X147667867Y-68903612D02*
X147708991Y-69068108D01*
X147708991Y-69068108D02*
X147708991Y-69191479D01*
X147708991Y-69191479D02*
X147667867Y-69355974D01*
X147667867Y-69355974D02*
X147626744Y-69438222D01*
X147626744Y-69438222D02*
X147544496Y-69520470D01*
X147544496Y-69520470D02*
X147421125Y-69561593D01*
X147421125Y-69561593D02*
X147215506Y-69561593D01*
X148243601Y-69150355D02*
X148243601Y-69561593D01*
X147955734Y-68697993D02*
X148243601Y-69150355D01*
X148243601Y-69150355D02*
X148531467Y-68697993D01*
X138375096Y-66218470D02*
X138498467Y-66259593D01*
X138498467Y-66259593D02*
X138704086Y-66259593D01*
X138704086Y-66259593D02*
X138786334Y-66218470D01*
X138786334Y-66218470D02*
X138827458Y-66177346D01*
X138827458Y-66177346D02*
X138868581Y-66095098D01*
X138868581Y-66095098D02*
X138868581Y-66012850D01*
X138868581Y-66012850D02*
X138827458Y-65930603D01*
X138827458Y-65930603D02*
X138786334Y-65889479D01*
X138786334Y-65889479D02*
X138704086Y-65848355D01*
X138704086Y-65848355D02*
X138539591Y-65807231D01*
X138539591Y-65807231D02*
X138457343Y-65766108D01*
X138457343Y-65766108D02*
X138416220Y-65724984D01*
X138416220Y-65724984D02*
X138375096Y-65642736D01*
X138375096Y-65642736D02*
X138375096Y-65560489D01*
X138375096Y-65560489D02*
X138416220Y-65478241D01*
X138416220Y-65478241D02*
X138457343Y-65437117D01*
X138457343Y-65437117D02*
X138539591Y-65395993D01*
X138539591Y-65395993D02*
X138745210Y-65395993D01*
X138745210Y-65395993D02*
X138868581Y-65437117D01*
X139238696Y-66259593D02*
X139238696Y-65395993D01*
X139238696Y-65395993D02*
X139444315Y-65395993D01*
X139444315Y-65395993D02*
X139567686Y-65437117D01*
X139567686Y-65437117D02*
X139649934Y-65519365D01*
X139649934Y-65519365D02*
X139691057Y-65601612D01*
X139691057Y-65601612D02*
X139732181Y-65766108D01*
X139732181Y-65766108D02*
X139732181Y-65889479D01*
X139732181Y-65889479D02*
X139691057Y-66053974D01*
X139691057Y-66053974D02*
X139649934Y-66136222D01*
X139649934Y-66136222D02*
X139567686Y-66218470D01*
X139567686Y-66218470D02*
X139444315Y-66259593D01*
X139444315Y-66259593D02*
X139238696Y-66259593D01*
X140266791Y-65395993D02*
X140431286Y-65395993D01*
X140431286Y-65395993D02*
X140513534Y-65437117D01*
X140513534Y-65437117D02*
X140595781Y-65519365D01*
X140595781Y-65519365D02*
X140636905Y-65683860D01*
X140636905Y-65683860D02*
X140636905Y-65971727D01*
X140636905Y-65971727D02*
X140595781Y-66136222D01*
X140595781Y-66136222D02*
X140513534Y-66218470D01*
X140513534Y-66218470D02*
X140431286Y-66259593D01*
X140431286Y-66259593D02*
X140266791Y-66259593D01*
X140266791Y-66259593D02*
X140184543Y-66218470D01*
X140184543Y-66218470D02*
X140102296Y-66136222D01*
X140102296Y-66136222D02*
X140061172Y-65971727D01*
X140061172Y-65971727D02*
X140061172Y-65683860D01*
X140061172Y-65683860D02*
X140102296Y-65519365D01*
X140102296Y-65519365D02*
X140184543Y-65437117D01*
X140184543Y-65437117D02*
X140266791Y-65395993D01*
D13*
X135629810Y-44156821D02*
X135338557Y-43740745D01*
X135130519Y-44156821D02*
X135130519Y-43283061D01*
X135130519Y-43283061D02*
X135463380Y-43283061D01*
X135463380Y-43283061D02*
X135546595Y-43324669D01*
X135546595Y-43324669D02*
X135588202Y-43366276D01*
X135588202Y-43366276D02*
X135629810Y-43449492D01*
X135629810Y-43449492D02*
X135629810Y-43574314D01*
X135629810Y-43574314D02*
X135588202Y-43657530D01*
X135588202Y-43657530D02*
X135546595Y-43699137D01*
X135546595Y-43699137D02*
X135463380Y-43740745D01*
X135463380Y-43740745D02*
X135130519Y-43740745D01*
X135879456Y-43283061D02*
X136378747Y-43283061D01*
X136129101Y-44156821D02*
X136129101Y-43283061D01*
X136670001Y-44156821D02*
X136670001Y-43283061D01*
X136670001Y-43283061D02*
X136878039Y-43283061D01*
X136878039Y-43283061D02*
X137002862Y-43324669D01*
X137002862Y-43324669D02*
X137086077Y-43407884D01*
X137086077Y-43407884D02*
X137127684Y-43491099D01*
X137127684Y-43491099D02*
X137169292Y-43657530D01*
X137169292Y-43657530D02*
X137169292Y-43782353D01*
X137169292Y-43782353D02*
X137127684Y-43948783D01*
X137127684Y-43948783D02*
X137086077Y-44031998D01*
X137086077Y-44031998D02*
X137002862Y-44115214D01*
X137002862Y-44115214D02*
X136878039Y-44156821D01*
X136878039Y-44156821D02*
X136670001Y-44156821D01*
X137543761Y-43823960D02*
X138209483Y-43823960D01*
X137876622Y-44156821D02*
X137876622Y-43491099D01*
D12*
X144442067Y-66177346D02*
X144400943Y-66218470D01*
X144400943Y-66218470D02*
X144277572Y-66259593D01*
X144277572Y-66259593D02*
X144195324Y-66259593D01*
X144195324Y-66259593D02*
X144071953Y-66218470D01*
X144071953Y-66218470D02*
X143989705Y-66136222D01*
X143989705Y-66136222D02*
X143948582Y-66053974D01*
X143948582Y-66053974D02*
X143907458Y-65889479D01*
X143907458Y-65889479D02*
X143907458Y-65766108D01*
X143907458Y-65766108D02*
X143948582Y-65601612D01*
X143948582Y-65601612D02*
X143989705Y-65519365D01*
X143989705Y-65519365D02*
X144071953Y-65437117D01*
X144071953Y-65437117D02*
X144195324Y-65395993D01*
X144195324Y-65395993D02*
X144277572Y-65395993D01*
X144277572Y-65395993D02*
X144400943Y-65437117D01*
X144400943Y-65437117D02*
X144442067Y-65478241D01*
X144771058Y-66218470D02*
X144894429Y-66259593D01*
X144894429Y-66259593D02*
X145100048Y-66259593D01*
X145100048Y-66259593D02*
X145182296Y-66218470D01*
X145182296Y-66218470D02*
X145223420Y-66177346D01*
X145223420Y-66177346D02*
X145264543Y-66095098D01*
X145264543Y-66095098D02*
X145264543Y-66012850D01*
X145264543Y-66012850D02*
X145223420Y-65930603D01*
X145223420Y-65930603D02*
X145182296Y-65889479D01*
X145182296Y-65889479D02*
X145100048Y-65848355D01*
X145100048Y-65848355D02*
X144935553Y-65807231D01*
X144935553Y-65807231D02*
X144853305Y-65766108D01*
X144853305Y-65766108D02*
X144812182Y-65724984D01*
X144812182Y-65724984D02*
X144771058Y-65642736D01*
X144771058Y-65642736D02*
X144771058Y-65560489D01*
X144771058Y-65560489D02*
X144812182Y-65478241D01*
X144812182Y-65478241D02*
X144853305Y-65437117D01*
X144853305Y-65437117D02*
X144935553Y-65395993D01*
X144935553Y-65395993D02*
X145141172Y-65395993D01*
X145141172Y-65395993D02*
X145264543Y-65437117D01*
D13*
X139579810Y-44156821D02*
X139288557Y-43740745D01*
X139080519Y-44156821D02*
X139080519Y-43283061D01*
X139080519Y-43283061D02*
X139413380Y-43283061D01*
X139413380Y-43283061D02*
X139496595Y-43324669D01*
X139496595Y-43324669D02*
X139538202Y-43366276D01*
X139538202Y-43366276D02*
X139579810Y-43449492D01*
X139579810Y-43449492D02*
X139579810Y-43574314D01*
X139579810Y-43574314D02*
X139538202Y-43657530D01*
X139538202Y-43657530D02*
X139496595Y-43699137D01*
X139496595Y-43699137D02*
X139413380Y-43740745D01*
X139413380Y-43740745D02*
X139080519Y-43740745D01*
X139829456Y-43283061D02*
X140328747Y-43283061D01*
X140079101Y-44156821D02*
X140079101Y-43283061D01*
X140620001Y-44156821D02*
X140620001Y-43283061D01*
X140620001Y-43283061D02*
X140828039Y-43283061D01*
X140828039Y-43283061D02*
X140952862Y-43324669D01*
X140952862Y-43324669D02*
X141036077Y-43407884D01*
X141036077Y-43407884D02*
X141077684Y-43491099D01*
X141077684Y-43491099D02*
X141119292Y-43657530D01*
X141119292Y-43657530D02*
X141119292Y-43782353D01*
X141119292Y-43782353D02*
X141077684Y-43948783D01*
X141077684Y-43948783D02*
X141036077Y-44031998D01*
X141036077Y-44031998D02*
X140952862Y-44115214D01*
X140952862Y-44115214D02*
X140828039Y-44156821D01*
X140828039Y-44156821D02*
X140620001Y-44156821D01*
X141493761Y-43823960D02*
X142159483Y-43823960D01*
D12*
X131355019Y-68739117D02*
X131272772Y-68697993D01*
X131272772Y-68697993D02*
X131149400Y-68697993D01*
X131149400Y-68697993D02*
X131026029Y-68739117D01*
X131026029Y-68739117D02*
X130943781Y-68821365D01*
X130943781Y-68821365D02*
X130902658Y-68903612D01*
X130902658Y-68903612D02*
X130861534Y-69068108D01*
X130861534Y-69068108D02*
X130861534Y-69191479D01*
X130861534Y-69191479D02*
X130902658Y-69355974D01*
X130902658Y-69355974D02*
X130943781Y-69438222D01*
X130943781Y-69438222D02*
X131026029Y-69520470D01*
X131026029Y-69520470D02*
X131149400Y-69561593D01*
X131149400Y-69561593D02*
X131231648Y-69561593D01*
X131231648Y-69561593D02*
X131355019Y-69520470D01*
X131355019Y-69520470D02*
X131396143Y-69479346D01*
X131396143Y-69479346D02*
X131396143Y-69191479D01*
X131396143Y-69191479D02*
X131231648Y-69191479D01*
X131766258Y-69561593D02*
X131766258Y-68697993D01*
X131766258Y-68697993D02*
X132259743Y-69561593D01*
X132259743Y-69561593D02*
X132259743Y-68697993D01*
X132670982Y-69561593D02*
X132670982Y-68697993D01*
X132670982Y-68697993D02*
X132876601Y-68697993D01*
X132876601Y-68697993D02*
X132999972Y-68739117D01*
X132999972Y-68739117D02*
X133082220Y-68821365D01*
X133082220Y-68821365D02*
X133123343Y-68903612D01*
X133123343Y-68903612D02*
X133164467Y-69068108D01*
X133164467Y-69068108D02*
X133164467Y-69191479D01*
X133164467Y-69191479D02*
X133123343Y-69355974D01*
X133123343Y-69355974D02*
X133082220Y-69438222D01*
X133082220Y-69438222D02*
X132999972Y-69520470D01*
X132999972Y-69520470D02*
X132876601Y-69561593D01*
X132876601Y-69561593D02*
X132670982Y-69561593D01*
X133356782Y-65395993D02*
X133891391Y-65395993D01*
X133891391Y-65395993D02*
X133603525Y-65724984D01*
X133603525Y-65724984D02*
X133726896Y-65724984D01*
X133726896Y-65724984D02*
X133809144Y-65766108D01*
X133809144Y-65766108D02*
X133850268Y-65807231D01*
X133850268Y-65807231D02*
X133891391Y-65889479D01*
X133891391Y-65889479D02*
X133891391Y-66095098D01*
X133891391Y-66095098D02*
X133850268Y-66177346D01*
X133850268Y-66177346D02*
X133809144Y-66218470D01*
X133809144Y-66218470D02*
X133726896Y-66259593D01*
X133726896Y-66259593D02*
X133480153Y-66259593D01*
X133480153Y-66259593D02*
X133397906Y-66218470D01*
X133397906Y-66218470D02*
X133356782Y-66177346D01*
X134138134Y-65395993D02*
X134426001Y-66259593D01*
X134426001Y-66259593D02*
X134713867Y-65395993D01*
X134919487Y-65395993D02*
X135454096Y-65395993D01*
X135454096Y-65395993D02*
X135166230Y-65724984D01*
X135166230Y-65724984D02*
X135289601Y-65724984D01*
X135289601Y-65724984D02*
X135371849Y-65766108D01*
X135371849Y-65766108D02*
X135412973Y-65807231D01*
X135412973Y-65807231D02*
X135454096Y-65889479D01*
X135454096Y-65889479D02*
X135454096Y-66095098D01*
X135454096Y-66095098D02*
X135412973Y-66177346D01*
X135412973Y-66177346D02*
X135371849Y-66218470D01*
X135371849Y-66218470D02*
X135289601Y-66259593D01*
X135289601Y-66259593D02*
X135042858Y-66259593D01*
X135042858Y-66259593D02*
X134960611Y-66218470D01*
X134960611Y-66218470D02*
X134919487Y-66177346D01*
D13*
X143183925Y-43699137D02*
X142892672Y-43699137D01*
X142892672Y-44156821D02*
X142892672Y-43283061D01*
X142892672Y-43283061D02*
X143308748Y-43283061D01*
X143641609Y-43823960D02*
X144307331Y-43823960D01*
D12*
X128400153Y-65395993D02*
X128688020Y-66259593D01*
X128688020Y-66259593D02*
X128975886Y-65395993D01*
X129263754Y-66259593D02*
X129263754Y-65395993D01*
X129674992Y-66259593D02*
X129674992Y-65395993D01*
X129674992Y-65395993D02*
X130168477Y-66259593D01*
X130168477Y-66259593D02*
X130168477Y-65395993D01*
X141161839Y-69520470D02*
X141285210Y-69561593D01*
X141285210Y-69561593D02*
X141490829Y-69561593D01*
X141490829Y-69561593D02*
X141573077Y-69520470D01*
X141573077Y-69520470D02*
X141614201Y-69479346D01*
X141614201Y-69479346D02*
X141655324Y-69397098D01*
X141655324Y-69397098D02*
X141655324Y-69314850D01*
X141655324Y-69314850D02*
X141614201Y-69232603D01*
X141614201Y-69232603D02*
X141573077Y-69191479D01*
X141573077Y-69191479D02*
X141490829Y-69150355D01*
X141490829Y-69150355D02*
X141326334Y-69109231D01*
X141326334Y-69109231D02*
X141244086Y-69068108D01*
X141244086Y-69068108D02*
X141202963Y-69026984D01*
X141202963Y-69026984D02*
X141161839Y-68944736D01*
X141161839Y-68944736D02*
X141161839Y-68862489D01*
X141161839Y-68862489D02*
X141202963Y-68780241D01*
X141202963Y-68780241D02*
X141244086Y-68739117D01*
X141244086Y-68739117D02*
X141326334Y-68697993D01*
X141326334Y-68697993D02*
X141531953Y-68697993D01*
X141531953Y-68697993D02*
X141655324Y-68739117D01*
X142025439Y-69561593D02*
X142025439Y-68697993D01*
X142025439Y-68697993D02*
X142231058Y-68697993D01*
X142231058Y-68697993D02*
X142354429Y-68739117D01*
X142354429Y-68739117D02*
X142436677Y-68821365D01*
X142436677Y-68821365D02*
X142477800Y-68903612D01*
X142477800Y-68903612D02*
X142518924Y-69068108D01*
X142518924Y-69068108D02*
X142518924Y-69191479D01*
X142518924Y-69191479D02*
X142477800Y-69355974D01*
X142477800Y-69355974D02*
X142436677Y-69438222D01*
X142436677Y-69438222D02*
X142354429Y-69520470D01*
X142354429Y-69520470D02*
X142231058Y-69561593D01*
X142231058Y-69561593D02*
X142025439Y-69561593D01*
X142889039Y-69561593D02*
X142889039Y-68697993D01*
X136578953Y-69479346D02*
X136537829Y-69520470D01*
X136537829Y-69520470D02*
X136414458Y-69561593D01*
X136414458Y-69561593D02*
X136332210Y-69561593D01*
X136332210Y-69561593D02*
X136208839Y-69520470D01*
X136208839Y-69520470D02*
X136126591Y-69438222D01*
X136126591Y-69438222D02*
X136085468Y-69355974D01*
X136085468Y-69355974D02*
X136044344Y-69191479D01*
X136044344Y-69191479D02*
X136044344Y-69068108D01*
X136044344Y-69068108D02*
X136085468Y-68903612D01*
X136085468Y-68903612D02*
X136126591Y-68821365D01*
X136126591Y-68821365D02*
X136208839Y-68739117D01*
X136208839Y-68739117D02*
X136332210Y-68697993D01*
X136332210Y-68697993D02*
X136414458Y-68697993D01*
X136414458Y-68697993D02*
X136537829Y-68739117D01*
X136537829Y-68739117D02*
X136578953Y-68780241D01*
X137360306Y-69561593D02*
X136949068Y-69561593D01*
X136949068Y-69561593D02*
X136949068Y-68697993D01*
X137648173Y-69561593D02*
X137648173Y-68697993D01*
X138141658Y-69561593D02*
X137771544Y-69068108D01*
X138141658Y-68697993D02*
X137648173Y-69191479D01*
D13*
X132843925Y-43699137D02*
X132552672Y-43699137D01*
X132552672Y-44156821D02*
X132552672Y-43283061D01*
X132552672Y-43283061D02*
X132968748Y-43283061D01*
X133301609Y-43823960D02*
X133967331Y-43823960D01*
X133634470Y-44156821D02*
X133634470Y-43491099D01*
D14*
X252666666Y-40884819D02*
X252666666Y-41599104D01*
X252666666Y-41599104D02*
X252619047Y-41741961D01*
X252619047Y-41741961D02*
X252523809Y-41837200D01*
X252523809Y-41837200D02*
X252380952Y-41884819D01*
X252380952Y-41884819D02*
X252285714Y-41884819D01*
X253285714Y-41313390D02*
X253190476Y-41265771D01*
X253190476Y-41265771D02*
X253142857Y-41218152D01*
X253142857Y-41218152D02*
X253095238Y-41122914D01*
X253095238Y-41122914D02*
X253095238Y-41075295D01*
X253095238Y-41075295D02*
X253142857Y-40980057D01*
X253142857Y-40980057D02*
X253190476Y-40932438D01*
X253190476Y-40932438D02*
X253285714Y-40884819D01*
X253285714Y-40884819D02*
X253476190Y-40884819D01*
X253476190Y-40884819D02*
X253571428Y-40932438D01*
X253571428Y-40932438D02*
X253619047Y-40980057D01*
X253619047Y-40980057D02*
X253666666Y-41075295D01*
X253666666Y-41075295D02*
X253666666Y-41122914D01*
X253666666Y-41122914D02*
X253619047Y-41218152D01*
X253619047Y-41218152D02*
X253571428Y-41265771D01*
X253571428Y-41265771D02*
X253476190Y-41313390D01*
X253476190Y-41313390D02*
X253285714Y-41313390D01*
X253285714Y-41313390D02*
X253190476Y-41361009D01*
X253190476Y-41361009D02*
X253142857Y-41408628D01*
X253142857Y-41408628D02*
X253095238Y-41503866D01*
X253095238Y-41503866D02*
X253095238Y-41694342D01*
X253095238Y-41694342D02*
X253142857Y-41789580D01*
X253142857Y-41789580D02*
X253190476Y-41837200D01*
X253190476Y-41837200D02*
X253285714Y-41884819D01*
X253285714Y-41884819D02*
X253476190Y-41884819D01*
X253476190Y-41884819D02*
X253571428Y-41837200D01*
X253571428Y-41837200D02*
X253619047Y-41789580D01*
X253619047Y-41789580D02*
X253666666Y-41694342D01*
X253666666Y-41694342D02*
X253666666Y-41503866D01*
X253666666Y-41503866D02*
X253619047Y-41408628D01*
X253619047Y-41408628D02*
X253571428Y-41361009D01*
X253571428Y-41361009D02*
X253476190Y-41313390D01*
X223966666Y-40884819D02*
X223966666Y-41599104D01*
X223966666Y-41599104D02*
X223919047Y-41741961D01*
X223919047Y-41741961D02*
X223823809Y-41837200D01*
X223823809Y-41837200D02*
X223680952Y-41884819D01*
X223680952Y-41884819D02*
X223585714Y-41884819D01*
X224347619Y-40884819D02*
X225014285Y-40884819D01*
X225014285Y-40884819D02*
X224585714Y-41884819D01*
X195266666Y-40884819D02*
X195266666Y-41599104D01*
X195266666Y-41599104D02*
X195219047Y-41741961D01*
X195219047Y-41741961D02*
X195123809Y-41837200D01*
X195123809Y-41837200D02*
X194980952Y-41884819D01*
X194980952Y-41884819D02*
X194885714Y-41884819D01*
X196171428Y-40884819D02*
X195980952Y-40884819D01*
X195980952Y-40884819D02*
X195885714Y-40932438D01*
X195885714Y-40932438D02*
X195838095Y-40980057D01*
X195838095Y-40980057D02*
X195742857Y-41122914D01*
X195742857Y-41122914D02*
X195695238Y-41313390D01*
X195695238Y-41313390D02*
X195695238Y-41694342D01*
X195695238Y-41694342D02*
X195742857Y-41789580D01*
X195742857Y-41789580D02*
X195790476Y-41837200D01*
X195790476Y-41837200D02*
X195885714Y-41884819D01*
X195885714Y-41884819D02*
X196076190Y-41884819D01*
X196076190Y-41884819D02*
X196171428Y-41837200D01*
X196171428Y-41837200D02*
X196219047Y-41789580D01*
X196219047Y-41789580D02*
X196266666Y-41694342D01*
X196266666Y-41694342D02*
X196266666Y-41456247D01*
X196266666Y-41456247D02*
X196219047Y-41361009D01*
X196219047Y-41361009D02*
X196171428Y-41313390D01*
X196171428Y-41313390D02*
X196076190Y-41265771D01*
X196076190Y-41265771D02*
X195885714Y-41265771D01*
X195885714Y-41265771D02*
X195790476Y-41313390D01*
X195790476Y-41313390D02*
X195742857Y-41361009D01*
X195742857Y-41361009D02*
X195695238Y-41456247D01*
X166566666Y-40884819D02*
X166566666Y-41599104D01*
X166566666Y-41599104D02*
X166519047Y-41741961D01*
X166519047Y-41741961D02*
X166423809Y-41837200D01*
X166423809Y-41837200D02*
X166280952Y-41884819D01*
X166280952Y-41884819D02*
X166185714Y-41884819D01*
X167519047Y-40884819D02*
X167042857Y-40884819D01*
X167042857Y-40884819D02*
X166995238Y-41361009D01*
X166995238Y-41361009D02*
X167042857Y-41313390D01*
X167042857Y-41313390D02*
X167138095Y-41265771D01*
X167138095Y-41265771D02*
X167376190Y-41265771D01*
X167376190Y-41265771D02*
X167471428Y-41313390D01*
X167471428Y-41313390D02*
X167519047Y-41361009D01*
X167519047Y-41361009D02*
X167566666Y-41456247D01*
X167566666Y-41456247D02*
X167566666Y-41694342D01*
X167566666Y-41694342D02*
X167519047Y-41789580D01*
X167519047Y-41789580D02*
X167471428Y-41837200D01*
X167471428Y-41837200D02*
X167376190Y-41884819D01*
X167376190Y-41884819D02*
X167138095Y-41884819D01*
X167138095Y-41884819D02*
X167042857Y-41837200D01*
X167042857Y-41837200D02*
X166995238Y-41789580D01*
X137866666Y-40884819D02*
X137866666Y-41599104D01*
X137866666Y-41599104D02*
X137819047Y-41741961D01*
X137819047Y-41741961D02*
X137723809Y-41837200D01*
X137723809Y-41837200D02*
X137580952Y-41884819D01*
X137580952Y-41884819D02*
X137485714Y-41884819D01*
X138771428Y-41218152D02*
X138771428Y-41884819D01*
X138533333Y-40837200D02*
X138295238Y-41551485D01*
X138295238Y-41551485D02*
X138914285Y-41551485D01*
X109166666Y-40884819D02*
X109166666Y-41599104D01*
X109166666Y-41599104D02*
X109119047Y-41741961D01*
X109119047Y-41741961D02*
X109023809Y-41837200D01*
X109023809Y-41837200D02*
X108880952Y-41884819D01*
X108880952Y-41884819D02*
X108785714Y-41884819D01*
X109547619Y-40884819D02*
X110166666Y-40884819D01*
X110166666Y-40884819D02*
X109833333Y-41265771D01*
X109833333Y-41265771D02*
X109976190Y-41265771D01*
X109976190Y-41265771D02*
X110071428Y-41313390D01*
X110071428Y-41313390D02*
X110119047Y-41361009D01*
X110119047Y-41361009D02*
X110166666Y-41456247D01*
X110166666Y-41456247D02*
X110166666Y-41694342D01*
X110166666Y-41694342D02*
X110119047Y-41789580D01*
X110119047Y-41789580D02*
X110071428Y-41837200D01*
X110071428Y-41837200D02*
X109976190Y-41884819D01*
X109976190Y-41884819D02*
X109690476Y-41884819D01*
X109690476Y-41884819D02*
X109595238Y-41837200D01*
X109595238Y-41837200D02*
X109547619Y-41789580D01*
X80466666Y-40884819D02*
X80466666Y-41599104D01*
X80466666Y-41599104D02*
X80419047Y-41741961D01*
X80419047Y-41741961D02*
X80323809Y-41837200D01*
X80323809Y-41837200D02*
X80180952Y-41884819D01*
X80180952Y-41884819D02*
X80085714Y-41884819D01*
X80895238Y-40980057D02*
X80942857Y-40932438D01*
X80942857Y-40932438D02*
X81038095Y-40884819D01*
X81038095Y-40884819D02*
X81276190Y-40884819D01*
X81276190Y-40884819D02*
X81371428Y-40932438D01*
X81371428Y-40932438D02*
X81419047Y-40980057D01*
X81419047Y-40980057D02*
X81466666Y-41075295D01*
X81466666Y-41075295D02*
X81466666Y-41170533D01*
X81466666Y-41170533D02*
X81419047Y-41313390D01*
X81419047Y-41313390D02*
X80847619Y-41884819D01*
X80847619Y-41884819D02*
X81466666Y-41884819D01*
X51766666Y-40884819D02*
X51766666Y-41599104D01*
X51766666Y-41599104D02*
X51719047Y-41741961D01*
X51719047Y-41741961D02*
X51623809Y-41837200D01*
X51623809Y-41837200D02*
X51480952Y-41884819D01*
X51480952Y-41884819D02*
X51385714Y-41884819D01*
X52766666Y-41884819D02*
X52195238Y-41884819D01*
X52480952Y-41884819D02*
X52480952Y-40884819D01*
X52480952Y-40884819D02*
X52385714Y-41027676D01*
X52385714Y-41027676D02*
X52290476Y-41122914D01*
X52290476Y-41122914D02*
X52195238Y-41170533D01*
D10*
X51273810Y-58787419D02*
X51273810Y-57787419D01*
X52321428Y-58692180D02*
X52273809Y-58739800D01*
X52273809Y-58739800D02*
X52130952Y-58787419D01*
X52130952Y-58787419D02*
X52035714Y-58787419D01*
X52035714Y-58787419D02*
X51892857Y-58739800D01*
X51892857Y-58739800D02*
X51797619Y-58644561D01*
X51797619Y-58644561D02*
X51750000Y-58549323D01*
X51750000Y-58549323D02*
X51702381Y-58358847D01*
X51702381Y-58358847D02*
X51702381Y-58215990D01*
X51702381Y-58215990D02*
X51750000Y-58025514D01*
X51750000Y-58025514D02*
X51797619Y-57930276D01*
X51797619Y-57930276D02*
X51892857Y-57835038D01*
X51892857Y-57835038D02*
X52035714Y-57787419D01*
X52035714Y-57787419D02*
X52130952Y-57787419D01*
X52130952Y-57787419D02*
X52273809Y-57835038D01*
X52273809Y-57835038D02*
X52321428Y-57882657D01*
X53273809Y-58787419D02*
X52702381Y-58787419D01*
X52988095Y-58787419D02*
X52988095Y-57787419D01*
X52988095Y-57787419D02*
X52892857Y-57930276D01*
X52892857Y-57930276D02*
X52797619Y-58025514D01*
X52797619Y-58025514D02*
X52702381Y-58073133D01*
D12*
X42300152Y-65395993D02*
X42588019Y-66259593D01*
X42588019Y-66259593D02*
X42875885Y-65395993D01*
X43163753Y-66259593D02*
X43163753Y-65395993D01*
X43574991Y-66259593D02*
X43574991Y-65395993D01*
X43574991Y-65395993D02*
X44068476Y-66259593D01*
X44068476Y-66259593D02*
X44068476Y-65395993D01*
X50478952Y-69479346D02*
X50437828Y-69520470D01*
X50437828Y-69520470D02*
X50314457Y-69561593D01*
X50314457Y-69561593D02*
X50232209Y-69561593D01*
X50232209Y-69561593D02*
X50108838Y-69520470D01*
X50108838Y-69520470D02*
X50026590Y-69438222D01*
X50026590Y-69438222D02*
X49985467Y-69355974D01*
X49985467Y-69355974D02*
X49944343Y-69191479D01*
X49944343Y-69191479D02*
X49944343Y-69068108D01*
X49944343Y-69068108D02*
X49985467Y-68903612D01*
X49985467Y-68903612D02*
X50026590Y-68821365D01*
X50026590Y-68821365D02*
X50108838Y-68739117D01*
X50108838Y-68739117D02*
X50232209Y-68697993D01*
X50232209Y-68697993D02*
X50314457Y-68697993D01*
X50314457Y-68697993D02*
X50437828Y-68739117D01*
X50437828Y-68739117D02*
X50478952Y-68780241D01*
X51260305Y-69561593D02*
X50849067Y-69561593D01*
X50849067Y-69561593D02*
X50849067Y-68697993D01*
X51548172Y-69561593D02*
X51548172Y-68697993D01*
X52041657Y-69561593D02*
X51671543Y-69068108D01*
X52041657Y-68697993D02*
X51548172Y-69191479D01*
D13*
X49529809Y-44156821D02*
X49238556Y-43740745D01*
X49030518Y-44156821D02*
X49030518Y-43283061D01*
X49030518Y-43283061D02*
X49363379Y-43283061D01*
X49363379Y-43283061D02*
X49446594Y-43324669D01*
X49446594Y-43324669D02*
X49488201Y-43366276D01*
X49488201Y-43366276D02*
X49529809Y-43449492D01*
X49529809Y-43449492D02*
X49529809Y-43574314D01*
X49529809Y-43574314D02*
X49488201Y-43657530D01*
X49488201Y-43657530D02*
X49446594Y-43699137D01*
X49446594Y-43699137D02*
X49363379Y-43740745D01*
X49363379Y-43740745D02*
X49030518Y-43740745D01*
X49779455Y-43283061D02*
X50278746Y-43283061D01*
X50029100Y-44156821D02*
X50029100Y-43283061D01*
X50570000Y-44156821D02*
X50570000Y-43283061D01*
X50570000Y-43283061D02*
X50778038Y-43283061D01*
X50778038Y-43283061D02*
X50902861Y-43324669D01*
X50902861Y-43324669D02*
X50986076Y-43407884D01*
X50986076Y-43407884D02*
X51027683Y-43491099D01*
X51027683Y-43491099D02*
X51069291Y-43657530D01*
X51069291Y-43657530D02*
X51069291Y-43782353D01*
X51069291Y-43782353D02*
X51027683Y-43948783D01*
X51027683Y-43948783D02*
X50986076Y-44031998D01*
X50986076Y-44031998D02*
X50902861Y-44115214D01*
X50902861Y-44115214D02*
X50778038Y-44156821D01*
X50778038Y-44156821D02*
X50570000Y-44156821D01*
X51443760Y-43823960D02*
X52109482Y-43823960D01*
X51776621Y-44156821D02*
X51776621Y-43491099D01*
X46743924Y-43699137D02*
X46452671Y-43699137D01*
X46452671Y-44156821D02*
X46452671Y-43283061D01*
X46452671Y-43283061D02*
X46868747Y-43283061D01*
X47201608Y-43823960D02*
X47867330Y-43823960D01*
X47534469Y-44156821D02*
X47534469Y-43491099D01*
D12*
X45255018Y-68739117D02*
X45172771Y-68697993D01*
X45172771Y-68697993D02*
X45049399Y-68697993D01*
X45049399Y-68697993D02*
X44926028Y-68739117D01*
X44926028Y-68739117D02*
X44843780Y-68821365D01*
X44843780Y-68821365D02*
X44802657Y-68903612D01*
X44802657Y-68903612D02*
X44761533Y-69068108D01*
X44761533Y-69068108D02*
X44761533Y-69191479D01*
X44761533Y-69191479D02*
X44802657Y-69355974D01*
X44802657Y-69355974D02*
X44843780Y-69438222D01*
X44843780Y-69438222D02*
X44926028Y-69520470D01*
X44926028Y-69520470D02*
X45049399Y-69561593D01*
X45049399Y-69561593D02*
X45131647Y-69561593D01*
X45131647Y-69561593D02*
X45255018Y-69520470D01*
X45255018Y-69520470D02*
X45296142Y-69479346D01*
X45296142Y-69479346D02*
X45296142Y-69191479D01*
X45296142Y-69191479D02*
X45131647Y-69191479D01*
X45666257Y-69561593D02*
X45666257Y-68697993D01*
X45666257Y-68697993D02*
X46159742Y-69561593D01*
X46159742Y-69561593D02*
X46159742Y-68697993D01*
X46570981Y-69561593D02*
X46570981Y-68697993D01*
X46570981Y-68697993D02*
X46776600Y-68697993D01*
X46776600Y-68697993D02*
X46899971Y-68739117D01*
X46899971Y-68739117D02*
X46982219Y-68821365D01*
X46982219Y-68821365D02*
X47023342Y-68903612D01*
X47023342Y-68903612D02*
X47064466Y-69068108D01*
X47064466Y-69068108D02*
X47064466Y-69191479D01*
X47064466Y-69191479D02*
X47023342Y-69355974D01*
X47023342Y-69355974D02*
X46982219Y-69438222D01*
X46982219Y-69438222D02*
X46899971Y-69520470D01*
X46899971Y-69520470D02*
X46776600Y-69561593D01*
X46776600Y-69561593D02*
X46570981Y-69561593D01*
X52275095Y-66218470D02*
X52398466Y-66259593D01*
X52398466Y-66259593D02*
X52604085Y-66259593D01*
X52604085Y-66259593D02*
X52686333Y-66218470D01*
X52686333Y-66218470D02*
X52727457Y-66177346D01*
X52727457Y-66177346D02*
X52768580Y-66095098D01*
X52768580Y-66095098D02*
X52768580Y-66012850D01*
X52768580Y-66012850D02*
X52727457Y-65930603D01*
X52727457Y-65930603D02*
X52686333Y-65889479D01*
X52686333Y-65889479D02*
X52604085Y-65848355D01*
X52604085Y-65848355D02*
X52439590Y-65807231D01*
X52439590Y-65807231D02*
X52357342Y-65766108D01*
X52357342Y-65766108D02*
X52316219Y-65724984D01*
X52316219Y-65724984D02*
X52275095Y-65642736D01*
X52275095Y-65642736D02*
X52275095Y-65560489D01*
X52275095Y-65560489D02*
X52316219Y-65478241D01*
X52316219Y-65478241D02*
X52357342Y-65437117D01*
X52357342Y-65437117D02*
X52439590Y-65395993D01*
X52439590Y-65395993D02*
X52645209Y-65395993D01*
X52645209Y-65395993D02*
X52768580Y-65437117D01*
X53138695Y-66259593D02*
X53138695Y-65395993D01*
X53138695Y-65395993D02*
X53344314Y-65395993D01*
X53344314Y-65395993D02*
X53467685Y-65437117D01*
X53467685Y-65437117D02*
X53549933Y-65519365D01*
X53549933Y-65519365D02*
X53591056Y-65601612D01*
X53591056Y-65601612D02*
X53632180Y-65766108D01*
X53632180Y-65766108D02*
X53632180Y-65889479D01*
X53632180Y-65889479D02*
X53591056Y-66053974D01*
X53591056Y-66053974D02*
X53549933Y-66136222D01*
X53549933Y-66136222D02*
X53467685Y-66218470D01*
X53467685Y-66218470D02*
X53344314Y-66259593D01*
X53344314Y-66259593D02*
X53138695Y-66259593D01*
X54166790Y-65395993D02*
X54331285Y-65395993D01*
X54331285Y-65395993D02*
X54413533Y-65437117D01*
X54413533Y-65437117D02*
X54495780Y-65519365D01*
X54495780Y-65519365D02*
X54536904Y-65683860D01*
X54536904Y-65683860D02*
X54536904Y-65971727D01*
X54536904Y-65971727D02*
X54495780Y-66136222D01*
X54495780Y-66136222D02*
X54413533Y-66218470D01*
X54413533Y-66218470D02*
X54331285Y-66259593D01*
X54331285Y-66259593D02*
X54166790Y-66259593D01*
X54166790Y-66259593D02*
X54084542Y-66218470D01*
X54084542Y-66218470D02*
X54002295Y-66136222D01*
X54002295Y-66136222D02*
X53961171Y-65971727D01*
X53961171Y-65971727D02*
X53961171Y-65683860D01*
X53961171Y-65683860D02*
X54002295Y-65519365D01*
X54002295Y-65519365D02*
X54084542Y-65437117D01*
X54084542Y-65437117D02*
X54166790Y-65395993D01*
D11*
X46821429Y-56884178D02*
X46821429Y-55384178D01*
X46821429Y-55384178D02*
X47321429Y-56455607D01*
X47321429Y-56455607D02*
X47821429Y-55384178D01*
X47821429Y-55384178D02*
X47821429Y-56884178D01*
X48464287Y-56455607D02*
X49178573Y-56455607D01*
X48321430Y-56884178D02*
X48821430Y-55384178D01*
X48821430Y-55384178D02*
X49321430Y-56884178D01*
X49678572Y-55384178D02*
X50678572Y-56884178D01*
X50678572Y-55384178D02*
X49678572Y-56884178D01*
X51107143Y-55384178D02*
X52035715Y-55384178D01*
X52035715Y-55384178D02*
X51535715Y-55955607D01*
X51535715Y-55955607D02*
X51750000Y-55955607D01*
X51750000Y-55955607D02*
X51892858Y-56027035D01*
X51892858Y-56027035D02*
X51964286Y-56098464D01*
X51964286Y-56098464D02*
X52035715Y-56241321D01*
X52035715Y-56241321D02*
X52035715Y-56598464D01*
X52035715Y-56598464D02*
X51964286Y-56741321D01*
X51964286Y-56741321D02*
X51892858Y-56812750D01*
X51892858Y-56812750D02*
X51750000Y-56884178D01*
X51750000Y-56884178D02*
X51321429Y-56884178D01*
X51321429Y-56884178D02*
X51178572Y-56812750D01*
X51178572Y-56812750D02*
X51107143Y-56741321D01*
X53464286Y-56884178D02*
X52607143Y-56884178D01*
X53035714Y-56884178D02*
X53035714Y-55384178D01*
X53035714Y-55384178D02*
X52892857Y-55598464D01*
X52892857Y-55598464D02*
X52750000Y-55741321D01*
X52750000Y-55741321D02*
X52607143Y-55812750D01*
X54321428Y-56027035D02*
X54178571Y-55955607D01*
X54178571Y-55955607D02*
X54107142Y-55884178D01*
X54107142Y-55884178D02*
X54035714Y-55741321D01*
X54035714Y-55741321D02*
X54035714Y-55669892D01*
X54035714Y-55669892D02*
X54107142Y-55527035D01*
X54107142Y-55527035D02*
X54178571Y-55455607D01*
X54178571Y-55455607D02*
X54321428Y-55384178D01*
X54321428Y-55384178D02*
X54607142Y-55384178D01*
X54607142Y-55384178D02*
X54750000Y-55455607D01*
X54750000Y-55455607D02*
X54821428Y-55527035D01*
X54821428Y-55527035D02*
X54892857Y-55669892D01*
X54892857Y-55669892D02*
X54892857Y-55741321D01*
X54892857Y-55741321D02*
X54821428Y-55884178D01*
X54821428Y-55884178D02*
X54750000Y-55955607D01*
X54750000Y-55955607D02*
X54607142Y-56027035D01*
X54607142Y-56027035D02*
X54321428Y-56027035D01*
X54321428Y-56027035D02*
X54178571Y-56098464D01*
X54178571Y-56098464D02*
X54107142Y-56169892D01*
X54107142Y-56169892D02*
X54035714Y-56312750D01*
X54035714Y-56312750D02*
X54035714Y-56598464D01*
X54035714Y-56598464D02*
X54107142Y-56741321D01*
X54107142Y-56741321D02*
X54178571Y-56812750D01*
X54178571Y-56812750D02*
X54321428Y-56884178D01*
X54321428Y-56884178D02*
X54607142Y-56884178D01*
X54607142Y-56884178D02*
X54750000Y-56812750D01*
X54750000Y-56812750D02*
X54821428Y-56741321D01*
X54821428Y-56741321D02*
X54892857Y-56598464D01*
X54892857Y-56598464D02*
X54892857Y-56312750D01*
X54892857Y-56312750D02*
X54821428Y-56169892D01*
X54821428Y-56169892D02*
X54750000Y-56098464D01*
X54750000Y-56098464D02*
X54607142Y-56027035D01*
X56178571Y-55384178D02*
X55892856Y-55384178D01*
X55892856Y-55384178D02*
X55749999Y-55455607D01*
X55749999Y-55455607D02*
X55678571Y-55527035D01*
X55678571Y-55527035D02*
X55535713Y-55741321D01*
X55535713Y-55741321D02*
X55464285Y-56027035D01*
X55464285Y-56027035D02*
X55464285Y-56598464D01*
X55464285Y-56598464D02*
X55535713Y-56741321D01*
X55535713Y-56741321D02*
X55607142Y-56812750D01*
X55607142Y-56812750D02*
X55749999Y-56884178D01*
X55749999Y-56884178D02*
X56035713Y-56884178D01*
X56035713Y-56884178D02*
X56178571Y-56812750D01*
X56178571Y-56812750D02*
X56249999Y-56741321D01*
X56249999Y-56741321D02*
X56321428Y-56598464D01*
X56321428Y-56598464D02*
X56321428Y-56241321D01*
X56321428Y-56241321D02*
X56249999Y-56098464D01*
X56249999Y-56098464D02*
X56178571Y-56027035D01*
X56178571Y-56027035D02*
X56035713Y-55955607D01*
X56035713Y-55955607D02*
X55749999Y-55955607D01*
X55749999Y-55955607D02*
X55607142Y-56027035D01*
X55607142Y-56027035D02*
X55535713Y-56098464D01*
X55535713Y-56098464D02*
X55464285Y-56241321D01*
X57678570Y-55384178D02*
X56964284Y-55384178D01*
X56964284Y-55384178D02*
X56892856Y-56098464D01*
X56892856Y-56098464D02*
X56964284Y-56027035D01*
X56964284Y-56027035D02*
X57107142Y-55955607D01*
X57107142Y-55955607D02*
X57464284Y-55955607D01*
X57464284Y-55955607D02*
X57607142Y-56027035D01*
X57607142Y-56027035D02*
X57678570Y-56098464D01*
X57678570Y-56098464D02*
X57749999Y-56241321D01*
X57749999Y-56241321D02*
X57749999Y-56598464D01*
X57749999Y-56598464D02*
X57678570Y-56741321D01*
X57678570Y-56741321D02*
X57607142Y-56812750D01*
X57607142Y-56812750D02*
X57464284Y-56884178D01*
X57464284Y-56884178D02*
X57107142Y-56884178D01*
X57107142Y-56884178D02*
X56964284Y-56812750D01*
X56964284Y-56812750D02*
X56892856Y-56741321D01*
D13*
X57083924Y-43699137D02*
X56792671Y-43699137D01*
X56792671Y-44156821D02*
X56792671Y-43283061D01*
X56792671Y-43283061D02*
X57208747Y-43283061D01*
X57541608Y-43823960D02*
X58207330Y-43823960D01*
D12*
X47256781Y-65395993D02*
X47791390Y-65395993D01*
X47791390Y-65395993D02*
X47503524Y-65724984D01*
X47503524Y-65724984D02*
X47626895Y-65724984D01*
X47626895Y-65724984D02*
X47709143Y-65766108D01*
X47709143Y-65766108D02*
X47750267Y-65807231D01*
X47750267Y-65807231D02*
X47791390Y-65889479D01*
X47791390Y-65889479D02*
X47791390Y-66095098D01*
X47791390Y-66095098D02*
X47750267Y-66177346D01*
X47750267Y-66177346D02*
X47709143Y-66218470D01*
X47709143Y-66218470D02*
X47626895Y-66259593D01*
X47626895Y-66259593D02*
X47380152Y-66259593D01*
X47380152Y-66259593D02*
X47297905Y-66218470D01*
X47297905Y-66218470D02*
X47256781Y-66177346D01*
X48038133Y-65395993D02*
X48326000Y-66259593D01*
X48326000Y-66259593D02*
X48613866Y-65395993D01*
X48819486Y-65395993D02*
X49354095Y-65395993D01*
X49354095Y-65395993D02*
X49066229Y-65724984D01*
X49066229Y-65724984D02*
X49189600Y-65724984D01*
X49189600Y-65724984D02*
X49271848Y-65766108D01*
X49271848Y-65766108D02*
X49312972Y-65807231D01*
X49312972Y-65807231D02*
X49354095Y-65889479D01*
X49354095Y-65889479D02*
X49354095Y-66095098D01*
X49354095Y-66095098D02*
X49312972Y-66177346D01*
X49312972Y-66177346D02*
X49271848Y-66218470D01*
X49271848Y-66218470D02*
X49189600Y-66259593D01*
X49189600Y-66259593D02*
X48942857Y-66259593D01*
X48942857Y-66259593D02*
X48860610Y-66218470D01*
X48860610Y-66218470D02*
X48819486Y-66177346D01*
D13*
X53479809Y-44156821D02*
X53188556Y-43740745D01*
X52980518Y-44156821D02*
X52980518Y-43283061D01*
X52980518Y-43283061D02*
X53313379Y-43283061D01*
X53313379Y-43283061D02*
X53396594Y-43324669D01*
X53396594Y-43324669D02*
X53438201Y-43366276D01*
X53438201Y-43366276D02*
X53479809Y-43449492D01*
X53479809Y-43449492D02*
X53479809Y-43574314D01*
X53479809Y-43574314D02*
X53438201Y-43657530D01*
X53438201Y-43657530D02*
X53396594Y-43699137D01*
X53396594Y-43699137D02*
X53313379Y-43740745D01*
X53313379Y-43740745D02*
X52980518Y-43740745D01*
X53729455Y-43283061D02*
X54228746Y-43283061D01*
X53979100Y-44156821D02*
X53979100Y-43283061D01*
X54520000Y-44156821D02*
X54520000Y-43283061D01*
X54520000Y-43283061D02*
X54728038Y-43283061D01*
X54728038Y-43283061D02*
X54852861Y-43324669D01*
X54852861Y-43324669D02*
X54936076Y-43407884D01*
X54936076Y-43407884D02*
X54977683Y-43491099D01*
X54977683Y-43491099D02*
X55019291Y-43657530D01*
X55019291Y-43657530D02*
X55019291Y-43782353D01*
X55019291Y-43782353D02*
X54977683Y-43948783D01*
X54977683Y-43948783D02*
X54936076Y-44031998D01*
X54936076Y-44031998D02*
X54852861Y-44115214D01*
X54852861Y-44115214D02*
X54728038Y-44156821D01*
X54728038Y-44156821D02*
X54520000Y-44156821D01*
X55393760Y-43823960D02*
X56059482Y-43823960D01*
D12*
X58342066Y-66177346D02*
X58300942Y-66218470D01*
X58300942Y-66218470D02*
X58177571Y-66259593D01*
X58177571Y-66259593D02*
X58095323Y-66259593D01*
X58095323Y-66259593D02*
X57971952Y-66218470D01*
X57971952Y-66218470D02*
X57889704Y-66136222D01*
X57889704Y-66136222D02*
X57848581Y-66053974D01*
X57848581Y-66053974D02*
X57807457Y-65889479D01*
X57807457Y-65889479D02*
X57807457Y-65766108D01*
X57807457Y-65766108D02*
X57848581Y-65601612D01*
X57848581Y-65601612D02*
X57889704Y-65519365D01*
X57889704Y-65519365D02*
X57971952Y-65437117D01*
X57971952Y-65437117D02*
X58095323Y-65395993D01*
X58095323Y-65395993D02*
X58177571Y-65395993D01*
X58177571Y-65395993D02*
X58300942Y-65437117D01*
X58300942Y-65437117D02*
X58342066Y-65478241D01*
X58671057Y-66218470D02*
X58794428Y-66259593D01*
X58794428Y-66259593D02*
X59000047Y-66259593D01*
X59000047Y-66259593D02*
X59082295Y-66218470D01*
X59082295Y-66218470D02*
X59123419Y-66177346D01*
X59123419Y-66177346D02*
X59164542Y-66095098D01*
X59164542Y-66095098D02*
X59164542Y-66012850D01*
X59164542Y-66012850D02*
X59123419Y-65930603D01*
X59123419Y-65930603D02*
X59082295Y-65889479D01*
X59082295Y-65889479D02*
X59000047Y-65848355D01*
X59000047Y-65848355D02*
X58835552Y-65807231D01*
X58835552Y-65807231D02*
X58753304Y-65766108D01*
X58753304Y-65766108D02*
X58712181Y-65724984D01*
X58712181Y-65724984D02*
X58671057Y-65642736D01*
X58671057Y-65642736D02*
X58671057Y-65560489D01*
X58671057Y-65560489D02*
X58712181Y-65478241D01*
X58712181Y-65478241D02*
X58753304Y-65437117D01*
X58753304Y-65437117D02*
X58835552Y-65395993D01*
X58835552Y-65395993D02*
X59041171Y-65395993D01*
X59041171Y-65395993D02*
X59164542Y-65437117D01*
X60745390Y-69561593D02*
X60457524Y-69150355D01*
X60251905Y-69561593D02*
X60251905Y-68697993D01*
X60251905Y-68697993D02*
X60580895Y-68697993D01*
X60580895Y-68697993D02*
X60663143Y-68739117D01*
X60663143Y-68739117D02*
X60704266Y-68780241D01*
X60704266Y-68780241D02*
X60745390Y-68862489D01*
X60745390Y-68862489D02*
X60745390Y-68985860D01*
X60745390Y-68985860D02*
X60704266Y-69068108D01*
X60704266Y-69068108D02*
X60663143Y-69109231D01*
X60663143Y-69109231D02*
X60580895Y-69150355D01*
X60580895Y-69150355D02*
X60251905Y-69150355D01*
X61115505Y-69561593D02*
X61115505Y-68697993D01*
X61115505Y-68697993D02*
X61321124Y-68697993D01*
X61321124Y-68697993D02*
X61444495Y-68739117D01*
X61444495Y-68739117D02*
X61526743Y-68821365D01*
X61526743Y-68821365D02*
X61567866Y-68903612D01*
X61567866Y-68903612D02*
X61608990Y-69068108D01*
X61608990Y-69068108D02*
X61608990Y-69191479D01*
X61608990Y-69191479D02*
X61567866Y-69355974D01*
X61567866Y-69355974D02*
X61526743Y-69438222D01*
X61526743Y-69438222D02*
X61444495Y-69520470D01*
X61444495Y-69520470D02*
X61321124Y-69561593D01*
X61321124Y-69561593D02*
X61115505Y-69561593D01*
X62143600Y-69150355D02*
X62143600Y-69561593D01*
X61855733Y-68697993D02*
X62143600Y-69150355D01*
X62143600Y-69150355D02*
X62431466Y-68697993D01*
X55061838Y-69520470D02*
X55185209Y-69561593D01*
X55185209Y-69561593D02*
X55390828Y-69561593D01*
X55390828Y-69561593D02*
X55473076Y-69520470D01*
X55473076Y-69520470D02*
X55514200Y-69479346D01*
X55514200Y-69479346D02*
X55555323Y-69397098D01*
X55555323Y-69397098D02*
X55555323Y-69314850D01*
X55555323Y-69314850D02*
X55514200Y-69232603D01*
X55514200Y-69232603D02*
X55473076Y-69191479D01*
X55473076Y-69191479D02*
X55390828Y-69150355D01*
X55390828Y-69150355D02*
X55226333Y-69109231D01*
X55226333Y-69109231D02*
X55144085Y-69068108D01*
X55144085Y-69068108D02*
X55102962Y-69026984D01*
X55102962Y-69026984D02*
X55061838Y-68944736D01*
X55061838Y-68944736D02*
X55061838Y-68862489D01*
X55061838Y-68862489D02*
X55102962Y-68780241D01*
X55102962Y-68780241D02*
X55144085Y-68739117D01*
X55144085Y-68739117D02*
X55226333Y-68697993D01*
X55226333Y-68697993D02*
X55431952Y-68697993D01*
X55431952Y-68697993D02*
X55555323Y-68739117D01*
X55925438Y-69561593D02*
X55925438Y-68697993D01*
X55925438Y-68697993D02*
X56131057Y-68697993D01*
X56131057Y-68697993D02*
X56254428Y-68739117D01*
X56254428Y-68739117D02*
X56336676Y-68821365D01*
X56336676Y-68821365D02*
X56377799Y-68903612D01*
X56377799Y-68903612D02*
X56418923Y-69068108D01*
X56418923Y-69068108D02*
X56418923Y-69191479D01*
X56418923Y-69191479D02*
X56377799Y-69355974D01*
X56377799Y-69355974D02*
X56336676Y-69438222D01*
X56336676Y-69438222D02*
X56254428Y-69520470D01*
X56254428Y-69520470D02*
X56131057Y-69561593D01*
X56131057Y-69561593D02*
X55925438Y-69561593D01*
X56789038Y-69561593D02*
X56789038Y-68697993D01*
D10*
X79973811Y-58787419D02*
X79973811Y-57787419D01*
X81021429Y-58692180D02*
X80973810Y-58739800D01*
X80973810Y-58739800D02*
X80830953Y-58787419D01*
X80830953Y-58787419D02*
X80735715Y-58787419D01*
X80735715Y-58787419D02*
X80592858Y-58739800D01*
X80592858Y-58739800D02*
X80497620Y-58644561D01*
X80497620Y-58644561D02*
X80450001Y-58549323D01*
X80450001Y-58549323D02*
X80402382Y-58358847D01*
X80402382Y-58358847D02*
X80402382Y-58215990D01*
X80402382Y-58215990D02*
X80450001Y-58025514D01*
X80450001Y-58025514D02*
X80497620Y-57930276D01*
X80497620Y-57930276D02*
X80592858Y-57835038D01*
X80592858Y-57835038D02*
X80735715Y-57787419D01*
X80735715Y-57787419D02*
X80830953Y-57787419D01*
X80830953Y-57787419D02*
X80973810Y-57835038D01*
X80973810Y-57835038D02*
X81021429Y-57882657D01*
X81402382Y-57882657D02*
X81450001Y-57835038D01*
X81450001Y-57835038D02*
X81545239Y-57787419D01*
X81545239Y-57787419D02*
X81783334Y-57787419D01*
X81783334Y-57787419D02*
X81878572Y-57835038D01*
X81878572Y-57835038D02*
X81926191Y-57882657D01*
X81926191Y-57882657D02*
X81973810Y-57977895D01*
X81973810Y-57977895D02*
X81973810Y-58073133D01*
X81973810Y-58073133D02*
X81926191Y-58215990D01*
X81926191Y-58215990D02*
X81354763Y-58787419D01*
X81354763Y-58787419D02*
X81973810Y-58787419D01*
D12*
X71000153Y-65395993D02*
X71288020Y-66259593D01*
X71288020Y-66259593D02*
X71575886Y-65395993D01*
X71863754Y-66259593D02*
X71863754Y-65395993D01*
X72274992Y-66259593D02*
X72274992Y-65395993D01*
X72274992Y-65395993D02*
X72768477Y-66259593D01*
X72768477Y-66259593D02*
X72768477Y-65395993D01*
D13*
X75443925Y-43699137D02*
X75152672Y-43699137D01*
X75152672Y-44156821D02*
X75152672Y-43283061D01*
X75152672Y-43283061D02*
X75568748Y-43283061D01*
X75901609Y-43823960D02*
X76567331Y-43823960D01*
X76234470Y-44156821D02*
X76234470Y-43491099D01*
D12*
X80975096Y-66218470D02*
X81098467Y-66259593D01*
X81098467Y-66259593D02*
X81304086Y-66259593D01*
X81304086Y-66259593D02*
X81386334Y-66218470D01*
X81386334Y-66218470D02*
X81427458Y-66177346D01*
X81427458Y-66177346D02*
X81468581Y-66095098D01*
X81468581Y-66095098D02*
X81468581Y-66012850D01*
X81468581Y-66012850D02*
X81427458Y-65930603D01*
X81427458Y-65930603D02*
X81386334Y-65889479D01*
X81386334Y-65889479D02*
X81304086Y-65848355D01*
X81304086Y-65848355D02*
X81139591Y-65807231D01*
X81139591Y-65807231D02*
X81057343Y-65766108D01*
X81057343Y-65766108D02*
X81016220Y-65724984D01*
X81016220Y-65724984D02*
X80975096Y-65642736D01*
X80975096Y-65642736D02*
X80975096Y-65560489D01*
X80975096Y-65560489D02*
X81016220Y-65478241D01*
X81016220Y-65478241D02*
X81057343Y-65437117D01*
X81057343Y-65437117D02*
X81139591Y-65395993D01*
X81139591Y-65395993D02*
X81345210Y-65395993D01*
X81345210Y-65395993D02*
X81468581Y-65437117D01*
X81838696Y-66259593D02*
X81838696Y-65395993D01*
X81838696Y-65395993D02*
X82044315Y-65395993D01*
X82044315Y-65395993D02*
X82167686Y-65437117D01*
X82167686Y-65437117D02*
X82249934Y-65519365D01*
X82249934Y-65519365D02*
X82291057Y-65601612D01*
X82291057Y-65601612D02*
X82332181Y-65766108D01*
X82332181Y-65766108D02*
X82332181Y-65889479D01*
X82332181Y-65889479D02*
X82291057Y-66053974D01*
X82291057Y-66053974D02*
X82249934Y-66136222D01*
X82249934Y-66136222D02*
X82167686Y-66218470D01*
X82167686Y-66218470D02*
X82044315Y-66259593D01*
X82044315Y-66259593D02*
X81838696Y-66259593D01*
X82866791Y-65395993D02*
X83031286Y-65395993D01*
X83031286Y-65395993D02*
X83113534Y-65437117D01*
X83113534Y-65437117D02*
X83195781Y-65519365D01*
X83195781Y-65519365D02*
X83236905Y-65683860D01*
X83236905Y-65683860D02*
X83236905Y-65971727D01*
X83236905Y-65971727D02*
X83195781Y-66136222D01*
X83195781Y-66136222D02*
X83113534Y-66218470D01*
X83113534Y-66218470D02*
X83031286Y-66259593D01*
X83031286Y-66259593D02*
X82866791Y-66259593D01*
X82866791Y-66259593D02*
X82784543Y-66218470D01*
X82784543Y-66218470D02*
X82702296Y-66136222D01*
X82702296Y-66136222D02*
X82661172Y-65971727D01*
X82661172Y-65971727D02*
X82661172Y-65683860D01*
X82661172Y-65683860D02*
X82702296Y-65519365D01*
X82702296Y-65519365D02*
X82784543Y-65437117D01*
X82784543Y-65437117D02*
X82866791Y-65395993D01*
X89445391Y-69561593D02*
X89157525Y-69150355D01*
X88951906Y-69561593D02*
X88951906Y-68697993D01*
X88951906Y-68697993D02*
X89280896Y-68697993D01*
X89280896Y-68697993D02*
X89363144Y-68739117D01*
X89363144Y-68739117D02*
X89404267Y-68780241D01*
X89404267Y-68780241D02*
X89445391Y-68862489D01*
X89445391Y-68862489D02*
X89445391Y-68985860D01*
X89445391Y-68985860D02*
X89404267Y-69068108D01*
X89404267Y-69068108D02*
X89363144Y-69109231D01*
X89363144Y-69109231D02*
X89280896Y-69150355D01*
X89280896Y-69150355D02*
X88951906Y-69150355D01*
X89815506Y-69561593D02*
X89815506Y-68697993D01*
X89815506Y-68697993D02*
X90021125Y-68697993D01*
X90021125Y-68697993D02*
X90144496Y-68739117D01*
X90144496Y-68739117D02*
X90226744Y-68821365D01*
X90226744Y-68821365D02*
X90267867Y-68903612D01*
X90267867Y-68903612D02*
X90308991Y-69068108D01*
X90308991Y-69068108D02*
X90308991Y-69191479D01*
X90308991Y-69191479D02*
X90267867Y-69355974D01*
X90267867Y-69355974D02*
X90226744Y-69438222D01*
X90226744Y-69438222D02*
X90144496Y-69520470D01*
X90144496Y-69520470D02*
X90021125Y-69561593D01*
X90021125Y-69561593D02*
X89815506Y-69561593D01*
X90843601Y-69150355D02*
X90843601Y-69561593D01*
X90555734Y-68697993D02*
X90843601Y-69150355D01*
X90843601Y-69150355D02*
X91131467Y-68697993D01*
D13*
X85783925Y-43699137D02*
X85492672Y-43699137D01*
X85492672Y-44156821D02*
X85492672Y-43283061D01*
X85492672Y-43283061D02*
X85908748Y-43283061D01*
X86241609Y-43823960D02*
X86907331Y-43823960D01*
X82179810Y-44156821D02*
X81888557Y-43740745D01*
X81680519Y-44156821D02*
X81680519Y-43283061D01*
X81680519Y-43283061D02*
X82013380Y-43283061D01*
X82013380Y-43283061D02*
X82096595Y-43324669D01*
X82096595Y-43324669D02*
X82138202Y-43366276D01*
X82138202Y-43366276D02*
X82179810Y-43449492D01*
X82179810Y-43449492D02*
X82179810Y-43574314D01*
X82179810Y-43574314D02*
X82138202Y-43657530D01*
X82138202Y-43657530D02*
X82096595Y-43699137D01*
X82096595Y-43699137D02*
X82013380Y-43740745D01*
X82013380Y-43740745D02*
X81680519Y-43740745D01*
X82429456Y-43283061D02*
X82928747Y-43283061D01*
X82679101Y-44156821D02*
X82679101Y-43283061D01*
X83220001Y-44156821D02*
X83220001Y-43283061D01*
X83220001Y-43283061D02*
X83428039Y-43283061D01*
X83428039Y-43283061D02*
X83552862Y-43324669D01*
X83552862Y-43324669D02*
X83636077Y-43407884D01*
X83636077Y-43407884D02*
X83677684Y-43491099D01*
X83677684Y-43491099D02*
X83719292Y-43657530D01*
X83719292Y-43657530D02*
X83719292Y-43782353D01*
X83719292Y-43782353D02*
X83677684Y-43948783D01*
X83677684Y-43948783D02*
X83636077Y-44031998D01*
X83636077Y-44031998D02*
X83552862Y-44115214D01*
X83552862Y-44115214D02*
X83428039Y-44156821D01*
X83428039Y-44156821D02*
X83220001Y-44156821D01*
X84093761Y-43823960D02*
X84759483Y-43823960D01*
D11*
X75521430Y-56884178D02*
X75521430Y-55384178D01*
X75521430Y-55384178D02*
X76021430Y-56455607D01*
X76021430Y-56455607D02*
X76521430Y-55384178D01*
X76521430Y-55384178D02*
X76521430Y-56884178D01*
X77164288Y-56455607D02*
X77878574Y-56455607D01*
X77021431Y-56884178D02*
X77521431Y-55384178D01*
X77521431Y-55384178D02*
X78021431Y-56884178D01*
X78378573Y-55384178D02*
X79378573Y-56884178D01*
X79378573Y-55384178D02*
X78378573Y-56884178D01*
X79807144Y-55384178D02*
X80735716Y-55384178D01*
X80735716Y-55384178D02*
X80235716Y-55955607D01*
X80235716Y-55955607D02*
X80450001Y-55955607D01*
X80450001Y-55955607D02*
X80592859Y-56027035D01*
X80592859Y-56027035D02*
X80664287Y-56098464D01*
X80664287Y-56098464D02*
X80735716Y-56241321D01*
X80735716Y-56241321D02*
X80735716Y-56598464D01*
X80735716Y-56598464D02*
X80664287Y-56741321D01*
X80664287Y-56741321D02*
X80592859Y-56812750D01*
X80592859Y-56812750D02*
X80450001Y-56884178D01*
X80450001Y-56884178D02*
X80021430Y-56884178D01*
X80021430Y-56884178D02*
X79878573Y-56812750D01*
X79878573Y-56812750D02*
X79807144Y-56741321D01*
X82164287Y-56884178D02*
X81307144Y-56884178D01*
X81735715Y-56884178D02*
X81735715Y-55384178D01*
X81735715Y-55384178D02*
X81592858Y-55598464D01*
X81592858Y-55598464D02*
X81450001Y-55741321D01*
X81450001Y-55741321D02*
X81307144Y-55812750D01*
X83021429Y-56027035D02*
X82878572Y-55955607D01*
X82878572Y-55955607D02*
X82807143Y-55884178D01*
X82807143Y-55884178D02*
X82735715Y-55741321D01*
X82735715Y-55741321D02*
X82735715Y-55669892D01*
X82735715Y-55669892D02*
X82807143Y-55527035D01*
X82807143Y-55527035D02*
X82878572Y-55455607D01*
X82878572Y-55455607D02*
X83021429Y-55384178D01*
X83021429Y-55384178D02*
X83307143Y-55384178D01*
X83307143Y-55384178D02*
X83450001Y-55455607D01*
X83450001Y-55455607D02*
X83521429Y-55527035D01*
X83521429Y-55527035D02*
X83592858Y-55669892D01*
X83592858Y-55669892D02*
X83592858Y-55741321D01*
X83592858Y-55741321D02*
X83521429Y-55884178D01*
X83521429Y-55884178D02*
X83450001Y-55955607D01*
X83450001Y-55955607D02*
X83307143Y-56027035D01*
X83307143Y-56027035D02*
X83021429Y-56027035D01*
X83021429Y-56027035D02*
X82878572Y-56098464D01*
X82878572Y-56098464D02*
X82807143Y-56169892D01*
X82807143Y-56169892D02*
X82735715Y-56312750D01*
X82735715Y-56312750D02*
X82735715Y-56598464D01*
X82735715Y-56598464D02*
X82807143Y-56741321D01*
X82807143Y-56741321D02*
X82878572Y-56812750D01*
X82878572Y-56812750D02*
X83021429Y-56884178D01*
X83021429Y-56884178D02*
X83307143Y-56884178D01*
X83307143Y-56884178D02*
X83450001Y-56812750D01*
X83450001Y-56812750D02*
X83521429Y-56741321D01*
X83521429Y-56741321D02*
X83592858Y-56598464D01*
X83592858Y-56598464D02*
X83592858Y-56312750D01*
X83592858Y-56312750D02*
X83521429Y-56169892D01*
X83521429Y-56169892D02*
X83450001Y-56098464D01*
X83450001Y-56098464D02*
X83307143Y-56027035D01*
X84878572Y-55384178D02*
X84592857Y-55384178D01*
X84592857Y-55384178D02*
X84450000Y-55455607D01*
X84450000Y-55455607D02*
X84378572Y-55527035D01*
X84378572Y-55527035D02*
X84235714Y-55741321D01*
X84235714Y-55741321D02*
X84164286Y-56027035D01*
X84164286Y-56027035D02*
X84164286Y-56598464D01*
X84164286Y-56598464D02*
X84235714Y-56741321D01*
X84235714Y-56741321D02*
X84307143Y-56812750D01*
X84307143Y-56812750D02*
X84450000Y-56884178D01*
X84450000Y-56884178D02*
X84735714Y-56884178D01*
X84735714Y-56884178D02*
X84878572Y-56812750D01*
X84878572Y-56812750D02*
X84950000Y-56741321D01*
X84950000Y-56741321D02*
X85021429Y-56598464D01*
X85021429Y-56598464D02*
X85021429Y-56241321D01*
X85021429Y-56241321D02*
X84950000Y-56098464D01*
X84950000Y-56098464D02*
X84878572Y-56027035D01*
X84878572Y-56027035D02*
X84735714Y-55955607D01*
X84735714Y-55955607D02*
X84450000Y-55955607D01*
X84450000Y-55955607D02*
X84307143Y-56027035D01*
X84307143Y-56027035D02*
X84235714Y-56098464D01*
X84235714Y-56098464D02*
X84164286Y-56241321D01*
X86378571Y-55384178D02*
X85664285Y-55384178D01*
X85664285Y-55384178D02*
X85592857Y-56098464D01*
X85592857Y-56098464D02*
X85664285Y-56027035D01*
X85664285Y-56027035D02*
X85807143Y-55955607D01*
X85807143Y-55955607D02*
X86164285Y-55955607D01*
X86164285Y-55955607D02*
X86307143Y-56027035D01*
X86307143Y-56027035D02*
X86378571Y-56098464D01*
X86378571Y-56098464D02*
X86450000Y-56241321D01*
X86450000Y-56241321D02*
X86450000Y-56598464D01*
X86450000Y-56598464D02*
X86378571Y-56741321D01*
X86378571Y-56741321D02*
X86307143Y-56812750D01*
X86307143Y-56812750D02*
X86164285Y-56884178D01*
X86164285Y-56884178D02*
X85807143Y-56884178D01*
X85807143Y-56884178D02*
X85664285Y-56812750D01*
X85664285Y-56812750D02*
X85592857Y-56741321D01*
D12*
X75956782Y-65395993D02*
X76491391Y-65395993D01*
X76491391Y-65395993D02*
X76203525Y-65724984D01*
X76203525Y-65724984D02*
X76326896Y-65724984D01*
X76326896Y-65724984D02*
X76409144Y-65766108D01*
X76409144Y-65766108D02*
X76450268Y-65807231D01*
X76450268Y-65807231D02*
X76491391Y-65889479D01*
X76491391Y-65889479D02*
X76491391Y-66095098D01*
X76491391Y-66095098D02*
X76450268Y-66177346D01*
X76450268Y-66177346D02*
X76409144Y-66218470D01*
X76409144Y-66218470D02*
X76326896Y-66259593D01*
X76326896Y-66259593D02*
X76080153Y-66259593D01*
X76080153Y-66259593D02*
X75997906Y-66218470D01*
X75997906Y-66218470D02*
X75956782Y-66177346D01*
X76738134Y-65395993D02*
X77026001Y-66259593D01*
X77026001Y-66259593D02*
X77313867Y-65395993D01*
X77519487Y-65395993D02*
X78054096Y-65395993D01*
X78054096Y-65395993D02*
X77766230Y-65724984D01*
X77766230Y-65724984D02*
X77889601Y-65724984D01*
X77889601Y-65724984D02*
X77971849Y-65766108D01*
X77971849Y-65766108D02*
X78012973Y-65807231D01*
X78012973Y-65807231D02*
X78054096Y-65889479D01*
X78054096Y-65889479D02*
X78054096Y-66095098D01*
X78054096Y-66095098D02*
X78012973Y-66177346D01*
X78012973Y-66177346D02*
X77971849Y-66218470D01*
X77971849Y-66218470D02*
X77889601Y-66259593D01*
X77889601Y-66259593D02*
X77642858Y-66259593D01*
X77642858Y-66259593D02*
X77560611Y-66218470D01*
X77560611Y-66218470D02*
X77519487Y-66177346D01*
D13*
X78229810Y-44156821D02*
X77938557Y-43740745D01*
X77730519Y-44156821D02*
X77730519Y-43283061D01*
X77730519Y-43283061D02*
X78063380Y-43283061D01*
X78063380Y-43283061D02*
X78146595Y-43324669D01*
X78146595Y-43324669D02*
X78188202Y-43366276D01*
X78188202Y-43366276D02*
X78229810Y-43449492D01*
X78229810Y-43449492D02*
X78229810Y-43574314D01*
X78229810Y-43574314D02*
X78188202Y-43657530D01*
X78188202Y-43657530D02*
X78146595Y-43699137D01*
X78146595Y-43699137D02*
X78063380Y-43740745D01*
X78063380Y-43740745D02*
X77730519Y-43740745D01*
X78479456Y-43283061D02*
X78978747Y-43283061D01*
X78729101Y-44156821D02*
X78729101Y-43283061D01*
X79270001Y-44156821D02*
X79270001Y-43283061D01*
X79270001Y-43283061D02*
X79478039Y-43283061D01*
X79478039Y-43283061D02*
X79602862Y-43324669D01*
X79602862Y-43324669D02*
X79686077Y-43407884D01*
X79686077Y-43407884D02*
X79727684Y-43491099D01*
X79727684Y-43491099D02*
X79769292Y-43657530D01*
X79769292Y-43657530D02*
X79769292Y-43782353D01*
X79769292Y-43782353D02*
X79727684Y-43948783D01*
X79727684Y-43948783D02*
X79686077Y-44031998D01*
X79686077Y-44031998D02*
X79602862Y-44115214D01*
X79602862Y-44115214D02*
X79478039Y-44156821D01*
X79478039Y-44156821D02*
X79270001Y-44156821D01*
X80143761Y-43823960D02*
X80809483Y-43823960D01*
X80476622Y-44156821D02*
X80476622Y-43491099D01*
D12*
X87042067Y-66177346D02*
X87000943Y-66218470D01*
X87000943Y-66218470D02*
X86877572Y-66259593D01*
X86877572Y-66259593D02*
X86795324Y-66259593D01*
X86795324Y-66259593D02*
X86671953Y-66218470D01*
X86671953Y-66218470D02*
X86589705Y-66136222D01*
X86589705Y-66136222D02*
X86548582Y-66053974D01*
X86548582Y-66053974D02*
X86507458Y-65889479D01*
X86507458Y-65889479D02*
X86507458Y-65766108D01*
X86507458Y-65766108D02*
X86548582Y-65601612D01*
X86548582Y-65601612D02*
X86589705Y-65519365D01*
X86589705Y-65519365D02*
X86671953Y-65437117D01*
X86671953Y-65437117D02*
X86795324Y-65395993D01*
X86795324Y-65395993D02*
X86877572Y-65395993D01*
X86877572Y-65395993D02*
X87000943Y-65437117D01*
X87000943Y-65437117D02*
X87042067Y-65478241D01*
X87371058Y-66218470D02*
X87494429Y-66259593D01*
X87494429Y-66259593D02*
X87700048Y-66259593D01*
X87700048Y-66259593D02*
X87782296Y-66218470D01*
X87782296Y-66218470D02*
X87823420Y-66177346D01*
X87823420Y-66177346D02*
X87864543Y-66095098D01*
X87864543Y-66095098D02*
X87864543Y-66012850D01*
X87864543Y-66012850D02*
X87823420Y-65930603D01*
X87823420Y-65930603D02*
X87782296Y-65889479D01*
X87782296Y-65889479D02*
X87700048Y-65848355D01*
X87700048Y-65848355D02*
X87535553Y-65807231D01*
X87535553Y-65807231D02*
X87453305Y-65766108D01*
X87453305Y-65766108D02*
X87412182Y-65724984D01*
X87412182Y-65724984D02*
X87371058Y-65642736D01*
X87371058Y-65642736D02*
X87371058Y-65560489D01*
X87371058Y-65560489D02*
X87412182Y-65478241D01*
X87412182Y-65478241D02*
X87453305Y-65437117D01*
X87453305Y-65437117D02*
X87535553Y-65395993D01*
X87535553Y-65395993D02*
X87741172Y-65395993D01*
X87741172Y-65395993D02*
X87864543Y-65437117D01*
X79178953Y-69479346D02*
X79137829Y-69520470D01*
X79137829Y-69520470D02*
X79014458Y-69561593D01*
X79014458Y-69561593D02*
X78932210Y-69561593D01*
X78932210Y-69561593D02*
X78808839Y-69520470D01*
X78808839Y-69520470D02*
X78726591Y-69438222D01*
X78726591Y-69438222D02*
X78685468Y-69355974D01*
X78685468Y-69355974D02*
X78644344Y-69191479D01*
X78644344Y-69191479D02*
X78644344Y-69068108D01*
X78644344Y-69068108D02*
X78685468Y-68903612D01*
X78685468Y-68903612D02*
X78726591Y-68821365D01*
X78726591Y-68821365D02*
X78808839Y-68739117D01*
X78808839Y-68739117D02*
X78932210Y-68697993D01*
X78932210Y-68697993D02*
X79014458Y-68697993D01*
X79014458Y-68697993D02*
X79137829Y-68739117D01*
X79137829Y-68739117D02*
X79178953Y-68780241D01*
X79960306Y-69561593D02*
X79549068Y-69561593D01*
X79549068Y-69561593D02*
X79549068Y-68697993D01*
X80248173Y-69561593D02*
X80248173Y-68697993D01*
X80741658Y-69561593D02*
X80371544Y-69068108D01*
X80741658Y-68697993D02*
X80248173Y-69191479D01*
X83761839Y-69520470D02*
X83885210Y-69561593D01*
X83885210Y-69561593D02*
X84090829Y-69561593D01*
X84090829Y-69561593D02*
X84173077Y-69520470D01*
X84173077Y-69520470D02*
X84214201Y-69479346D01*
X84214201Y-69479346D02*
X84255324Y-69397098D01*
X84255324Y-69397098D02*
X84255324Y-69314850D01*
X84255324Y-69314850D02*
X84214201Y-69232603D01*
X84214201Y-69232603D02*
X84173077Y-69191479D01*
X84173077Y-69191479D02*
X84090829Y-69150355D01*
X84090829Y-69150355D02*
X83926334Y-69109231D01*
X83926334Y-69109231D02*
X83844086Y-69068108D01*
X83844086Y-69068108D02*
X83802963Y-69026984D01*
X83802963Y-69026984D02*
X83761839Y-68944736D01*
X83761839Y-68944736D02*
X83761839Y-68862489D01*
X83761839Y-68862489D02*
X83802963Y-68780241D01*
X83802963Y-68780241D02*
X83844086Y-68739117D01*
X83844086Y-68739117D02*
X83926334Y-68697993D01*
X83926334Y-68697993D02*
X84131953Y-68697993D01*
X84131953Y-68697993D02*
X84255324Y-68739117D01*
X84625439Y-69561593D02*
X84625439Y-68697993D01*
X84625439Y-68697993D02*
X84831058Y-68697993D01*
X84831058Y-68697993D02*
X84954429Y-68739117D01*
X84954429Y-68739117D02*
X85036677Y-68821365D01*
X85036677Y-68821365D02*
X85077800Y-68903612D01*
X85077800Y-68903612D02*
X85118924Y-69068108D01*
X85118924Y-69068108D02*
X85118924Y-69191479D01*
X85118924Y-69191479D02*
X85077800Y-69355974D01*
X85077800Y-69355974D02*
X85036677Y-69438222D01*
X85036677Y-69438222D02*
X84954429Y-69520470D01*
X84954429Y-69520470D02*
X84831058Y-69561593D01*
X84831058Y-69561593D02*
X84625439Y-69561593D01*
X85489039Y-69561593D02*
X85489039Y-68697993D01*
X73955019Y-68739117D02*
X73872772Y-68697993D01*
X73872772Y-68697993D02*
X73749400Y-68697993D01*
X73749400Y-68697993D02*
X73626029Y-68739117D01*
X73626029Y-68739117D02*
X73543781Y-68821365D01*
X73543781Y-68821365D02*
X73502658Y-68903612D01*
X73502658Y-68903612D02*
X73461534Y-69068108D01*
X73461534Y-69068108D02*
X73461534Y-69191479D01*
X73461534Y-69191479D02*
X73502658Y-69355974D01*
X73502658Y-69355974D02*
X73543781Y-69438222D01*
X73543781Y-69438222D02*
X73626029Y-69520470D01*
X73626029Y-69520470D02*
X73749400Y-69561593D01*
X73749400Y-69561593D02*
X73831648Y-69561593D01*
X73831648Y-69561593D02*
X73955019Y-69520470D01*
X73955019Y-69520470D02*
X73996143Y-69479346D01*
X73996143Y-69479346D02*
X73996143Y-69191479D01*
X73996143Y-69191479D02*
X73831648Y-69191479D01*
X74366258Y-69561593D02*
X74366258Y-68697993D01*
X74366258Y-68697993D02*
X74859743Y-69561593D01*
X74859743Y-69561593D02*
X74859743Y-68697993D01*
X75270982Y-69561593D02*
X75270982Y-68697993D01*
X75270982Y-68697993D02*
X75476601Y-68697993D01*
X75476601Y-68697993D02*
X75599972Y-68739117D01*
X75599972Y-68739117D02*
X75682220Y-68821365D01*
X75682220Y-68821365D02*
X75723343Y-68903612D01*
X75723343Y-68903612D02*
X75764467Y-69068108D01*
X75764467Y-69068108D02*
X75764467Y-69191479D01*
X75764467Y-69191479D02*
X75723343Y-69355974D01*
X75723343Y-69355974D02*
X75682220Y-69438222D01*
X75682220Y-69438222D02*
X75599972Y-69520470D01*
X75599972Y-69520470D02*
X75476601Y-69561593D01*
X75476601Y-69561593D02*
X75270982Y-69561593D01*
D10*
X223473808Y-58787419D02*
X223473808Y-57787419D01*
X224521426Y-58692180D02*
X224473807Y-58739800D01*
X224473807Y-58739800D02*
X224330950Y-58787419D01*
X224330950Y-58787419D02*
X224235712Y-58787419D01*
X224235712Y-58787419D02*
X224092855Y-58739800D01*
X224092855Y-58739800D02*
X223997617Y-58644561D01*
X223997617Y-58644561D02*
X223949998Y-58549323D01*
X223949998Y-58549323D02*
X223902379Y-58358847D01*
X223902379Y-58358847D02*
X223902379Y-58215990D01*
X223902379Y-58215990D02*
X223949998Y-58025514D01*
X223949998Y-58025514D02*
X223997617Y-57930276D01*
X223997617Y-57930276D02*
X224092855Y-57835038D01*
X224092855Y-57835038D02*
X224235712Y-57787419D01*
X224235712Y-57787419D02*
X224330950Y-57787419D01*
X224330950Y-57787419D02*
X224473807Y-57835038D01*
X224473807Y-57835038D02*
X224521426Y-57882657D01*
X224854760Y-57787419D02*
X225521426Y-57787419D01*
X225521426Y-57787419D02*
X225092855Y-58787419D01*
D13*
X225679807Y-44156821D02*
X225388554Y-43740745D01*
X225180516Y-44156821D02*
X225180516Y-43283061D01*
X225180516Y-43283061D02*
X225513377Y-43283061D01*
X225513377Y-43283061D02*
X225596592Y-43324669D01*
X225596592Y-43324669D02*
X225638199Y-43366276D01*
X225638199Y-43366276D02*
X225679807Y-43449492D01*
X225679807Y-43449492D02*
X225679807Y-43574314D01*
X225679807Y-43574314D02*
X225638199Y-43657530D01*
X225638199Y-43657530D02*
X225596592Y-43699137D01*
X225596592Y-43699137D02*
X225513377Y-43740745D01*
X225513377Y-43740745D02*
X225180516Y-43740745D01*
X225929453Y-43283061D02*
X226428744Y-43283061D01*
X226179098Y-44156821D02*
X226179098Y-43283061D01*
X226719998Y-44156821D02*
X226719998Y-43283061D01*
X226719998Y-43283061D02*
X226928036Y-43283061D01*
X226928036Y-43283061D02*
X227052859Y-43324669D01*
X227052859Y-43324669D02*
X227136074Y-43407884D01*
X227136074Y-43407884D02*
X227177681Y-43491099D01*
X227177681Y-43491099D02*
X227219289Y-43657530D01*
X227219289Y-43657530D02*
X227219289Y-43782353D01*
X227219289Y-43782353D02*
X227177681Y-43948783D01*
X227177681Y-43948783D02*
X227136074Y-44031998D01*
X227136074Y-44031998D02*
X227052859Y-44115214D01*
X227052859Y-44115214D02*
X226928036Y-44156821D01*
X226928036Y-44156821D02*
X226719998Y-44156821D01*
X227593758Y-43823960D02*
X228259480Y-43823960D01*
X218943922Y-43699137D02*
X218652669Y-43699137D01*
X218652669Y-44156821D02*
X218652669Y-43283061D01*
X218652669Y-43283061D02*
X219068745Y-43283061D01*
X219401606Y-43823960D02*
X220067328Y-43823960D01*
X219734467Y-44156821D02*
X219734467Y-43491099D01*
D12*
X214500150Y-65395993D02*
X214788017Y-66259593D01*
X214788017Y-66259593D02*
X215075883Y-65395993D01*
X215363751Y-66259593D02*
X215363751Y-65395993D01*
X215774989Y-66259593D02*
X215774989Y-65395993D01*
X215774989Y-65395993D02*
X216268474Y-66259593D01*
X216268474Y-66259593D02*
X216268474Y-65395993D01*
X217455016Y-68739117D02*
X217372769Y-68697993D01*
X217372769Y-68697993D02*
X217249397Y-68697993D01*
X217249397Y-68697993D02*
X217126026Y-68739117D01*
X217126026Y-68739117D02*
X217043778Y-68821365D01*
X217043778Y-68821365D02*
X217002655Y-68903612D01*
X217002655Y-68903612D02*
X216961531Y-69068108D01*
X216961531Y-69068108D02*
X216961531Y-69191479D01*
X216961531Y-69191479D02*
X217002655Y-69355974D01*
X217002655Y-69355974D02*
X217043778Y-69438222D01*
X217043778Y-69438222D02*
X217126026Y-69520470D01*
X217126026Y-69520470D02*
X217249397Y-69561593D01*
X217249397Y-69561593D02*
X217331645Y-69561593D01*
X217331645Y-69561593D02*
X217455016Y-69520470D01*
X217455016Y-69520470D02*
X217496140Y-69479346D01*
X217496140Y-69479346D02*
X217496140Y-69191479D01*
X217496140Y-69191479D02*
X217331645Y-69191479D01*
X217866255Y-69561593D02*
X217866255Y-68697993D01*
X217866255Y-68697993D02*
X218359740Y-69561593D01*
X218359740Y-69561593D02*
X218359740Y-68697993D01*
X218770979Y-69561593D02*
X218770979Y-68697993D01*
X218770979Y-68697993D02*
X218976598Y-68697993D01*
X218976598Y-68697993D02*
X219099969Y-68739117D01*
X219099969Y-68739117D02*
X219182217Y-68821365D01*
X219182217Y-68821365D02*
X219223340Y-68903612D01*
X219223340Y-68903612D02*
X219264464Y-69068108D01*
X219264464Y-69068108D02*
X219264464Y-69191479D01*
X219264464Y-69191479D02*
X219223340Y-69355974D01*
X219223340Y-69355974D02*
X219182217Y-69438222D01*
X219182217Y-69438222D02*
X219099969Y-69520470D01*
X219099969Y-69520470D02*
X218976598Y-69561593D01*
X218976598Y-69561593D02*
X218770979Y-69561593D01*
D11*
X219021427Y-56884178D02*
X219021427Y-55384178D01*
X219021427Y-55384178D02*
X219521427Y-56455607D01*
X219521427Y-56455607D02*
X220021427Y-55384178D01*
X220021427Y-55384178D02*
X220021427Y-56884178D01*
X220664285Y-56455607D02*
X221378571Y-56455607D01*
X220521428Y-56884178D02*
X221021428Y-55384178D01*
X221021428Y-55384178D02*
X221521428Y-56884178D01*
X221878570Y-55384178D02*
X222878570Y-56884178D01*
X222878570Y-55384178D02*
X221878570Y-56884178D01*
X223307141Y-55384178D02*
X224235713Y-55384178D01*
X224235713Y-55384178D02*
X223735713Y-55955607D01*
X223735713Y-55955607D02*
X223949998Y-55955607D01*
X223949998Y-55955607D02*
X224092856Y-56027035D01*
X224092856Y-56027035D02*
X224164284Y-56098464D01*
X224164284Y-56098464D02*
X224235713Y-56241321D01*
X224235713Y-56241321D02*
X224235713Y-56598464D01*
X224235713Y-56598464D02*
X224164284Y-56741321D01*
X224164284Y-56741321D02*
X224092856Y-56812750D01*
X224092856Y-56812750D02*
X223949998Y-56884178D01*
X223949998Y-56884178D02*
X223521427Y-56884178D01*
X223521427Y-56884178D02*
X223378570Y-56812750D01*
X223378570Y-56812750D02*
X223307141Y-56741321D01*
X225664284Y-56884178D02*
X224807141Y-56884178D01*
X225235712Y-56884178D02*
X225235712Y-55384178D01*
X225235712Y-55384178D02*
X225092855Y-55598464D01*
X225092855Y-55598464D02*
X224949998Y-55741321D01*
X224949998Y-55741321D02*
X224807141Y-55812750D01*
X226521426Y-56027035D02*
X226378569Y-55955607D01*
X226378569Y-55955607D02*
X226307140Y-55884178D01*
X226307140Y-55884178D02*
X226235712Y-55741321D01*
X226235712Y-55741321D02*
X226235712Y-55669892D01*
X226235712Y-55669892D02*
X226307140Y-55527035D01*
X226307140Y-55527035D02*
X226378569Y-55455607D01*
X226378569Y-55455607D02*
X226521426Y-55384178D01*
X226521426Y-55384178D02*
X226807140Y-55384178D01*
X226807140Y-55384178D02*
X226949998Y-55455607D01*
X226949998Y-55455607D02*
X227021426Y-55527035D01*
X227021426Y-55527035D02*
X227092855Y-55669892D01*
X227092855Y-55669892D02*
X227092855Y-55741321D01*
X227092855Y-55741321D02*
X227021426Y-55884178D01*
X227021426Y-55884178D02*
X226949998Y-55955607D01*
X226949998Y-55955607D02*
X226807140Y-56027035D01*
X226807140Y-56027035D02*
X226521426Y-56027035D01*
X226521426Y-56027035D02*
X226378569Y-56098464D01*
X226378569Y-56098464D02*
X226307140Y-56169892D01*
X226307140Y-56169892D02*
X226235712Y-56312750D01*
X226235712Y-56312750D02*
X226235712Y-56598464D01*
X226235712Y-56598464D02*
X226307140Y-56741321D01*
X226307140Y-56741321D02*
X226378569Y-56812750D01*
X226378569Y-56812750D02*
X226521426Y-56884178D01*
X226521426Y-56884178D02*
X226807140Y-56884178D01*
X226807140Y-56884178D02*
X226949998Y-56812750D01*
X226949998Y-56812750D02*
X227021426Y-56741321D01*
X227021426Y-56741321D02*
X227092855Y-56598464D01*
X227092855Y-56598464D02*
X227092855Y-56312750D01*
X227092855Y-56312750D02*
X227021426Y-56169892D01*
X227021426Y-56169892D02*
X226949998Y-56098464D01*
X226949998Y-56098464D02*
X226807140Y-56027035D01*
X228378569Y-55384178D02*
X228092854Y-55384178D01*
X228092854Y-55384178D02*
X227949997Y-55455607D01*
X227949997Y-55455607D02*
X227878569Y-55527035D01*
X227878569Y-55527035D02*
X227735711Y-55741321D01*
X227735711Y-55741321D02*
X227664283Y-56027035D01*
X227664283Y-56027035D02*
X227664283Y-56598464D01*
X227664283Y-56598464D02*
X227735711Y-56741321D01*
X227735711Y-56741321D02*
X227807140Y-56812750D01*
X227807140Y-56812750D02*
X227949997Y-56884178D01*
X227949997Y-56884178D02*
X228235711Y-56884178D01*
X228235711Y-56884178D02*
X228378569Y-56812750D01*
X228378569Y-56812750D02*
X228449997Y-56741321D01*
X228449997Y-56741321D02*
X228521426Y-56598464D01*
X228521426Y-56598464D02*
X228521426Y-56241321D01*
X228521426Y-56241321D02*
X228449997Y-56098464D01*
X228449997Y-56098464D02*
X228378569Y-56027035D01*
X228378569Y-56027035D02*
X228235711Y-55955607D01*
X228235711Y-55955607D02*
X227949997Y-55955607D01*
X227949997Y-55955607D02*
X227807140Y-56027035D01*
X227807140Y-56027035D02*
X227735711Y-56098464D01*
X227735711Y-56098464D02*
X227664283Y-56241321D01*
X229878568Y-55384178D02*
X229164282Y-55384178D01*
X229164282Y-55384178D02*
X229092854Y-56098464D01*
X229092854Y-56098464D02*
X229164282Y-56027035D01*
X229164282Y-56027035D02*
X229307140Y-55955607D01*
X229307140Y-55955607D02*
X229664282Y-55955607D01*
X229664282Y-55955607D02*
X229807140Y-56027035D01*
X229807140Y-56027035D02*
X229878568Y-56098464D01*
X229878568Y-56098464D02*
X229949997Y-56241321D01*
X229949997Y-56241321D02*
X229949997Y-56598464D01*
X229949997Y-56598464D02*
X229878568Y-56741321D01*
X229878568Y-56741321D02*
X229807140Y-56812750D01*
X229807140Y-56812750D02*
X229664282Y-56884178D01*
X229664282Y-56884178D02*
X229307140Y-56884178D01*
X229307140Y-56884178D02*
X229164282Y-56812750D01*
X229164282Y-56812750D02*
X229092854Y-56741321D01*
D12*
X222678950Y-69479346D02*
X222637826Y-69520470D01*
X222637826Y-69520470D02*
X222514455Y-69561593D01*
X222514455Y-69561593D02*
X222432207Y-69561593D01*
X222432207Y-69561593D02*
X222308836Y-69520470D01*
X222308836Y-69520470D02*
X222226588Y-69438222D01*
X222226588Y-69438222D02*
X222185465Y-69355974D01*
X222185465Y-69355974D02*
X222144341Y-69191479D01*
X222144341Y-69191479D02*
X222144341Y-69068108D01*
X222144341Y-69068108D02*
X222185465Y-68903612D01*
X222185465Y-68903612D02*
X222226588Y-68821365D01*
X222226588Y-68821365D02*
X222308836Y-68739117D01*
X222308836Y-68739117D02*
X222432207Y-68697993D01*
X222432207Y-68697993D02*
X222514455Y-68697993D01*
X222514455Y-68697993D02*
X222637826Y-68739117D01*
X222637826Y-68739117D02*
X222678950Y-68780241D01*
X223460303Y-69561593D02*
X223049065Y-69561593D01*
X223049065Y-69561593D02*
X223049065Y-68697993D01*
X223748170Y-69561593D02*
X223748170Y-68697993D01*
X224241655Y-69561593D02*
X223871541Y-69068108D01*
X224241655Y-68697993D02*
X223748170Y-69191479D01*
X219456779Y-65395993D02*
X219991388Y-65395993D01*
X219991388Y-65395993D02*
X219703522Y-65724984D01*
X219703522Y-65724984D02*
X219826893Y-65724984D01*
X219826893Y-65724984D02*
X219909141Y-65766108D01*
X219909141Y-65766108D02*
X219950265Y-65807231D01*
X219950265Y-65807231D02*
X219991388Y-65889479D01*
X219991388Y-65889479D02*
X219991388Y-66095098D01*
X219991388Y-66095098D02*
X219950265Y-66177346D01*
X219950265Y-66177346D02*
X219909141Y-66218470D01*
X219909141Y-66218470D02*
X219826893Y-66259593D01*
X219826893Y-66259593D02*
X219580150Y-66259593D01*
X219580150Y-66259593D02*
X219497903Y-66218470D01*
X219497903Y-66218470D02*
X219456779Y-66177346D01*
X220238131Y-65395993D02*
X220525998Y-66259593D01*
X220525998Y-66259593D02*
X220813864Y-65395993D01*
X221019484Y-65395993D02*
X221554093Y-65395993D01*
X221554093Y-65395993D02*
X221266227Y-65724984D01*
X221266227Y-65724984D02*
X221389598Y-65724984D01*
X221389598Y-65724984D02*
X221471846Y-65766108D01*
X221471846Y-65766108D02*
X221512970Y-65807231D01*
X221512970Y-65807231D02*
X221554093Y-65889479D01*
X221554093Y-65889479D02*
X221554093Y-66095098D01*
X221554093Y-66095098D02*
X221512970Y-66177346D01*
X221512970Y-66177346D02*
X221471846Y-66218470D01*
X221471846Y-66218470D02*
X221389598Y-66259593D01*
X221389598Y-66259593D02*
X221142855Y-66259593D01*
X221142855Y-66259593D02*
X221060608Y-66218470D01*
X221060608Y-66218470D02*
X221019484Y-66177346D01*
D13*
X221729807Y-44156821D02*
X221438554Y-43740745D01*
X221230516Y-44156821D02*
X221230516Y-43283061D01*
X221230516Y-43283061D02*
X221563377Y-43283061D01*
X221563377Y-43283061D02*
X221646592Y-43324669D01*
X221646592Y-43324669D02*
X221688199Y-43366276D01*
X221688199Y-43366276D02*
X221729807Y-43449492D01*
X221729807Y-43449492D02*
X221729807Y-43574314D01*
X221729807Y-43574314D02*
X221688199Y-43657530D01*
X221688199Y-43657530D02*
X221646592Y-43699137D01*
X221646592Y-43699137D02*
X221563377Y-43740745D01*
X221563377Y-43740745D02*
X221230516Y-43740745D01*
X221979453Y-43283061D02*
X222478744Y-43283061D01*
X222229098Y-44156821D02*
X222229098Y-43283061D01*
X222769998Y-44156821D02*
X222769998Y-43283061D01*
X222769998Y-43283061D02*
X222978036Y-43283061D01*
X222978036Y-43283061D02*
X223102859Y-43324669D01*
X223102859Y-43324669D02*
X223186074Y-43407884D01*
X223186074Y-43407884D02*
X223227681Y-43491099D01*
X223227681Y-43491099D02*
X223269289Y-43657530D01*
X223269289Y-43657530D02*
X223269289Y-43782353D01*
X223269289Y-43782353D02*
X223227681Y-43948783D01*
X223227681Y-43948783D02*
X223186074Y-44031998D01*
X223186074Y-44031998D02*
X223102859Y-44115214D01*
X223102859Y-44115214D02*
X222978036Y-44156821D01*
X222978036Y-44156821D02*
X222769998Y-44156821D01*
X223643758Y-43823960D02*
X224309480Y-43823960D01*
X223976619Y-44156821D02*
X223976619Y-43491099D01*
D12*
X230542064Y-66177346D02*
X230500940Y-66218470D01*
X230500940Y-66218470D02*
X230377569Y-66259593D01*
X230377569Y-66259593D02*
X230295321Y-66259593D01*
X230295321Y-66259593D02*
X230171950Y-66218470D01*
X230171950Y-66218470D02*
X230089702Y-66136222D01*
X230089702Y-66136222D02*
X230048579Y-66053974D01*
X230048579Y-66053974D02*
X230007455Y-65889479D01*
X230007455Y-65889479D02*
X230007455Y-65766108D01*
X230007455Y-65766108D02*
X230048579Y-65601612D01*
X230048579Y-65601612D02*
X230089702Y-65519365D01*
X230089702Y-65519365D02*
X230171950Y-65437117D01*
X230171950Y-65437117D02*
X230295321Y-65395993D01*
X230295321Y-65395993D02*
X230377569Y-65395993D01*
X230377569Y-65395993D02*
X230500940Y-65437117D01*
X230500940Y-65437117D02*
X230542064Y-65478241D01*
X230871055Y-66218470D02*
X230994426Y-66259593D01*
X230994426Y-66259593D02*
X231200045Y-66259593D01*
X231200045Y-66259593D02*
X231282293Y-66218470D01*
X231282293Y-66218470D02*
X231323417Y-66177346D01*
X231323417Y-66177346D02*
X231364540Y-66095098D01*
X231364540Y-66095098D02*
X231364540Y-66012850D01*
X231364540Y-66012850D02*
X231323417Y-65930603D01*
X231323417Y-65930603D02*
X231282293Y-65889479D01*
X231282293Y-65889479D02*
X231200045Y-65848355D01*
X231200045Y-65848355D02*
X231035550Y-65807231D01*
X231035550Y-65807231D02*
X230953302Y-65766108D01*
X230953302Y-65766108D02*
X230912179Y-65724984D01*
X230912179Y-65724984D02*
X230871055Y-65642736D01*
X230871055Y-65642736D02*
X230871055Y-65560489D01*
X230871055Y-65560489D02*
X230912179Y-65478241D01*
X230912179Y-65478241D02*
X230953302Y-65437117D01*
X230953302Y-65437117D02*
X231035550Y-65395993D01*
X231035550Y-65395993D02*
X231241169Y-65395993D01*
X231241169Y-65395993D02*
X231364540Y-65437117D01*
X227261836Y-69520470D02*
X227385207Y-69561593D01*
X227385207Y-69561593D02*
X227590826Y-69561593D01*
X227590826Y-69561593D02*
X227673074Y-69520470D01*
X227673074Y-69520470D02*
X227714198Y-69479346D01*
X227714198Y-69479346D02*
X227755321Y-69397098D01*
X227755321Y-69397098D02*
X227755321Y-69314850D01*
X227755321Y-69314850D02*
X227714198Y-69232603D01*
X227714198Y-69232603D02*
X227673074Y-69191479D01*
X227673074Y-69191479D02*
X227590826Y-69150355D01*
X227590826Y-69150355D02*
X227426331Y-69109231D01*
X227426331Y-69109231D02*
X227344083Y-69068108D01*
X227344083Y-69068108D02*
X227302960Y-69026984D01*
X227302960Y-69026984D02*
X227261836Y-68944736D01*
X227261836Y-68944736D02*
X227261836Y-68862489D01*
X227261836Y-68862489D02*
X227302960Y-68780241D01*
X227302960Y-68780241D02*
X227344083Y-68739117D01*
X227344083Y-68739117D02*
X227426331Y-68697993D01*
X227426331Y-68697993D02*
X227631950Y-68697993D01*
X227631950Y-68697993D02*
X227755321Y-68739117D01*
X228125436Y-69561593D02*
X228125436Y-68697993D01*
X228125436Y-68697993D02*
X228331055Y-68697993D01*
X228331055Y-68697993D02*
X228454426Y-68739117D01*
X228454426Y-68739117D02*
X228536674Y-68821365D01*
X228536674Y-68821365D02*
X228577797Y-68903612D01*
X228577797Y-68903612D02*
X228618921Y-69068108D01*
X228618921Y-69068108D02*
X228618921Y-69191479D01*
X228618921Y-69191479D02*
X228577797Y-69355974D01*
X228577797Y-69355974D02*
X228536674Y-69438222D01*
X228536674Y-69438222D02*
X228454426Y-69520470D01*
X228454426Y-69520470D02*
X228331055Y-69561593D01*
X228331055Y-69561593D02*
X228125436Y-69561593D01*
X228989036Y-69561593D02*
X228989036Y-68697993D01*
X232945388Y-69561593D02*
X232657522Y-69150355D01*
X232451903Y-69561593D02*
X232451903Y-68697993D01*
X232451903Y-68697993D02*
X232780893Y-68697993D01*
X232780893Y-68697993D02*
X232863141Y-68739117D01*
X232863141Y-68739117D02*
X232904264Y-68780241D01*
X232904264Y-68780241D02*
X232945388Y-68862489D01*
X232945388Y-68862489D02*
X232945388Y-68985860D01*
X232945388Y-68985860D02*
X232904264Y-69068108D01*
X232904264Y-69068108D02*
X232863141Y-69109231D01*
X232863141Y-69109231D02*
X232780893Y-69150355D01*
X232780893Y-69150355D02*
X232451903Y-69150355D01*
X233315503Y-69561593D02*
X233315503Y-68697993D01*
X233315503Y-68697993D02*
X233521122Y-68697993D01*
X233521122Y-68697993D02*
X233644493Y-68739117D01*
X233644493Y-68739117D02*
X233726741Y-68821365D01*
X233726741Y-68821365D02*
X233767864Y-68903612D01*
X233767864Y-68903612D02*
X233808988Y-69068108D01*
X233808988Y-69068108D02*
X233808988Y-69191479D01*
X233808988Y-69191479D02*
X233767864Y-69355974D01*
X233767864Y-69355974D02*
X233726741Y-69438222D01*
X233726741Y-69438222D02*
X233644493Y-69520470D01*
X233644493Y-69520470D02*
X233521122Y-69561593D01*
X233521122Y-69561593D02*
X233315503Y-69561593D01*
X234343598Y-69150355D02*
X234343598Y-69561593D01*
X234055731Y-68697993D02*
X234343598Y-69150355D01*
X234343598Y-69150355D02*
X234631464Y-68697993D01*
X224475093Y-66218470D02*
X224598464Y-66259593D01*
X224598464Y-66259593D02*
X224804083Y-66259593D01*
X224804083Y-66259593D02*
X224886331Y-66218470D01*
X224886331Y-66218470D02*
X224927455Y-66177346D01*
X224927455Y-66177346D02*
X224968578Y-66095098D01*
X224968578Y-66095098D02*
X224968578Y-66012850D01*
X224968578Y-66012850D02*
X224927455Y-65930603D01*
X224927455Y-65930603D02*
X224886331Y-65889479D01*
X224886331Y-65889479D02*
X224804083Y-65848355D01*
X224804083Y-65848355D02*
X224639588Y-65807231D01*
X224639588Y-65807231D02*
X224557340Y-65766108D01*
X224557340Y-65766108D02*
X224516217Y-65724984D01*
X224516217Y-65724984D02*
X224475093Y-65642736D01*
X224475093Y-65642736D02*
X224475093Y-65560489D01*
X224475093Y-65560489D02*
X224516217Y-65478241D01*
X224516217Y-65478241D02*
X224557340Y-65437117D01*
X224557340Y-65437117D02*
X224639588Y-65395993D01*
X224639588Y-65395993D02*
X224845207Y-65395993D01*
X224845207Y-65395993D02*
X224968578Y-65437117D01*
X225338693Y-66259593D02*
X225338693Y-65395993D01*
X225338693Y-65395993D02*
X225544312Y-65395993D01*
X225544312Y-65395993D02*
X225667683Y-65437117D01*
X225667683Y-65437117D02*
X225749931Y-65519365D01*
X225749931Y-65519365D02*
X225791054Y-65601612D01*
X225791054Y-65601612D02*
X225832178Y-65766108D01*
X225832178Y-65766108D02*
X225832178Y-65889479D01*
X225832178Y-65889479D02*
X225791054Y-66053974D01*
X225791054Y-66053974D02*
X225749931Y-66136222D01*
X225749931Y-66136222D02*
X225667683Y-66218470D01*
X225667683Y-66218470D02*
X225544312Y-66259593D01*
X225544312Y-66259593D02*
X225338693Y-66259593D01*
X226366788Y-65395993D02*
X226531283Y-65395993D01*
X226531283Y-65395993D02*
X226613531Y-65437117D01*
X226613531Y-65437117D02*
X226695778Y-65519365D01*
X226695778Y-65519365D02*
X226736902Y-65683860D01*
X226736902Y-65683860D02*
X226736902Y-65971727D01*
X226736902Y-65971727D02*
X226695778Y-66136222D01*
X226695778Y-66136222D02*
X226613531Y-66218470D01*
X226613531Y-66218470D02*
X226531283Y-66259593D01*
X226531283Y-66259593D02*
X226366788Y-66259593D01*
X226366788Y-66259593D02*
X226284540Y-66218470D01*
X226284540Y-66218470D02*
X226202293Y-66136222D01*
X226202293Y-66136222D02*
X226161169Y-65971727D01*
X226161169Y-65971727D02*
X226161169Y-65683860D01*
X226161169Y-65683860D02*
X226202293Y-65519365D01*
X226202293Y-65519365D02*
X226284540Y-65437117D01*
X226284540Y-65437117D02*
X226366788Y-65395993D01*
D13*
X229283922Y-43699137D02*
X228992669Y-43699137D01*
X228992669Y-44156821D02*
X228992669Y-43283061D01*
X228992669Y-43283061D02*
X229408745Y-43283061D01*
X229741606Y-43823960D02*
X230407328Y-43823960D01*
D10*
X166073810Y-58787419D02*
X166073810Y-57787419D01*
X167121428Y-58692180D02*
X167073809Y-58739800D01*
X167073809Y-58739800D02*
X166930952Y-58787419D01*
X166930952Y-58787419D02*
X166835714Y-58787419D01*
X166835714Y-58787419D02*
X166692857Y-58739800D01*
X166692857Y-58739800D02*
X166597619Y-58644561D01*
X166597619Y-58644561D02*
X166550000Y-58549323D01*
X166550000Y-58549323D02*
X166502381Y-58358847D01*
X166502381Y-58358847D02*
X166502381Y-58215990D01*
X166502381Y-58215990D02*
X166550000Y-58025514D01*
X166550000Y-58025514D02*
X166597619Y-57930276D01*
X166597619Y-57930276D02*
X166692857Y-57835038D01*
X166692857Y-57835038D02*
X166835714Y-57787419D01*
X166835714Y-57787419D02*
X166930952Y-57787419D01*
X166930952Y-57787419D02*
X167073809Y-57835038D01*
X167073809Y-57835038D02*
X167121428Y-57882657D01*
X168026190Y-57787419D02*
X167550000Y-57787419D01*
X167550000Y-57787419D02*
X167502381Y-58263609D01*
X167502381Y-58263609D02*
X167550000Y-58215990D01*
X167550000Y-58215990D02*
X167645238Y-58168371D01*
X167645238Y-58168371D02*
X167883333Y-58168371D01*
X167883333Y-58168371D02*
X167978571Y-58215990D01*
X167978571Y-58215990D02*
X168026190Y-58263609D01*
X168026190Y-58263609D02*
X168073809Y-58358847D01*
X168073809Y-58358847D02*
X168073809Y-58596942D01*
X168073809Y-58596942D02*
X168026190Y-58692180D01*
X168026190Y-58692180D02*
X167978571Y-58739800D01*
X167978571Y-58739800D02*
X167883333Y-58787419D01*
X167883333Y-58787419D02*
X167645238Y-58787419D01*
X167645238Y-58787419D02*
X167550000Y-58739800D01*
X167550000Y-58739800D02*
X167502381Y-58692180D01*
D11*
X161621429Y-56884178D02*
X161621429Y-55384178D01*
X161621429Y-55384178D02*
X162121429Y-56455607D01*
X162121429Y-56455607D02*
X162621429Y-55384178D01*
X162621429Y-55384178D02*
X162621429Y-56884178D01*
X163264287Y-56455607D02*
X163978573Y-56455607D01*
X163121430Y-56884178D02*
X163621430Y-55384178D01*
X163621430Y-55384178D02*
X164121430Y-56884178D01*
X164478572Y-55384178D02*
X165478572Y-56884178D01*
X165478572Y-55384178D02*
X164478572Y-56884178D01*
X165907143Y-55384178D02*
X166835715Y-55384178D01*
X166835715Y-55384178D02*
X166335715Y-55955607D01*
X166335715Y-55955607D02*
X166550000Y-55955607D01*
X166550000Y-55955607D02*
X166692858Y-56027035D01*
X166692858Y-56027035D02*
X166764286Y-56098464D01*
X166764286Y-56098464D02*
X166835715Y-56241321D01*
X166835715Y-56241321D02*
X166835715Y-56598464D01*
X166835715Y-56598464D02*
X166764286Y-56741321D01*
X166764286Y-56741321D02*
X166692858Y-56812750D01*
X166692858Y-56812750D02*
X166550000Y-56884178D01*
X166550000Y-56884178D02*
X166121429Y-56884178D01*
X166121429Y-56884178D02*
X165978572Y-56812750D01*
X165978572Y-56812750D02*
X165907143Y-56741321D01*
X168264286Y-56884178D02*
X167407143Y-56884178D01*
X167835714Y-56884178D02*
X167835714Y-55384178D01*
X167835714Y-55384178D02*
X167692857Y-55598464D01*
X167692857Y-55598464D02*
X167550000Y-55741321D01*
X167550000Y-55741321D02*
X167407143Y-55812750D01*
X169121428Y-56027035D02*
X168978571Y-55955607D01*
X168978571Y-55955607D02*
X168907142Y-55884178D01*
X168907142Y-55884178D02*
X168835714Y-55741321D01*
X168835714Y-55741321D02*
X168835714Y-55669892D01*
X168835714Y-55669892D02*
X168907142Y-55527035D01*
X168907142Y-55527035D02*
X168978571Y-55455607D01*
X168978571Y-55455607D02*
X169121428Y-55384178D01*
X169121428Y-55384178D02*
X169407142Y-55384178D01*
X169407142Y-55384178D02*
X169550000Y-55455607D01*
X169550000Y-55455607D02*
X169621428Y-55527035D01*
X169621428Y-55527035D02*
X169692857Y-55669892D01*
X169692857Y-55669892D02*
X169692857Y-55741321D01*
X169692857Y-55741321D02*
X169621428Y-55884178D01*
X169621428Y-55884178D02*
X169550000Y-55955607D01*
X169550000Y-55955607D02*
X169407142Y-56027035D01*
X169407142Y-56027035D02*
X169121428Y-56027035D01*
X169121428Y-56027035D02*
X168978571Y-56098464D01*
X168978571Y-56098464D02*
X168907142Y-56169892D01*
X168907142Y-56169892D02*
X168835714Y-56312750D01*
X168835714Y-56312750D02*
X168835714Y-56598464D01*
X168835714Y-56598464D02*
X168907142Y-56741321D01*
X168907142Y-56741321D02*
X168978571Y-56812750D01*
X168978571Y-56812750D02*
X169121428Y-56884178D01*
X169121428Y-56884178D02*
X169407142Y-56884178D01*
X169407142Y-56884178D02*
X169550000Y-56812750D01*
X169550000Y-56812750D02*
X169621428Y-56741321D01*
X169621428Y-56741321D02*
X169692857Y-56598464D01*
X169692857Y-56598464D02*
X169692857Y-56312750D01*
X169692857Y-56312750D02*
X169621428Y-56169892D01*
X169621428Y-56169892D02*
X169550000Y-56098464D01*
X169550000Y-56098464D02*
X169407142Y-56027035D01*
X170978571Y-55384178D02*
X170692856Y-55384178D01*
X170692856Y-55384178D02*
X170549999Y-55455607D01*
X170549999Y-55455607D02*
X170478571Y-55527035D01*
X170478571Y-55527035D02*
X170335713Y-55741321D01*
X170335713Y-55741321D02*
X170264285Y-56027035D01*
X170264285Y-56027035D02*
X170264285Y-56598464D01*
X170264285Y-56598464D02*
X170335713Y-56741321D01*
X170335713Y-56741321D02*
X170407142Y-56812750D01*
X170407142Y-56812750D02*
X170549999Y-56884178D01*
X170549999Y-56884178D02*
X170835713Y-56884178D01*
X170835713Y-56884178D02*
X170978571Y-56812750D01*
X170978571Y-56812750D02*
X171049999Y-56741321D01*
X171049999Y-56741321D02*
X171121428Y-56598464D01*
X171121428Y-56598464D02*
X171121428Y-56241321D01*
X171121428Y-56241321D02*
X171049999Y-56098464D01*
X171049999Y-56098464D02*
X170978571Y-56027035D01*
X170978571Y-56027035D02*
X170835713Y-55955607D01*
X170835713Y-55955607D02*
X170549999Y-55955607D01*
X170549999Y-55955607D02*
X170407142Y-56027035D01*
X170407142Y-56027035D02*
X170335713Y-56098464D01*
X170335713Y-56098464D02*
X170264285Y-56241321D01*
X172478570Y-55384178D02*
X171764284Y-55384178D01*
X171764284Y-55384178D02*
X171692856Y-56098464D01*
X171692856Y-56098464D02*
X171764284Y-56027035D01*
X171764284Y-56027035D02*
X171907142Y-55955607D01*
X171907142Y-55955607D02*
X172264284Y-55955607D01*
X172264284Y-55955607D02*
X172407142Y-56027035D01*
X172407142Y-56027035D02*
X172478570Y-56098464D01*
X172478570Y-56098464D02*
X172549999Y-56241321D01*
X172549999Y-56241321D02*
X172549999Y-56598464D01*
X172549999Y-56598464D02*
X172478570Y-56741321D01*
X172478570Y-56741321D02*
X172407142Y-56812750D01*
X172407142Y-56812750D02*
X172264284Y-56884178D01*
X172264284Y-56884178D02*
X171907142Y-56884178D01*
X171907142Y-56884178D02*
X171764284Y-56812750D01*
X171764284Y-56812750D02*
X171692856Y-56741321D01*
D12*
X173142066Y-66177346D02*
X173100942Y-66218470D01*
X173100942Y-66218470D02*
X172977571Y-66259593D01*
X172977571Y-66259593D02*
X172895323Y-66259593D01*
X172895323Y-66259593D02*
X172771952Y-66218470D01*
X172771952Y-66218470D02*
X172689704Y-66136222D01*
X172689704Y-66136222D02*
X172648581Y-66053974D01*
X172648581Y-66053974D02*
X172607457Y-65889479D01*
X172607457Y-65889479D02*
X172607457Y-65766108D01*
X172607457Y-65766108D02*
X172648581Y-65601612D01*
X172648581Y-65601612D02*
X172689704Y-65519365D01*
X172689704Y-65519365D02*
X172771952Y-65437117D01*
X172771952Y-65437117D02*
X172895323Y-65395993D01*
X172895323Y-65395993D02*
X172977571Y-65395993D01*
X172977571Y-65395993D02*
X173100942Y-65437117D01*
X173100942Y-65437117D02*
X173142066Y-65478241D01*
X173471057Y-66218470D02*
X173594428Y-66259593D01*
X173594428Y-66259593D02*
X173800047Y-66259593D01*
X173800047Y-66259593D02*
X173882295Y-66218470D01*
X173882295Y-66218470D02*
X173923419Y-66177346D01*
X173923419Y-66177346D02*
X173964542Y-66095098D01*
X173964542Y-66095098D02*
X173964542Y-66012850D01*
X173964542Y-66012850D02*
X173923419Y-65930603D01*
X173923419Y-65930603D02*
X173882295Y-65889479D01*
X173882295Y-65889479D02*
X173800047Y-65848355D01*
X173800047Y-65848355D02*
X173635552Y-65807231D01*
X173635552Y-65807231D02*
X173553304Y-65766108D01*
X173553304Y-65766108D02*
X173512181Y-65724984D01*
X173512181Y-65724984D02*
X173471057Y-65642736D01*
X173471057Y-65642736D02*
X173471057Y-65560489D01*
X173471057Y-65560489D02*
X173512181Y-65478241D01*
X173512181Y-65478241D02*
X173553304Y-65437117D01*
X173553304Y-65437117D02*
X173635552Y-65395993D01*
X173635552Y-65395993D02*
X173841171Y-65395993D01*
X173841171Y-65395993D02*
X173964542Y-65437117D01*
D13*
X168279809Y-44156821D02*
X167988556Y-43740745D01*
X167780518Y-44156821D02*
X167780518Y-43283061D01*
X167780518Y-43283061D02*
X168113379Y-43283061D01*
X168113379Y-43283061D02*
X168196594Y-43324669D01*
X168196594Y-43324669D02*
X168238201Y-43366276D01*
X168238201Y-43366276D02*
X168279809Y-43449492D01*
X168279809Y-43449492D02*
X168279809Y-43574314D01*
X168279809Y-43574314D02*
X168238201Y-43657530D01*
X168238201Y-43657530D02*
X168196594Y-43699137D01*
X168196594Y-43699137D02*
X168113379Y-43740745D01*
X168113379Y-43740745D02*
X167780518Y-43740745D01*
X168529455Y-43283061D02*
X169028746Y-43283061D01*
X168779100Y-44156821D02*
X168779100Y-43283061D01*
X169320000Y-44156821D02*
X169320000Y-43283061D01*
X169320000Y-43283061D02*
X169528038Y-43283061D01*
X169528038Y-43283061D02*
X169652861Y-43324669D01*
X169652861Y-43324669D02*
X169736076Y-43407884D01*
X169736076Y-43407884D02*
X169777683Y-43491099D01*
X169777683Y-43491099D02*
X169819291Y-43657530D01*
X169819291Y-43657530D02*
X169819291Y-43782353D01*
X169819291Y-43782353D02*
X169777683Y-43948783D01*
X169777683Y-43948783D02*
X169736076Y-44031998D01*
X169736076Y-44031998D02*
X169652861Y-44115214D01*
X169652861Y-44115214D02*
X169528038Y-44156821D01*
X169528038Y-44156821D02*
X169320000Y-44156821D01*
X170193760Y-43823960D02*
X170859482Y-43823960D01*
X164329809Y-44156821D02*
X164038556Y-43740745D01*
X163830518Y-44156821D02*
X163830518Y-43283061D01*
X163830518Y-43283061D02*
X164163379Y-43283061D01*
X164163379Y-43283061D02*
X164246594Y-43324669D01*
X164246594Y-43324669D02*
X164288201Y-43366276D01*
X164288201Y-43366276D02*
X164329809Y-43449492D01*
X164329809Y-43449492D02*
X164329809Y-43574314D01*
X164329809Y-43574314D02*
X164288201Y-43657530D01*
X164288201Y-43657530D02*
X164246594Y-43699137D01*
X164246594Y-43699137D02*
X164163379Y-43740745D01*
X164163379Y-43740745D02*
X163830518Y-43740745D01*
X164579455Y-43283061D02*
X165078746Y-43283061D01*
X164829100Y-44156821D02*
X164829100Y-43283061D01*
X165370000Y-44156821D02*
X165370000Y-43283061D01*
X165370000Y-43283061D02*
X165578038Y-43283061D01*
X165578038Y-43283061D02*
X165702861Y-43324669D01*
X165702861Y-43324669D02*
X165786076Y-43407884D01*
X165786076Y-43407884D02*
X165827683Y-43491099D01*
X165827683Y-43491099D02*
X165869291Y-43657530D01*
X165869291Y-43657530D02*
X165869291Y-43782353D01*
X165869291Y-43782353D02*
X165827683Y-43948783D01*
X165827683Y-43948783D02*
X165786076Y-44031998D01*
X165786076Y-44031998D02*
X165702861Y-44115214D01*
X165702861Y-44115214D02*
X165578038Y-44156821D01*
X165578038Y-44156821D02*
X165370000Y-44156821D01*
X166243760Y-43823960D02*
X166909482Y-43823960D01*
X166576621Y-44156821D02*
X166576621Y-43491099D01*
D12*
X167075095Y-66218470D02*
X167198466Y-66259593D01*
X167198466Y-66259593D02*
X167404085Y-66259593D01*
X167404085Y-66259593D02*
X167486333Y-66218470D01*
X167486333Y-66218470D02*
X167527457Y-66177346D01*
X167527457Y-66177346D02*
X167568580Y-66095098D01*
X167568580Y-66095098D02*
X167568580Y-66012850D01*
X167568580Y-66012850D02*
X167527457Y-65930603D01*
X167527457Y-65930603D02*
X167486333Y-65889479D01*
X167486333Y-65889479D02*
X167404085Y-65848355D01*
X167404085Y-65848355D02*
X167239590Y-65807231D01*
X167239590Y-65807231D02*
X167157342Y-65766108D01*
X167157342Y-65766108D02*
X167116219Y-65724984D01*
X167116219Y-65724984D02*
X167075095Y-65642736D01*
X167075095Y-65642736D02*
X167075095Y-65560489D01*
X167075095Y-65560489D02*
X167116219Y-65478241D01*
X167116219Y-65478241D02*
X167157342Y-65437117D01*
X167157342Y-65437117D02*
X167239590Y-65395993D01*
X167239590Y-65395993D02*
X167445209Y-65395993D01*
X167445209Y-65395993D02*
X167568580Y-65437117D01*
X167938695Y-66259593D02*
X167938695Y-65395993D01*
X167938695Y-65395993D02*
X168144314Y-65395993D01*
X168144314Y-65395993D02*
X168267685Y-65437117D01*
X168267685Y-65437117D02*
X168349933Y-65519365D01*
X168349933Y-65519365D02*
X168391056Y-65601612D01*
X168391056Y-65601612D02*
X168432180Y-65766108D01*
X168432180Y-65766108D02*
X168432180Y-65889479D01*
X168432180Y-65889479D02*
X168391056Y-66053974D01*
X168391056Y-66053974D02*
X168349933Y-66136222D01*
X168349933Y-66136222D02*
X168267685Y-66218470D01*
X168267685Y-66218470D02*
X168144314Y-66259593D01*
X168144314Y-66259593D02*
X167938695Y-66259593D01*
X168966790Y-65395993D02*
X169131285Y-65395993D01*
X169131285Y-65395993D02*
X169213533Y-65437117D01*
X169213533Y-65437117D02*
X169295780Y-65519365D01*
X169295780Y-65519365D02*
X169336904Y-65683860D01*
X169336904Y-65683860D02*
X169336904Y-65971727D01*
X169336904Y-65971727D02*
X169295780Y-66136222D01*
X169295780Y-66136222D02*
X169213533Y-66218470D01*
X169213533Y-66218470D02*
X169131285Y-66259593D01*
X169131285Y-66259593D02*
X168966790Y-66259593D01*
X168966790Y-66259593D02*
X168884542Y-66218470D01*
X168884542Y-66218470D02*
X168802295Y-66136222D01*
X168802295Y-66136222D02*
X168761171Y-65971727D01*
X168761171Y-65971727D02*
X168761171Y-65683860D01*
X168761171Y-65683860D02*
X168802295Y-65519365D01*
X168802295Y-65519365D02*
X168884542Y-65437117D01*
X168884542Y-65437117D02*
X168966790Y-65395993D01*
X169861838Y-69520470D02*
X169985209Y-69561593D01*
X169985209Y-69561593D02*
X170190828Y-69561593D01*
X170190828Y-69561593D02*
X170273076Y-69520470D01*
X170273076Y-69520470D02*
X170314200Y-69479346D01*
X170314200Y-69479346D02*
X170355323Y-69397098D01*
X170355323Y-69397098D02*
X170355323Y-69314850D01*
X170355323Y-69314850D02*
X170314200Y-69232603D01*
X170314200Y-69232603D02*
X170273076Y-69191479D01*
X170273076Y-69191479D02*
X170190828Y-69150355D01*
X170190828Y-69150355D02*
X170026333Y-69109231D01*
X170026333Y-69109231D02*
X169944085Y-69068108D01*
X169944085Y-69068108D02*
X169902962Y-69026984D01*
X169902962Y-69026984D02*
X169861838Y-68944736D01*
X169861838Y-68944736D02*
X169861838Y-68862489D01*
X169861838Y-68862489D02*
X169902962Y-68780241D01*
X169902962Y-68780241D02*
X169944085Y-68739117D01*
X169944085Y-68739117D02*
X170026333Y-68697993D01*
X170026333Y-68697993D02*
X170231952Y-68697993D01*
X170231952Y-68697993D02*
X170355323Y-68739117D01*
X170725438Y-69561593D02*
X170725438Y-68697993D01*
X170725438Y-68697993D02*
X170931057Y-68697993D01*
X170931057Y-68697993D02*
X171054428Y-68739117D01*
X171054428Y-68739117D02*
X171136676Y-68821365D01*
X171136676Y-68821365D02*
X171177799Y-68903612D01*
X171177799Y-68903612D02*
X171218923Y-69068108D01*
X171218923Y-69068108D02*
X171218923Y-69191479D01*
X171218923Y-69191479D02*
X171177799Y-69355974D01*
X171177799Y-69355974D02*
X171136676Y-69438222D01*
X171136676Y-69438222D02*
X171054428Y-69520470D01*
X171054428Y-69520470D02*
X170931057Y-69561593D01*
X170931057Y-69561593D02*
X170725438Y-69561593D01*
X171589038Y-69561593D02*
X171589038Y-68697993D01*
X165278952Y-69479346D02*
X165237828Y-69520470D01*
X165237828Y-69520470D02*
X165114457Y-69561593D01*
X165114457Y-69561593D02*
X165032209Y-69561593D01*
X165032209Y-69561593D02*
X164908838Y-69520470D01*
X164908838Y-69520470D02*
X164826590Y-69438222D01*
X164826590Y-69438222D02*
X164785467Y-69355974D01*
X164785467Y-69355974D02*
X164744343Y-69191479D01*
X164744343Y-69191479D02*
X164744343Y-69068108D01*
X164744343Y-69068108D02*
X164785467Y-68903612D01*
X164785467Y-68903612D02*
X164826590Y-68821365D01*
X164826590Y-68821365D02*
X164908838Y-68739117D01*
X164908838Y-68739117D02*
X165032209Y-68697993D01*
X165032209Y-68697993D02*
X165114457Y-68697993D01*
X165114457Y-68697993D02*
X165237828Y-68739117D01*
X165237828Y-68739117D02*
X165278952Y-68780241D01*
X166060305Y-69561593D02*
X165649067Y-69561593D01*
X165649067Y-69561593D02*
X165649067Y-68697993D01*
X166348172Y-69561593D02*
X166348172Y-68697993D01*
X166841657Y-69561593D02*
X166471543Y-69068108D01*
X166841657Y-68697993D02*
X166348172Y-69191479D01*
X162056781Y-65395993D02*
X162591390Y-65395993D01*
X162591390Y-65395993D02*
X162303524Y-65724984D01*
X162303524Y-65724984D02*
X162426895Y-65724984D01*
X162426895Y-65724984D02*
X162509143Y-65766108D01*
X162509143Y-65766108D02*
X162550267Y-65807231D01*
X162550267Y-65807231D02*
X162591390Y-65889479D01*
X162591390Y-65889479D02*
X162591390Y-66095098D01*
X162591390Y-66095098D02*
X162550267Y-66177346D01*
X162550267Y-66177346D02*
X162509143Y-66218470D01*
X162509143Y-66218470D02*
X162426895Y-66259593D01*
X162426895Y-66259593D02*
X162180152Y-66259593D01*
X162180152Y-66259593D02*
X162097905Y-66218470D01*
X162097905Y-66218470D02*
X162056781Y-66177346D01*
X162838133Y-65395993D02*
X163126000Y-66259593D01*
X163126000Y-66259593D02*
X163413866Y-65395993D01*
X163619486Y-65395993D02*
X164154095Y-65395993D01*
X164154095Y-65395993D02*
X163866229Y-65724984D01*
X163866229Y-65724984D02*
X163989600Y-65724984D01*
X163989600Y-65724984D02*
X164071848Y-65766108D01*
X164071848Y-65766108D02*
X164112972Y-65807231D01*
X164112972Y-65807231D02*
X164154095Y-65889479D01*
X164154095Y-65889479D02*
X164154095Y-66095098D01*
X164154095Y-66095098D02*
X164112972Y-66177346D01*
X164112972Y-66177346D02*
X164071848Y-66218470D01*
X164071848Y-66218470D02*
X163989600Y-66259593D01*
X163989600Y-66259593D02*
X163742857Y-66259593D01*
X163742857Y-66259593D02*
X163660610Y-66218470D01*
X163660610Y-66218470D02*
X163619486Y-66177346D01*
D13*
X161543924Y-43699137D02*
X161252671Y-43699137D01*
X161252671Y-44156821D02*
X161252671Y-43283061D01*
X161252671Y-43283061D02*
X161668747Y-43283061D01*
X162001608Y-43823960D02*
X162667330Y-43823960D01*
X162334469Y-44156821D02*
X162334469Y-43491099D01*
D12*
X157100152Y-65395993D02*
X157388019Y-66259593D01*
X157388019Y-66259593D02*
X157675885Y-65395993D01*
X157963753Y-66259593D02*
X157963753Y-65395993D01*
X158374991Y-66259593D02*
X158374991Y-65395993D01*
X158374991Y-65395993D02*
X158868476Y-66259593D01*
X158868476Y-66259593D02*
X158868476Y-65395993D01*
X175545390Y-69561593D02*
X175257524Y-69150355D01*
X175051905Y-69561593D02*
X175051905Y-68697993D01*
X175051905Y-68697993D02*
X175380895Y-68697993D01*
X175380895Y-68697993D02*
X175463143Y-68739117D01*
X175463143Y-68739117D02*
X175504266Y-68780241D01*
X175504266Y-68780241D02*
X175545390Y-68862489D01*
X175545390Y-68862489D02*
X175545390Y-68985860D01*
X175545390Y-68985860D02*
X175504266Y-69068108D01*
X175504266Y-69068108D02*
X175463143Y-69109231D01*
X175463143Y-69109231D02*
X175380895Y-69150355D01*
X175380895Y-69150355D02*
X175051905Y-69150355D01*
X175915505Y-69561593D02*
X175915505Y-68697993D01*
X175915505Y-68697993D02*
X176121124Y-68697993D01*
X176121124Y-68697993D02*
X176244495Y-68739117D01*
X176244495Y-68739117D02*
X176326743Y-68821365D01*
X176326743Y-68821365D02*
X176367866Y-68903612D01*
X176367866Y-68903612D02*
X176408990Y-69068108D01*
X176408990Y-69068108D02*
X176408990Y-69191479D01*
X176408990Y-69191479D02*
X176367866Y-69355974D01*
X176367866Y-69355974D02*
X176326743Y-69438222D01*
X176326743Y-69438222D02*
X176244495Y-69520470D01*
X176244495Y-69520470D02*
X176121124Y-69561593D01*
X176121124Y-69561593D02*
X175915505Y-69561593D01*
X176943600Y-69150355D02*
X176943600Y-69561593D01*
X176655733Y-68697993D02*
X176943600Y-69150355D01*
X176943600Y-69150355D02*
X177231466Y-68697993D01*
X160055018Y-68739117D02*
X159972771Y-68697993D01*
X159972771Y-68697993D02*
X159849399Y-68697993D01*
X159849399Y-68697993D02*
X159726028Y-68739117D01*
X159726028Y-68739117D02*
X159643780Y-68821365D01*
X159643780Y-68821365D02*
X159602657Y-68903612D01*
X159602657Y-68903612D02*
X159561533Y-69068108D01*
X159561533Y-69068108D02*
X159561533Y-69191479D01*
X159561533Y-69191479D02*
X159602657Y-69355974D01*
X159602657Y-69355974D02*
X159643780Y-69438222D01*
X159643780Y-69438222D02*
X159726028Y-69520470D01*
X159726028Y-69520470D02*
X159849399Y-69561593D01*
X159849399Y-69561593D02*
X159931647Y-69561593D01*
X159931647Y-69561593D02*
X160055018Y-69520470D01*
X160055018Y-69520470D02*
X160096142Y-69479346D01*
X160096142Y-69479346D02*
X160096142Y-69191479D01*
X160096142Y-69191479D02*
X159931647Y-69191479D01*
X160466257Y-69561593D02*
X160466257Y-68697993D01*
X160466257Y-68697993D02*
X160959742Y-69561593D01*
X160959742Y-69561593D02*
X160959742Y-68697993D01*
X161370981Y-69561593D02*
X161370981Y-68697993D01*
X161370981Y-68697993D02*
X161576600Y-68697993D01*
X161576600Y-68697993D02*
X161699971Y-68739117D01*
X161699971Y-68739117D02*
X161782219Y-68821365D01*
X161782219Y-68821365D02*
X161823342Y-68903612D01*
X161823342Y-68903612D02*
X161864466Y-69068108D01*
X161864466Y-69068108D02*
X161864466Y-69191479D01*
X161864466Y-69191479D02*
X161823342Y-69355974D01*
X161823342Y-69355974D02*
X161782219Y-69438222D01*
X161782219Y-69438222D02*
X161699971Y-69520470D01*
X161699971Y-69520470D02*
X161576600Y-69561593D01*
X161576600Y-69561593D02*
X161370981Y-69561593D01*
D13*
X171883924Y-43699137D02*
X171592671Y-43699137D01*
X171592671Y-44156821D02*
X171592671Y-43283061D01*
X171592671Y-43283061D02*
X172008747Y-43283061D01*
X172341608Y-43823960D02*
X173007330Y-43823960D01*
D10*
X108673811Y-58787419D02*
X108673811Y-57787419D01*
X109721429Y-58692180D02*
X109673810Y-58739800D01*
X109673810Y-58739800D02*
X109530953Y-58787419D01*
X109530953Y-58787419D02*
X109435715Y-58787419D01*
X109435715Y-58787419D02*
X109292858Y-58739800D01*
X109292858Y-58739800D02*
X109197620Y-58644561D01*
X109197620Y-58644561D02*
X109150001Y-58549323D01*
X109150001Y-58549323D02*
X109102382Y-58358847D01*
X109102382Y-58358847D02*
X109102382Y-58215990D01*
X109102382Y-58215990D02*
X109150001Y-58025514D01*
X109150001Y-58025514D02*
X109197620Y-57930276D01*
X109197620Y-57930276D02*
X109292858Y-57835038D01*
X109292858Y-57835038D02*
X109435715Y-57787419D01*
X109435715Y-57787419D02*
X109530953Y-57787419D01*
X109530953Y-57787419D02*
X109673810Y-57835038D01*
X109673810Y-57835038D02*
X109721429Y-57882657D01*
X110054763Y-57787419D02*
X110673810Y-57787419D01*
X110673810Y-57787419D02*
X110340477Y-58168371D01*
X110340477Y-58168371D02*
X110483334Y-58168371D01*
X110483334Y-58168371D02*
X110578572Y-58215990D01*
X110578572Y-58215990D02*
X110626191Y-58263609D01*
X110626191Y-58263609D02*
X110673810Y-58358847D01*
X110673810Y-58358847D02*
X110673810Y-58596942D01*
X110673810Y-58596942D02*
X110626191Y-58692180D01*
X110626191Y-58692180D02*
X110578572Y-58739800D01*
X110578572Y-58739800D02*
X110483334Y-58787419D01*
X110483334Y-58787419D02*
X110197620Y-58787419D01*
X110197620Y-58787419D02*
X110102382Y-58739800D01*
X110102382Y-58739800D02*
X110054763Y-58692180D01*
D13*
X104143925Y-43699137D02*
X103852672Y-43699137D01*
X103852672Y-44156821D02*
X103852672Y-43283061D01*
X103852672Y-43283061D02*
X104268748Y-43283061D01*
X104601609Y-43823960D02*
X105267331Y-43823960D01*
X104934470Y-44156821D02*
X104934470Y-43491099D01*
D11*
X104221430Y-56884178D02*
X104221430Y-55384178D01*
X104221430Y-55384178D02*
X104721430Y-56455607D01*
X104721430Y-56455607D02*
X105221430Y-55384178D01*
X105221430Y-55384178D02*
X105221430Y-56884178D01*
X105864288Y-56455607D02*
X106578574Y-56455607D01*
X105721431Y-56884178D02*
X106221431Y-55384178D01*
X106221431Y-55384178D02*
X106721431Y-56884178D01*
X107078573Y-55384178D02*
X108078573Y-56884178D01*
X108078573Y-55384178D02*
X107078573Y-56884178D01*
X108507144Y-55384178D02*
X109435716Y-55384178D01*
X109435716Y-55384178D02*
X108935716Y-55955607D01*
X108935716Y-55955607D02*
X109150001Y-55955607D01*
X109150001Y-55955607D02*
X109292859Y-56027035D01*
X109292859Y-56027035D02*
X109364287Y-56098464D01*
X109364287Y-56098464D02*
X109435716Y-56241321D01*
X109435716Y-56241321D02*
X109435716Y-56598464D01*
X109435716Y-56598464D02*
X109364287Y-56741321D01*
X109364287Y-56741321D02*
X109292859Y-56812750D01*
X109292859Y-56812750D02*
X109150001Y-56884178D01*
X109150001Y-56884178D02*
X108721430Y-56884178D01*
X108721430Y-56884178D02*
X108578573Y-56812750D01*
X108578573Y-56812750D02*
X108507144Y-56741321D01*
X110864287Y-56884178D02*
X110007144Y-56884178D01*
X110435715Y-56884178D02*
X110435715Y-55384178D01*
X110435715Y-55384178D02*
X110292858Y-55598464D01*
X110292858Y-55598464D02*
X110150001Y-55741321D01*
X110150001Y-55741321D02*
X110007144Y-55812750D01*
X111721429Y-56027035D02*
X111578572Y-55955607D01*
X111578572Y-55955607D02*
X111507143Y-55884178D01*
X111507143Y-55884178D02*
X111435715Y-55741321D01*
X111435715Y-55741321D02*
X111435715Y-55669892D01*
X111435715Y-55669892D02*
X111507143Y-55527035D01*
X111507143Y-55527035D02*
X111578572Y-55455607D01*
X111578572Y-55455607D02*
X111721429Y-55384178D01*
X111721429Y-55384178D02*
X112007143Y-55384178D01*
X112007143Y-55384178D02*
X112150001Y-55455607D01*
X112150001Y-55455607D02*
X112221429Y-55527035D01*
X112221429Y-55527035D02*
X112292858Y-55669892D01*
X112292858Y-55669892D02*
X112292858Y-55741321D01*
X112292858Y-55741321D02*
X112221429Y-55884178D01*
X112221429Y-55884178D02*
X112150001Y-55955607D01*
X112150001Y-55955607D02*
X112007143Y-56027035D01*
X112007143Y-56027035D02*
X111721429Y-56027035D01*
X111721429Y-56027035D02*
X111578572Y-56098464D01*
X111578572Y-56098464D02*
X111507143Y-56169892D01*
X111507143Y-56169892D02*
X111435715Y-56312750D01*
X111435715Y-56312750D02*
X111435715Y-56598464D01*
X111435715Y-56598464D02*
X111507143Y-56741321D01*
X111507143Y-56741321D02*
X111578572Y-56812750D01*
X111578572Y-56812750D02*
X111721429Y-56884178D01*
X111721429Y-56884178D02*
X112007143Y-56884178D01*
X112007143Y-56884178D02*
X112150001Y-56812750D01*
X112150001Y-56812750D02*
X112221429Y-56741321D01*
X112221429Y-56741321D02*
X112292858Y-56598464D01*
X112292858Y-56598464D02*
X112292858Y-56312750D01*
X112292858Y-56312750D02*
X112221429Y-56169892D01*
X112221429Y-56169892D02*
X112150001Y-56098464D01*
X112150001Y-56098464D02*
X112007143Y-56027035D01*
X113578572Y-55384178D02*
X113292857Y-55384178D01*
X113292857Y-55384178D02*
X113150000Y-55455607D01*
X113150000Y-55455607D02*
X113078572Y-55527035D01*
X113078572Y-55527035D02*
X112935714Y-55741321D01*
X112935714Y-55741321D02*
X112864286Y-56027035D01*
X112864286Y-56027035D02*
X112864286Y-56598464D01*
X112864286Y-56598464D02*
X112935714Y-56741321D01*
X112935714Y-56741321D02*
X113007143Y-56812750D01*
X113007143Y-56812750D02*
X113150000Y-56884178D01*
X113150000Y-56884178D02*
X113435714Y-56884178D01*
X113435714Y-56884178D02*
X113578572Y-56812750D01*
X113578572Y-56812750D02*
X113650000Y-56741321D01*
X113650000Y-56741321D02*
X113721429Y-56598464D01*
X113721429Y-56598464D02*
X113721429Y-56241321D01*
X113721429Y-56241321D02*
X113650000Y-56098464D01*
X113650000Y-56098464D02*
X113578572Y-56027035D01*
X113578572Y-56027035D02*
X113435714Y-55955607D01*
X113435714Y-55955607D02*
X113150000Y-55955607D01*
X113150000Y-55955607D02*
X113007143Y-56027035D01*
X113007143Y-56027035D02*
X112935714Y-56098464D01*
X112935714Y-56098464D02*
X112864286Y-56241321D01*
X115078571Y-55384178D02*
X114364285Y-55384178D01*
X114364285Y-55384178D02*
X114292857Y-56098464D01*
X114292857Y-56098464D02*
X114364285Y-56027035D01*
X114364285Y-56027035D02*
X114507143Y-55955607D01*
X114507143Y-55955607D02*
X114864285Y-55955607D01*
X114864285Y-55955607D02*
X115007143Y-56027035D01*
X115007143Y-56027035D02*
X115078571Y-56098464D01*
X115078571Y-56098464D02*
X115150000Y-56241321D01*
X115150000Y-56241321D02*
X115150000Y-56598464D01*
X115150000Y-56598464D02*
X115078571Y-56741321D01*
X115078571Y-56741321D02*
X115007143Y-56812750D01*
X115007143Y-56812750D02*
X114864285Y-56884178D01*
X114864285Y-56884178D02*
X114507143Y-56884178D01*
X114507143Y-56884178D02*
X114364285Y-56812750D01*
X114364285Y-56812750D02*
X114292857Y-56741321D01*
D12*
X99700153Y-65395993D02*
X99988020Y-66259593D01*
X99988020Y-66259593D02*
X100275886Y-65395993D01*
X100563754Y-66259593D02*
X100563754Y-65395993D01*
X100974992Y-66259593D02*
X100974992Y-65395993D01*
X100974992Y-65395993D02*
X101468477Y-66259593D01*
X101468477Y-66259593D02*
X101468477Y-65395993D01*
X107878953Y-69479346D02*
X107837829Y-69520470D01*
X107837829Y-69520470D02*
X107714458Y-69561593D01*
X107714458Y-69561593D02*
X107632210Y-69561593D01*
X107632210Y-69561593D02*
X107508839Y-69520470D01*
X107508839Y-69520470D02*
X107426591Y-69438222D01*
X107426591Y-69438222D02*
X107385468Y-69355974D01*
X107385468Y-69355974D02*
X107344344Y-69191479D01*
X107344344Y-69191479D02*
X107344344Y-69068108D01*
X107344344Y-69068108D02*
X107385468Y-68903612D01*
X107385468Y-68903612D02*
X107426591Y-68821365D01*
X107426591Y-68821365D02*
X107508839Y-68739117D01*
X107508839Y-68739117D02*
X107632210Y-68697993D01*
X107632210Y-68697993D02*
X107714458Y-68697993D01*
X107714458Y-68697993D02*
X107837829Y-68739117D01*
X107837829Y-68739117D02*
X107878953Y-68780241D01*
X108660306Y-69561593D02*
X108249068Y-69561593D01*
X108249068Y-69561593D02*
X108249068Y-68697993D01*
X108948173Y-69561593D02*
X108948173Y-68697993D01*
X109441658Y-69561593D02*
X109071544Y-69068108D01*
X109441658Y-68697993D02*
X108948173Y-69191479D01*
X115742067Y-66177346D02*
X115700943Y-66218470D01*
X115700943Y-66218470D02*
X115577572Y-66259593D01*
X115577572Y-66259593D02*
X115495324Y-66259593D01*
X115495324Y-66259593D02*
X115371953Y-66218470D01*
X115371953Y-66218470D02*
X115289705Y-66136222D01*
X115289705Y-66136222D02*
X115248582Y-66053974D01*
X115248582Y-66053974D02*
X115207458Y-65889479D01*
X115207458Y-65889479D02*
X115207458Y-65766108D01*
X115207458Y-65766108D02*
X115248582Y-65601612D01*
X115248582Y-65601612D02*
X115289705Y-65519365D01*
X115289705Y-65519365D02*
X115371953Y-65437117D01*
X115371953Y-65437117D02*
X115495324Y-65395993D01*
X115495324Y-65395993D02*
X115577572Y-65395993D01*
X115577572Y-65395993D02*
X115700943Y-65437117D01*
X115700943Y-65437117D02*
X115742067Y-65478241D01*
X116071058Y-66218470D02*
X116194429Y-66259593D01*
X116194429Y-66259593D02*
X116400048Y-66259593D01*
X116400048Y-66259593D02*
X116482296Y-66218470D01*
X116482296Y-66218470D02*
X116523420Y-66177346D01*
X116523420Y-66177346D02*
X116564543Y-66095098D01*
X116564543Y-66095098D02*
X116564543Y-66012850D01*
X116564543Y-66012850D02*
X116523420Y-65930603D01*
X116523420Y-65930603D02*
X116482296Y-65889479D01*
X116482296Y-65889479D02*
X116400048Y-65848355D01*
X116400048Y-65848355D02*
X116235553Y-65807231D01*
X116235553Y-65807231D02*
X116153305Y-65766108D01*
X116153305Y-65766108D02*
X116112182Y-65724984D01*
X116112182Y-65724984D02*
X116071058Y-65642736D01*
X116071058Y-65642736D02*
X116071058Y-65560489D01*
X116071058Y-65560489D02*
X116112182Y-65478241D01*
X116112182Y-65478241D02*
X116153305Y-65437117D01*
X116153305Y-65437117D02*
X116235553Y-65395993D01*
X116235553Y-65395993D02*
X116441172Y-65395993D01*
X116441172Y-65395993D02*
X116564543Y-65437117D01*
D13*
X106929810Y-44156821D02*
X106638557Y-43740745D01*
X106430519Y-44156821D02*
X106430519Y-43283061D01*
X106430519Y-43283061D02*
X106763380Y-43283061D01*
X106763380Y-43283061D02*
X106846595Y-43324669D01*
X106846595Y-43324669D02*
X106888202Y-43366276D01*
X106888202Y-43366276D02*
X106929810Y-43449492D01*
X106929810Y-43449492D02*
X106929810Y-43574314D01*
X106929810Y-43574314D02*
X106888202Y-43657530D01*
X106888202Y-43657530D02*
X106846595Y-43699137D01*
X106846595Y-43699137D02*
X106763380Y-43740745D01*
X106763380Y-43740745D02*
X106430519Y-43740745D01*
X107179456Y-43283061D02*
X107678747Y-43283061D01*
X107429101Y-44156821D02*
X107429101Y-43283061D01*
X107970001Y-44156821D02*
X107970001Y-43283061D01*
X107970001Y-43283061D02*
X108178039Y-43283061D01*
X108178039Y-43283061D02*
X108302862Y-43324669D01*
X108302862Y-43324669D02*
X108386077Y-43407884D01*
X108386077Y-43407884D02*
X108427684Y-43491099D01*
X108427684Y-43491099D02*
X108469292Y-43657530D01*
X108469292Y-43657530D02*
X108469292Y-43782353D01*
X108469292Y-43782353D02*
X108427684Y-43948783D01*
X108427684Y-43948783D02*
X108386077Y-44031998D01*
X108386077Y-44031998D02*
X108302862Y-44115214D01*
X108302862Y-44115214D02*
X108178039Y-44156821D01*
X108178039Y-44156821D02*
X107970001Y-44156821D01*
X108843761Y-43823960D02*
X109509483Y-43823960D01*
X109176622Y-44156821D02*
X109176622Y-43491099D01*
D12*
X112461839Y-69520470D02*
X112585210Y-69561593D01*
X112585210Y-69561593D02*
X112790829Y-69561593D01*
X112790829Y-69561593D02*
X112873077Y-69520470D01*
X112873077Y-69520470D02*
X112914201Y-69479346D01*
X112914201Y-69479346D02*
X112955324Y-69397098D01*
X112955324Y-69397098D02*
X112955324Y-69314850D01*
X112955324Y-69314850D02*
X112914201Y-69232603D01*
X112914201Y-69232603D02*
X112873077Y-69191479D01*
X112873077Y-69191479D02*
X112790829Y-69150355D01*
X112790829Y-69150355D02*
X112626334Y-69109231D01*
X112626334Y-69109231D02*
X112544086Y-69068108D01*
X112544086Y-69068108D02*
X112502963Y-69026984D01*
X112502963Y-69026984D02*
X112461839Y-68944736D01*
X112461839Y-68944736D02*
X112461839Y-68862489D01*
X112461839Y-68862489D02*
X112502963Y-68780241D01*
X112502963Y-68780241D02*
X112544086Y-68739117D01*
X112544086Y-68739117D02*
X112626334Y-68697993D01*
X112626334Y-68697993D02*
X112831953Y-68697993D01*
X112831953Y-68697993D02*
X112955324Y-68739117D01*
X113325439Y-69561593D02*
X113325439Y-68697993D01*
X113325439Y-68697993D02*
X113531058Y-68697993D01*
X113531058Y-68697993D02*
X113654429Y-68739117D01*
X113654429Y-68739117D02*
X113736677Y-68821365D01*
X113736677Y-68821365D02*
X113777800Y-68903612D01*
X113777800Y-68903612D02*
X113818924Y-69068108D01*
X113818924Y-69068108D02*
X113818924Y-69191479D01*
X113818924Y-69191479D02*
X113777800Y-69355974D01*
X113777800Y-69355974D02*
X113736677Y-69438222D01*
X113736677Y-69438222D02*
X113654429Y-69520470D01*
X113654429Y-69520470D02*
X113531058Y-69561593D01*
X113531058Y-69561593D02*
X113325439Y-69561593D01*
X114189039Y-69561593D02*
X114189039Y-68697993D01*
X109675096Y-66218470D02*
X109798467Y-66259593D01*
X109798467Y-66259593D02*
X110004086Y-66259593D01*
X110004086Y-66259593D02*
X110086334Y-66218470D01*
X110086334Y-66218470D02*
X110127458Y-66177346D01*
X110127458Y-66177346D02*
X110168581Y-66095098D01*
X110168581Y-66095098D02*
X110168581Y-66012850D01*
X110168581Y-66012850D02*
X110127458Y-65930603D01*
X110127458Y-65930603D02*
X110086334Y-65889479D01*
X110086334Y-65889479D02*
X110004086Y-65848355D01*
X110004086Y-65848355D02*
X109839591Y-65807231D01*
X109839591Y-65807231D02*
X109757343Y-65766108D01*
X109757343Y-65766108D02*
X109716220Y-65724984D01*
X109716220Y-65724984D02*
X109675096Y-65642736D01*
X109675096Y-65642736D02*
X109675096Y-65560489D01*
X109675096Y-65560489D02*
X109716220Y-65478241D01*
X109716220Y-65478241D02*
X109757343Y-65437117D01*
X109757343Y-65437117D02*
X109839591Y-65395993D01*
X109839591Y-65395993D02*
X110045210Y-65395993D01*
X110045210Y-65395993D02*
X110168581Y-65437117D01*
X110538696Y-66259593D02*
X110538696Y-65395993D01*
X110538696Y-65395993D02*
X110744315Y-65395993D01*
X110744315Y-65395993D02*
X110867686Y-65437117D01*
X110867686Y-65437117D02*
X110949934Y-65519365D01*
X110949934Y-65519365D02*
X110991057Y-65601612D01*
X110991057Y-65601612D02*
X111032181Y-65766108D01*
X111032181Y-65766108D02*
X111032181Y-65889479D01*
X111032181Y-65889479D02*
X110991057Y-66053974D01*
X110991057Y-66053974D02*
X110949934Y-66136222D01*
X110949934Y-66136222D02*
X110867686Y-66218470D01*
X110867686Y-66218470D02*
X110744315Y-66259593D01*
X110744315Y-66259593D02*
X110538696Y-66259593D01*
X111566791Y-65395993D02*
X111731286Y-65395993D01*
X111731286Y-65395993D02*
X111813534Y-65437117D01*
X111813534Y-65437117D02*
X111895781Y-65519365D01*
X111895781Y-65519365D02*
X111936905Y-65683860D01*
X111936905Y-65683860D02*
X111936905Y-65971727D01*
X111936905Y-65971727D02*
X111895781Y-66136222D01*
X111895781Y-66136222D02*
X111813534Y-66218470D01*
X111813534Y-66218470D02*
X111731286Y-66259593D01*
X111731286Y-66259593D02*
X111566791Y-66259593D01*
X111566791Y-66259593D02*
X111484543Y-66218470D01*
X111484543Y-66218470D02*
X111402296Y-66136222D01*
X111402296Y-66136222D02*
X111361172Y-65971727D01*
X111361172Y-65971727D02*
X111361172Y-65683860D01*
X111361172Y-65683860D02*
X111402296Y-65519365D01*
X111402296Y-65519365D02*
X111484543Y-65437117D01*
X111484543Y-65437117D02*
X111566791Y-65395993D01*
D13*
X110879810Y-44156821D02*
X110588557Y-43740745D01*
X110380519Y-44156821D02*
X110380519Y-43283061D01*
X110380519Y-43283061D02*
X110713380Y-43283061D01*
X110713380Y-43283061D02*
X110796595Y-43324669D01*
X110796595Y-43324669D02*
X110838202Y-43366276D01*
X110838202Y-43366276D02*
X110879810Y-43449492D01*
X110879810Y-43449492D02*
X110879810Y-43574314D01*
X110879810Y-43574314D02*
X110838202Y-43657530D01*
X110838202Y-43657530D02*
X110796595Y-43699137D01*
X110796595Y-43699137D02*
X110713380Y-43740745D01*
X110713380Y-43740745D02*
X110380519Y-43740745D01*
X111129456Y-43283061D02*
X111628747Y-43283061D01*
X111379101Y-44156821D02*
X111379101Y-43283061D01*
X111920001Y-44156821D02*
X111920001Y-43283061D01*
X111920001Y-43283061D02*
X112128039Y-43283061D01*
X112128039Y-43283061D02*
X112252862Y-43324669D01*
X112252862Y-43324669D02*
X112336077Y-43407884D01*
X112336077Y-43407884D02*
X112377684Y-43491099D01*
X112377684Y-43491099D02*
X112419292Y-43657530D01*
X112419292Y-43657530D02*
X112419292Y-43782353D01*
X112419292Y-43782353D02*
X112377684Y-43948783D01*
X112377684Y-43948783D02*
X112336077Y-44031998D01*
X112336077Y-44031998D02*
X112252862Y-44115214D01*
X112252862Y-44115214D02*
X112128039Y-44156821D01*
X112128039Y-44156821D02*
X111920001Y-44156821D01*
X112793761Y-43823960D02*
X113459483Y-43823960D01*
D12*
X118145391Y-69561593D02*
X117857525Y-69150355D01*
X117651906Y-69561593D02*
X117651906Y-68697993D01*
X117651906Y-68697993D02*
X117980896Y-68697993D01*
X117980896Y-68697993D02*
X118063144Y-68739117D01*
X118063144Y-68739117D02*
X118104267Y-68780241D01*
X118104267Y-68780241D02*
X118145391Y-68862489D01*
X118145391Y-68862489D02*
X118145391Y-68985860D01*
X118145391Y-68985860D02*
X118104267Y-69068108D01*
X118104267Y-69068108D02*
X118063144Y-69109231D01*
X118063144Y-69109231D02*
X117980896Y-69150355D01*
X117980896Y-69150355D02*
X117651906Y-69150355D01*
X118515506Y-69561593D02*
X118515506Y-68697993D01*
X118515506Y-68697993D02*
X118721125Y-68697993D01*
X118721125Y-68697993D02*
X118844496Y-68739117D01*
X118844496Y-68739117D02*
X118926744Y-68821365D01*
X118926744Y-68821365D02*
X118967867Y-68903612D01*
X118967867Y-68903612D02*
X119008991Y-69068108D01*
X119008991Y-69068108D02*
X119008991Y-69191479D01*
X119008991Y-69191479D02*
X118967867Y-69355974D01*
X118967867Y-69355974D02*
X118926744Y-69438222D01*
X118926744Y-69438222D02*
X118844496Y-69520470D01*
X118844496Y-69520470D02*
X118721125Y-69561593D01*
X118721125Y-69561593D02*
X118515506Y-69561593D01*
X119543601Y-69150355D02*
X119543601Y-69561593D01*
X119255734Y-68697993D02*
X119543601Y-69150355D01*
X119543601Y-69150355D02*
X119831467Y-68697993D01*
D13*
X114483925Y-43699137D02*
X114192672Y-43699137D01*
X114192672Y-44156821D02*
X114192672Y-43283061D01*
X114192672Y-43283061D02*
X114608748Y-43283061D01*
X114941609Y-43823960D02*
X115607331Y-43823960D01*
D12*
X102655019Y-68739117D02*
X102572772Y-68697993D01*
X102572772Y-68697993D02*
X102449400Y-68697993D01*
X102449400Y-68697993D02*
X102326029Y-68739117D01*
X102326029Y-68739117D02*
X102243781Y-68821365D01*
X102243781Y-68821365D02*
X102202658Y-68903612D01*
X102202658Y-68903612D02*
X102161534Y-69068108D01*
X102161534Y-69068108D02*
X102161534Y-69191479D01*
X102161534Y-69191479D02*
X102202658Y-69355974D01*
X102202658Y-69355974D02*
X102243781Y-69438222D01*
X102243781Y-69438222D02*
X102326029Y-69520470D01*
X102326029Y-69520470D02*
X102449400Y-69561593D01*
X102449400Y-69561593D02*
X102531648Y-69561593D01*
X102531648Y-69561593D02*
X102655019Y-69520470D01*
X102655019Y-69520470D02*
X102696143Y-69479346D01*
X102696143Y-69479346D02*
X102696143Y-69191479D01*
X102696143Y-69191479D02*
X102531648Y-69191479D01*
X103066258Y-69561593D02*
X103066258Y-68697993D01*
X103066258Y-68697993D02*
X103559743Y-69561593D01*
X103559743Y-69561593D02*
X103559743Y-68697993D01*
X103970982Y-69561593D02*
X103970982Y-68697993D01*
X103970982Y-68697993D02*
X104176601Y-68697993D01*
X104176601Y-68697993D02*
X104299972Y-68739117D01*
X104299972Y-68739117D02*
X104382220Y-68821365D01*
X104382220Y-68821365D02*
X104423343Y-68903612D01*
X104423343Y-68903612D02*
X104464467Y-69068108D01*
X104464467Y-69068108D02*
X104464467Y-69191479D01*
X104464467Y-69191479D02*
X104423343Y-69355974D01*
X104423343Y-69355974D02*
X104382220Y-69438222D01*
X104382220Y-69438222D02*
X104299972Y-69520470D01*
X104299972Y-69520470D02*
X104176601Y-69561593D01*
X104176601Y-69561593D02*
X103970982Y-69561593D01*
X104656782Y-65395993D02*
X105191391Y-65395993D01*
X105191391Y-65395993D02*
X104903525Y-65724984D01*
X104903525Y-65724984D02*
X105026896Y-65724984D01*
X105026896Y-65724984D02*
X105109144Y-65766108D01*
X105109144Y-65766108D02*
X105150268Y-65807231D01*
X105150268Y-65807231D02*
X105191391Y-65889479D01*
X105191391Y-65889479D02*
X105191391Y-66095098D01*
X105191391Y-66095098D02*
X105150268Y-66177346D01*
X105150268Y-66177346D02*
X105109144Y-66218470D01*
X105109144Y-66218470D02*
X105026896Y-66259593D01*
X105026896Y-66259593D02*
X104780153Y-66259593D01*
X104780153Y-66259593D02*
X104697906Y-66218470D01*
X104697906Y-66218470D02*
X104656782Y-66177346D01*
X105438134Y-65395993D02*
X105726001Y-66259593D01*
X105726001Y-66259593D02*
X106013867Y-65395993D01*
X106219487Y-65395993D02*
X106754096Y-65395993D01*
X106754096Y-65395993D02*
X106466230Y-65724984D01*
X106466230Y-65724984D02*
X106589601Y-65724984D01*
X106589601Y-65724984D02*
X106671849Y-65766108D01*
X106671849Y-65766108D02*
X106712973Y-65807231D01*
X106712973Y-65807231D02*
X106754096Y-65889479D01*
X106754096Y-65889479D02*
X106754096Y-66095098D01*
X106754096Y-66095098D02*
X106712973Y-66177346D01*
X106712973Y-66177346D02*
X106671849Y-66218470D01*
X106671849Y-66218470D02*
X106589601Y-66259593D01*
X106589601Y-66259593D02*
X106342858Y-66259593D01*
X106342858Y-66259593D02*
X106260611Y-66218470D01*
X106260611Y-66218470D02*
X106219487Y-66177346D01*
D10*
X252023809Y-58787418D02*
X252023809Y-57787418D01*
X253071427Y-58692179D02*
X253023808Y-58739799D01*
X253023808Y-58739799D02*
X252880951Y-58787418D01*
X252880951Y-58787418D02*
X252785713Y-58787418D01*
X252785713Y-58787418D02*
X252642856Y-58739799D01*
X252642856Y-58739799D02*
X252547618Y-58644560D01*
X252547618Y-58644560D02*
X252499999Y-58549322D01*
X252499999Y-58549322D02*
X252452380Y-58358846D01*
X252452380Y-58358846D02*
X252452380Y-58215989D01*
X252452380Y-58215989D02*
X252499999Y-58025513D01*
X252499999Y-58025513D02*
X252547618Y-57930275D01*
X252547618Y-57930275D02*
X252642856Y-57835037D01*
X252642856Y-57835037D02*
X252785713Y-57787418D01*
X252785713Y-57787418D02*
X252880951Y-57787418D01*
X252880951Y-57787418D02*
X253023808Y-57835037D01*
X253023808Y-57835037D02*
X253071427Y-57882656D01*
X253642856Y-58215989D02*
X253547618Y-58168370D01*
X253547618Y-58168370D02*
X253499999Y-58120751D01*
X253499999Y-58120751D02*
X253452380Y-58025513D01*
X253452380Y-58025513D02*
X253452380Y-57977894D01*
X253452380Y-57977894D02*
X253499999Y-57882656D01*
X253499999Y-57882656D02*
X253547618Y-57835037D01*
X253547618Y-57835037D02*
X253642856Y-57787418D01*
X253642856Y-57787418D02*
X253833332Y-57787418D01*
X253833332Y-57787418D02*
X253928570Y-57835037D01*
X253928570Y-57835037D02*
X253976189Y-57882656D01*
X253976189Y-57882656D02*
X254023808Y-57977894D01*
X254023808Y-57977894D02*
X254023808Y-58025513D01*
X254023808Y-58025513D02*
X253976189Y-58120751D01*
X253976189Y-58120751D02*
X253928570Y-58168370D01*
X253928570Y-58168370D02*
X253833332Y-58215989D01*
X253833332Y-58215989D02*
X253642856Y-58215989D01*
X253642856Y-58215989D02*
X253547618Y-58263608D01*
X253547618Y-58263608D02*
X253499999Y-58311227D01*
X253499999Y-58311227D02*
X253452380Y-58406465D01*
X253452380Y-58406465D02*
X253452380Y-58596941D01*
X253452380Y-58596941D02*
X253499999Y-58692179D01*
X253499999Y-58692179D02*
X253547618Y-58739799D01*
X253547618Y-58739799D02*
X253642856Y-58787418D01*
X253642856Y-58787418D02*
X253833332Y-58787418D01*
X253833332Y-58787418D02*
X253928570Y-58739799D01*
X253928570Y-58739799D02*
X253976189Y-58692179D01*
X253976189Y-58692179D02*
X254023808Y-58596941D01*
X254023808Y-58596941D02*
X254023808Y-58406465D01*
X254023808Y-58406465D02*
X253976189Y-58311227D01*
X253976189Y-58311227D02*
X253928570Y-58263608D01*
X253928570Y-58263608D02*
X253833332Y-58215989D01*
D12*
X259092065Y-66177345D02*
X259050941Y-66218469D01*
X259050941Y-66218469D02*
X258927570Y-66259592D01*
X258927570Y-66259592D02*
X258845322Y-66259592D01*
X258845322Y-66259592D02*
X258721951Y-66218469D01*
X258721951Y-66218469D02*
X258639703Y-66136221D01*
X258639703Y-66136221D02*
X258598580Y-66053973D01*
X258598580Y-66053973D02*
X258557456Y-65889478D01*
X258557456Y-65889478D02*
X258557456Y-65766107D01*
X258557456Y-65766107D02*
X258598580Y-65601611D01*
X258598580Y-65601611D02*
X258639703Y-65519364D01*
X258639703Y-65519364D02*
X258721951Y-65437116D01*
X258721951Y-65437116D02*
X258845322Y-65395992D01*
X258845322Y-65395992D02*
X258927570Y-65395992D01*
X258927570Y-65395992D02*
X259050941Y-65437116D01*
X259050941Y-65437116D02*
X259092065Y-65478240D01*
X259421056Y-66218469D02*
X259544427Y-66259592D01*
X259544427Y-66259592D02*
X259750046Y-66259592D01*
X259750046Y-66259592D02*
X259832294Y-66218469D01*
X259832294Y-66218469D02*
X259873418Y-66177345D01*
X259873418Y-66177345D02*
X259914541Y-66095097D01*
X259914541Y-66095097D02*
X259914541Y-66012849D01*
X259914541Y-66012849D02*
X259873418Y-65930602D01*
X259873418Y-65930602D02*
X259832294Y-65889478D01*
X259832294Y-65889478D02*
X259750046Y-65848354D01*
X259750046Y-65848354D02*
X259585551Y-65807230D01*
X259585551Y-65807230D02*
X259503303Y-65766107D01*
X259503303Y-65766107D02*
X259462180Y-65724983D01*
X259462180Y-65724983D02*
X259421056Y-65642735D01*
X259421056Y-65642735D02*
X259421056Y-65560488D01*
X259421056Y-65560488D02*
X259462180Y-65478240D01*
X259462180Y-65478240D02*
X259503303Y-65437116D01*
X259503303Y-65437116D02*
X259585551Y-65395992D01*
X259585551Y-65395992D02*
X259791170Y-65395992D01*
X259791170Y-65395992D02*
X259914541Y-65437116D01*
X243050151Y-65395993D02*
X243338018Y-66259593D01*
X243338018Y-66259593D02*
X243625884Y-65395993D01*
X243913752Y-66259593D02*
X243913752Y-65395993D01*
X244324990Y-66259593D02*
X244324990Y-65395993D01*
X244324990Y-65395993D02*
X244818475Y-66259593D01*
X244818475Y-66259593D02*
X244818475Y-65395993D01*
D15*
X245819904Y-43743921D02*
X245455837Y-43743921D01*
X245455837Y-44316026D02*
X245455837Y-43223826D01*
X245455837Y-43223826D02*
X245975932Y-43223826D01*
X246392008Y-43899950D02*
X247224161Y-43899950D01*
X246808084Y-44316026D02*
X246808084Y-43483874D01*
D13*
X249363808Y-44216821D02*
X249072555Y-43800745D01*
X248864517Y-44216821D02*
X248864517Y-43343061D01*
X248864517Y-43343061D02*
X249197378Y-43343061D01*
X249197378Y-43343061D02*
X249280593Y-43384669D01*
X249280593Y-43384669D02*
X249322200Y-43426276D01*
X249322200Y-43426276D02*
X249363808Y-43509492D01*
X249363808Y-43509492D02*
X249363808Y-43634314D01*
X249363808Y-43634314D02*
X249322200Y-43717530D01*
X249322200Y-43717530D02*
X249280593Y-43759137D01*
X249280593Y-43759137D02*
X249197378Y-43800745D01*
X249197378Y-43800745D02*
X248864517Y-43800745D01*
X249613454Y-43343061D02*
X250112745Y-43343061D01*
X249863099Y-44216821D02*
X249863099Y-43343061D01*
X250403999Y-44216821D02*
X250403999Y-43343061D01*
X250403999Y-43343061D02*
X250612037Y-43343061D01*
X250612037Y-43343061D02*
X250736860Y-43384669D01*
X250736860Y-43384669D02*
X250820075Y-43467884D01*
X250820075Y-43467884D02*
X250861682Y-43551099D01*
X250861682Y-43551099D02*
X250903290Y-43717530D01*
X250903290Y-43717530D02*
X250903290Y-43842353D01*
X250903290Y-43842353D02*
X250861682Y-44008783D01*
X250861682Y-44008783D02*
X250820075Y-44091998D01*
X250820075Y-44091998D02*
X250736860Y-44175214D01*
X250736860Y-44175214D02*
X250612037Y-44216821D01*
X250612037Y-44216821D02*
X250403999Y-44216821D01*
X251277759Y-43883960D02*
X251943481Y-43883960D01*
X251610620Y-44216821D02*
X251610620Y-43551099D01*
D12*
X248006780Y-65395992D02*
X248541389Y-65395992D01*
X248541389Y-65395992D02*
X248253523Y-65724983D01*
X248253523Y-65724983D02*
X248376894Y-65724983D01*
X248376894Y-65724983D02*
X248459142Y-65766107D01*
X248459142Y-65766107D02*
X248500266Y-65807230D01*
X248500266Y-65807230D02*
X248541389Y-65889478D01*
X248541389Y-65889478D02*
X248541389Y-66095097D01*
X248541389Y-66095097D02*
X248500266Y-66177345D01*
X248500266Y-66177345D02*
X248459142Y-66218469D01*
X248459142Y-66218469D02*
X248376894Y-66259592D01*
X248376894Y-66259592D02*
X248130151Y-66259592D01*
X248130151Y-66259592D02*
X248047904Y-66218469D01*
X248047904Y-66218469D02*
X248006780Y-66177345D01*
X248788132Y-65395992D02*
X249075999Y-66259592D01*
X249075999Y-66259592D02*
X249363865Y-65395992D01*
X249569485Y-65395992D02*
X250104094Y-65395992D01*
X250104094Y-65395992D02*
X249816228Y-65724983D01*
X249816228Y-65724983D02*
X249939599Y-65724983D01*
X249939599Y-65724983D02*
X250021847Y-65766107D01*
X250021847Y-65766107D02*
X250062971Y-65807230D01*
X250062971Y-65807230D02*
X250104094Y-65889478D01*
X250104094Y-65889478D02*
X250104094Y-66095097D01*
X250104094Y-66095097D02*
X250062971Y-66177345D01*
X250062971Y-66177345D02*
X250021847Y-66218469D01*
X250021847Y-66218469D02*
X249939599Y-66259592D01*
X249939599Y-66259592D02*
X249692856Y-66259592D01*
X249692856Y-66259592D02*
X249610609Y-66218469D01*
X249610609Y-66218469D02*
X249569485Y-66177345D01*
X246005017Y-68739117D02*
X245922770Y-68697993D01*
X245922770Y-68697993D02*
X245799398Y-68697993D01*
X245799398Y-68697993D02*
X245676027Y-68739117D01*
X245676027Y-68739117D02*
X245593779Y-68821365D01*
X245593779Y-68821365D02*
X245552656Y-68903612D01*
X245552656Y-68903612D02*
X245511532Y-69068108D01*
X245511532Y-69068108D02*
X245511532Y-69191479D01*
X245511532Y-69191479D02*
X245552656Y-69355974D01*
X245552656Y-69355974D02*
X245593779Y-69438222D01*
X245593779Y-69438222D02*
X245676027Y-69520470D01*
X245676027Y-69520470D02*
X245799398Y-69561593D01*
X245799398Y-69561593D02*
X245881646Y-69561593D01*
X245881646Y-69561593D02*
X246005017Y-69520470D01*
X246005017Y-69520470D02*
X246046141Y-69479346D01*
X246046141Y-69479346D02*
X246046141Y-69191479D01*
X246046141Y-69191479D02*
X245881646Y-69191479D01*
X246416256Y-69561593D02*
X246416256Y-68697993D01*
X246416256Y-68697993D02*
X246909741Y-69561593D01*
X246909741Y-69561593D02*
X246909741Y-68697993D01*
X247320980Y-69561593D02*
X247320980Y-68697993D01*
X247320980Y-68697993D02*
X247526599Y-68697993D01*
X247526599Y-68697993D02*
X247649970Y-68739117D01*
X247649970Y-68739117D02*
X247732218Y-68821365D01*
X247732218Y-68821365D02*
X247773341Y-68903612D01*
X247773341Y-68903612D02*
X247814465Y-69068108D01*
X247814465Y-69068108D02*
X247814465Y-69191479D01*
X247814465Y-69191479D02*
X247773341Y-69355974D01*
X247773341Y-69355974D02*
X247732218Y-69438222D01*
X247732218Y-69438222D02*
X247649970Y-69520470D01*
X247649970Y-69520470D02*
X247526599Y-69561593D01*
X247526599Y-69561593D02*
X247320980Y-69561593D01*
X251228951Y-69479346D02*
X251187827Y-69520470D01*
X251187827Y-69520470D02*
X251064456Y-69561593D01*
X251064456Y-69561593D02*
X250982208Y-69561593D01*
X250982208Y-69561593D02*
X250858837Y-69520470D01*
X250858837Y-69520470D02*
X250776589Y-69438222D01*
X250776589Y-69438222D02*
X250735466Y-69355974D01*
X250735466Y-69355974D02*
X250694342Y-69191479D01*
X250694342Y-69191479D02*
X250694342Y-69068108D01*
X250694342Y-69068108D02*
X250735466Y-68903612D01*
X250735466Y-68903612D02*
X250776589Y-68821365D01*
X250776589Y-68821365D02*
X250858837Y-68739117D01*
X250858837Y-68739117D02*
X250982208Y-68697993D01*
X250982208Y-68697993D02*
X251064456Y-68697993D01*
X251064456Y-68697993D02*
X251187827Y-68739117D01*
X251187827Y-68739117D02*
X251228951Y-68780241D01*
X252010304Y-69561593D02*
X251599066Y-69561593D01*
X251599066Y-69561593D02*
X251599066Y-68697993D01*
X252298171Y-69561593D02*
X252298171Y-68697993D01*
X252791656Y-69561593D02*
X252421542Y-69068108D01*
X252791656Y-68697993D02*
X252298171Y-69191479D01*
X255811837Y-69520470D02*
X255935208Y-69561593D01*
X255935208Y-69561593D02*
X256140827Y-69561593D01*
X256140827Y-69561593D02*
X256223075Y-69520470D01*
X256223075Y-69520470D02*
X256264199Y-69479346D01*
X256264199Y-69479346D02*
X256305322Y-69397098D01*
X256305322Y-69397098D02*
X256305322Y-69314850D01*
X256305322Y-69314850D02*
X256264199Y-69232603D01*
X256264199Y-69232603D02*
X256223075Y-69191479D01*
X256223075Y-69191479D02*
X256140827Y-69150355D01*
X256140827Y-69150355D02*
X255976332Y-69109231D01*
X255976332Y-69109231D02*
X255894084Y-69068108D01*
X255894084Y-69068108D02*
X255852961Y-69026984D01*
X255852961Y-69026984D02*
X255811837Y-68944736D01*
X255811837Y-68944736D02*
X255811837Y-68862489D01*
X255811837Y-68862489D02*
X255852961Y-68780241D01*
X255852961Y-68780241D02*
X255894084Y-68739117D01*
X255894084Y-68739117D02*
X255976332Y-68697993D01*
X255976332Y-68697993D02*
X256181951Y-68697993D01*
X256181951Y-68697993D02*
X256305322Y-68739117D01*
X256675437Y-69561593D02*
X256675437Y-68697993D01*
X256675437Y-68697993D02*
X256881056Y-68697993D01*
X256881056Y-68697993D02*
X257004427Y-68739117D01*
X257004427Y-68739117D02*
X257086675Y-68821365D01*
X257086675Y-68821365D02*
X257127798Y-68903612D01*
X257127798Y-68903612D02*
X257168922Y-69068108D01*
X257168922Y-69068108D02*
X257168922Y-69191479D01*
X257168922Y-69191479D02*
X257127798Y-69355974D01*
X257127798Y-69355974D02*
X257086675Y-69438222D01*
X257086675Y-69438222D02*
X257004427Y-69520470D01*
X257004427Y-69520470D02*
X256881056Y-69561593D01*
X256881056Y-69561593D02*
X256675437Y-69561593D01*
X257539037Y-69561593D02*
X257539037Y-68697993D01*
X253025094Y-66218470D02*
X253148465Y-66259593D01*
X253148465Y-66259593D02*
X253354084Y-66259593D01*
X253354084Y-66259593D02*
X253436332Y-66218470D01*
X253436332Y-66218470D02*
X253477456Y-66177346D01*
X253477456Y-66177346D02*
X253518579Y-66095098D01*
X253518579Y-66095098D02*
X253518579Y-66012850D01*
X253518579Y-66012850D02*
X253477456Y-65930603D01*
X253477456Y-65930603D02*
X253436332Y-65889479D01*
X253436332Y-65889479D02*
X253354084Y-65848355D01*
X253354084Y-65848355D02*
X253189589Y-65807231D01*
X253189589Y-65807231D02*
X253107341Y-65766108D01*
X253107341Y-65766108D02*
X253066218Y-65724984D01*
X253066218Y-65724984D02*
X253025094Y-65642736D01*
X253025094Y-65642736D02*
X253025094Y-65560489D01*
X253025094Y-65560489D02*
X253066218Y-65478241D01*
X253066218Y-65478241D02*
X253107341Y-65437117D01*
X253107341Y-65437117D02*
X253189589Y-65395993D01*
X253189589Y-65395993D02*
X253395208Y-65395993D01*
X253395208Y-65395993D02*
X253518579Y-65437117D01*
X253888694Y-66259593D02*
X253888694Y-65395993D01*
X253888694Y-65395993D02*
X254094313Y-65395993D01*
X254094313Y-65395993D02*
X254217684Y-65437117D01*
X254217684Y-65437117D02*
X254299932Y-65519365D01*
X254299932Y-65519365D02*
X254341055Y-65601612D01*
X254341055Y-65601612D02*
X254382179Y-65766108D01*
X254382179Y-65766108D02*
X254382179Y-65889479D01*
X254382179Y-65889479D02*
X254341055Y-66053974D01*
X254341055Y-66053974D02*
X254299932Y-66136222D01*
X254299932Y-66136222D02*
X254217684Y-66218470D01*
X254217684Y-66218470D02*
X254094313Y-66259593D01*
X254094313Y-66259593D02*
X253888694Y-66259593D01*
X254916789Y-65395993D02*
X255081284Y-65395993D01*
X255081284Y-65395993D02*
X255163532Y-65437117D01*
X255163532Y-65437117D02*
X255245779Y-65519365D01*
X255245779Y-65519365D02*
X255286903Y-65683860D01*
X255286903Y-65683860D02*
X255286903Y-65971727D01*
X255286903Y-65971727D02*
X255245779Y-66136222D01*
X255245779Y-66136222D02*
X255163532Y-66218470D01*
X255163532Y-66218470D02*
X255081284Y-66259593D01*
X255081284Y-66259593D02*
X254916789Y-66259593D01*
X254916789Y-66259593D02*
X254834541Y-66218470D01*
X254834541Y-66218470D02*
X254752294Y-66136222D01*
X254752294Y-66136222D02*
X254711170Y-65971727D01*
X254711170Y-65971727D02*
X254711170Y-65683860D01*
X254711170Y-65683860D02*
X254752294Y-65519365D01*
X254752294Y-65519365D02*
X254834541Y-65437117D01*
X254834541Y-65437117D02*
X254916789Y-65395993D01*
D11*
X247571428Y-56884178D02*
X247571428Y-55384178D01*
X247571428Y-55384178D02*
X248071428Y-56455607D01*
X248071428Y-56455607D02*
X248571428Y-55384178D01*
X248571428Y-55384178D02*
X248571428Y-56884178D01*
X249214286Y-56455607D02*
X249928572Y-56455607D01*
X249071429Y-56884178D02*
X249571429Y-55384178D01*
X249571429Y-55384178D02*
X250071429Y-56884178D01*
X250428571Y-55384178D02*
X251428571Y-56884178D01*
X251428571Y-55384178D02*
X250428571Y-56884178D01*
X251857142Y-55384178D02*
X252785714Y-55384178D01*
X252785714Y-55384178D02*
X252285714Y-55955607D01*
X252285714Y-55955607D02*
X252499999Y-55955607D01*
X252499999Y-55955607D02*
X252642857Y-56027035D01*
X252642857Y-56027035D02*
X252714285Y-56098464D01*
X252714285Y-56098464D02*
X252785714Y-56241321D01*
X252785714Y-56241321D02*
X252785714Y-56598464D01*
X252785714Y-56598464D02*
X252714285Y-56741321D01*
X252714285Y-56741321D02*
X252642857Y-56812750D01*
X252642857Y-56812750D02*
X252499999Y-56884178D01*
X252499999Y-56884178D02*
X252071428Y-56884178D01*
X252071428Y-56884178D02*
X251928571Y-56812750D01*
X251928571Y-56812750D02*
X251857142Y-56741321D01*
X254214285Y-56884178D02*
X253357142Y-56884178D01*
X253785713Y-56884178D02*
X253785713Y-55384178D01*
X253785713Y-55384178D02*
X253642856Y-55598464D01*
X253642856Y-55598464D02*
X253499999Y-55741321D01*
X253499999Y-55741321D02*
X253357142Y-55812750D01*
X255071427Y-56027035D02*
X254928570Y-55955607D01*
X254928570Y-55955607D02*
X254857141Y-55884178D01*
X254857141Y-55884178D02*
X254785713Y-55741321D01*
X254785713Y-55741321D02*
X254785713Y-55669892D01*
X254785713Y-55669892D02*
X254857141Y-55527035D01*
X254857141Y-55527035D02*
X254928570Y-55455607D01*
X254928570Y-55455607D02*
X255071427Y-55384178D01*
X255071427Y-55384178D02*
X255357141Y-55384178D01*
X255357141Y-55384178D02*
X255499999Y-55455607D01*
X255499999Y-55455607D02*
X255571427Y-55527035D01*
X255571427Y-55527035D02*
X255642856Y-55669892D01*
X255642856Y-55669892D02*
X255642856Y-55741321D01*
X255642856Y-55741321D02*
X255571427Y-55884178D01*
X255571427Y-55884178D02*
X255499999Y-55955607D01*
X255499999Y-55955607D02*
X255357141Y-56027035D01*
X255357141Y-56027035D02*
X255071427Y-56027035D01*
X255071427Y-56027035D02*
X254928570Y-56098464D01*
X254928570Y-56098464D02*
X254857141Y-56169892D01*
X254857141Y-56169892D02*
X254785713Y-56312750D01*
X254785713Y-56312750D02*
X254785713Y-56598464D01*
X254785713Y-56598464D02*
X254857141Y-56741321D01*
X254857141Y-56741321D02*
X254928570Y-56812750D01*
X254928570Y-56812750D02*
X255071427Y-56884178D01*
X255071427Y-56884178D02*
X255357141Y-56884178D01*
X255357141Y-56884178D02*
X255499999Y-56812750D01*
X255499999Y-56812750D02*
X255571427Y-56741321D01*
X255571427Y-56741321D02*
X255642856Y-56598464D01*
X255642856Y-56598464D02*
X255642856Y-56312750D01*
X255642856Y-56312750D02*
X255571427Y-56169892D01*
X255571427Y-56169892D02*
X255499999Y-56098464D01*
X255499999Y-56098464D02*
X255357141Y-56027035D01*
X256928570Y-55384178D02*
X256642855Y-55384178D01*
X256642855Y-55384178D02*
X256499998Y-55455607D01*
X256499998Y-55455607D02*
X256428570Y-55527035D01*
X256428570Y-55527035D02*
X256285712Y-55741321D01*
X256285712Y-55741321D02*
X256214284Y-56027035D01*
X256214284Y-56027035D02*
X256214284Y-56598464D01*
X256214284Y-56598464D02*
X256285712Y-56741321D01*
X256285712Y-56741321D02*
X256357141Y-56812750D01*
X256357141Y-56812750D02*
X256499998Y-56884178D01*
X256499998Y-56884178D02*
X256785712Y-56884178D01*
X256785712Y-56884178D02*
X256928570Y-56812750D01*
X256928570Y-56812750D02*
X256999998Y-56741321D01*
X256999998Y-56741321D02*
X257071427Y-56598464D01*
X257071427Y-56598464D02*
X257071427Y-56241321D01*
X257071427Y-56241321D02*
X256999998Y-56098464D01*
X256999998Y-56098464D02*
X256928570Y-56027035D01*
X256928570Y-56027035D02*
X256785712Y-55955607D01*
X256785712Y-55955607D02*
X256499998Y-55955607D01*
X256499998Y-55955607D02*
X256357141Y-56027035D01*
X256357141Y-56027035D02*
X256285712Y-56098464D01*
X256285712Y-56098464D02*
X256214284Y-56241321D01*
X258428569Y-55384178D02*
X257714283Y-55384178D01*
X257714283Y-55384178D02*
X257642855Y-56098464D01*
X257642855Y-56098464D02*
X257714283Y-56027035D01*
X257714283Y-56027035D02*
X257857141Y-55955607D01*
X257857141Y-55955607D02*
X258214283Y-55955607D01*
X258214283Y-55955607D02*
X258357141Y-56027035D01*
X258357141Y-56027035D02*
X258428569Y-56098464D01*
X258428569Y-56098464D02*
X258499998Y-56241321D01*
X258499998Y-56241321D02*
X258499998Y-56598464D01*
X258499998Y-56598464D02*
X258428569Y-56741321D01*
X258428569Y-56741321D02*
X258357141Y-56812750D01*
X258357141Y-56812750D02*
X258214283Y-56884178D01*
X258214283Y-56884178D02*
X257857141Y-56884178D01*
X257857141Y-56884178D02*
X257714283Y-56812750D01*
X257714283Y-56812750D02*
X257642855Y-56741321D01*
D15*
X257884904Y-43616921D02*
X257520837Y-43616921D01*
X257520837Y-44189026D02*
X257520837Y-43096826D01*
X257520837Y-43096826D02*
X258040932Y-43096826D01*
X258457008Y-43772950D02*
X259289161Y-43772950D01*
D12*
X261495389Y-69561593D02*
X261207523Y-69150355D01*
X261001904Y-69561593D02*
X261001904Y-68697993D01*
X261001904Y-68697993D02*
X261330894Y-68697993D01*
X261330894Y-68697993D02*
X261413142Y-68739117D01*
X261413142Y-68739117D02*
X261454265Y-68780241D01*
X261454265Y-68780241D02*
X261495389Y-68862489D01*
X261495389Y-68862489D02*
X261495389Y-68985860D01*
X261495389Y-68985860D02*
X261454265Y-69068108D01*
X261454265Y-69068108D02*
X261413142Y-69109231D01*
X261413142Y-69109231D02*
X261330894Y-69150355D01*
X261330894Y-69150355D02*
X261001904Y-69150355D01*
X261865504Y-69561593D02*
X261865504Y-68697993D01*
X261865504Y-68697993D02*
X262071123Y-68697993D01*
X262071123Y-68697993D02*
X262194494Y-68739117D01*
X262194494Y-68739117D02*
X262276742Y-68821365D01*
X262276742Y-68821365D02*
X262317865Y-68903612D01*
X262317865Y-68903612D02*
X262358989Y-69068108D01*
X262358989Y-69068108D02*
X262358989Y-69191479D01*
X262358989Y-69191479D02*
X262317865Y-69355974D01*
X262317865Y-69355974D02*
X262276742Y-69438222D01*
X262276742Y-69438222D02*
X262194494Y-69520470D01*
X262194494Y-69520470D02*
X262071123Y-69561593D01*
X262071123Y-69561593D02*
X261865504Y-69561593D01*
X262893599Y-69150355D02*
X262893599Y-69561593D01*
X262605732Y-68697993D02*
X262893599Y-69150355D01*
X262893599Y-69150355D02*
X263181465Y-68697993D01*
D13*
X253427808Y-44216821D02*
X253136555Y-43800745D01*
X252928517Y-44216821D02*
X252928517Y-43343061D01*
X252928517Y-43343061D02*
X253261378Y-43343061D01*
X253261378Y-43343061D02*
X253344593Y-43384669D01*
X253344593Y-43384669D02*
X253386200Y-43426276D01*
X253386200Y-43426276D02*
X253427808Y-43509492D01*
X253427808Y-43509492D02*
X253427808Y-43634314D01*
X253427808Y-43634314D02*
X253386200Y-43717530D01*
X253386200Y-43717530D02*
X253344593Y-43759137D01*
X253344593Y-43759137D02*
X253261378Y-43800745D01*
X253261378Y-43800745D02*
X252928517Y-43800745D01*
X253677454Y-43343061D02*
X254176745Y-43343061D01*
X253927099Y-44216821D02*
X253927099Y-43343061D01*
X254467999Y-44216821D02*
X254467999Y-43343061D01*
X254467999Y-43343061D02*
X254676037Y-43343061D01*
X254676037Y-43343061D02*
X254800860Y-43384669D01*
X254800860Y-43384669D02*
X254884075Y-43467884D01*
X254884075Y-43467884D02*
X254925682Y-43551099D01*
X254925682Y-43551099D02*
X254967290Y-43717530D01*
X254967290Y-43717530D02*
X254967290Y-43842353D01*
X254967290Y-43842353D02*
X254925682Y-44008783D01*
X254925682Y-44008783D02*
X254884075Y-44091998D01*
X254884075Y-44091998D02*
X254800860Y-44175214D01*
X254800860Y-44175214D02*
X254676037Y-44216821D01*
X254676037Y-44216821D02*
X254467999Y-44216821D01*
X255341759Y-43883960D02*
X256007481Y-43883960D01*
D10*
X194773811Y-58787419D02*
X194773811Y-57787419D01*
X195821429Y-58692180D02*
X195773810Y-58739800D01*
X195773810Y-58739800D02*
X195630953Y-58787419D01*
X195630953Y-58787419D02*
X195535715Y-58787419D01*
X195535715Y-58787419D02*
X195392858Y-58739800D01*
X195392858Y-58739800D02*
X195297620Y-58644561D01*
X195297620Y-58644561D02*
X195250001Y-58549323D01*
X195250001Y-58549323D02*
X195202382Y-58358847D01*
X195202382Y-58358847D02*
X195202382Y-58215990D01*
X195202382Y-58215990D02*
X195250001Y-58025514D01*
X195250001Y-58025514D02*
X195297620Y-57930276D01*
X195297620Y-57930276D02*
X195392858Y-57835038D01*
X195392858Y-57835038D02*
X195535715Y-57787419D01*
X195535715Y-57787419D02*
X195630953Y-57787419D01*
X195630953Y-57787419D02*
X195773810Y-57835038D01*
X195773810Y-57835038D02*
X195821429Y-57882657D01*
X196678572Y-57787419D02*
X196488096Y-57787419D01*
X196488096Y-57787419D02*
X196392858Y-57835038D01*
X196392858Y-57835038D02*
X196345239Y-57882657D01*
X196345239Y-57882657D02*
X196250001Y-58025514D01*
X196250001Y-58025514D02*
X196202382Y-58215990D01*
X196202382Y-58215990D02*
X196202382Y-58596942D01*
X196202382Y-58596942D02*
X196250001Y-58692180D01*
X196250001Y-58692180D02*
X196297620Y-58739800D01*
X196297620Y-58739800D02*
X196392858Y-58787419D01*
X196392858Y-58787419D02*
X196583334Y-58787419D01*
X196583334Y-58787419D02*
X196678572Y-58739800D01*
X196678572Y-58739800D02*
X196726191Y-58692180D01*
X196726191Y-58692180D02*
X196773810Y-58596942D01*
X196773810Y-58596942D02*
X196773810Y-58358847D01*
X196773810Y-58358847D02*
X196726191Y-58263609D01*
X196726191Y-58263609D02*
X196678572Y-58215990D01*
X196678572Y-58215990D02*
X196583334Y-58168371D01*
X196583334Y-58168371D02*
X196392858Y-58168371D01*
X196392858Y-58168371D02*
X196297620Y-58215990D01*
X196297620Y-58215990D02*
X196250001Y-58263609D01*
X196250001Y-58263609D02*
X196202382Y-58358847D01*
D12*
X198561839Y-69520470D02*
X198685210Y-69561593D01*
X198685210Y-69561593D02*
X198890829Y-69561593D01*
X198890829Y-69561593D02*
X198973077Y-69520470D01*
X198973077Y-69520470D02*
X199014201Y-69479346D01*
X199014201Y-69479346D02*
X199055324Y-69397098D01*
X199055324Y-69397098D02*
X199055324Y-69314850D01*
X199055324Y-69314850D02*
X199014201Y-69232603D01*
X199014201Y-69232603D02*
X198973077Y-69191479D01*
X198973077Y-69191479D02*
X198890829Y-69150355D01*
X198890829Y-69150355D02*
X198726334Y-69109231D01*
X198726334Y-69109231D02*
X198644086Y-69068108D01*
X198644086Y-69068108D02*
X198602963Y-69026984D01*
X198602963Y-69026984D02*
X198561839Y-68944736D01*
X198561839Y-68944736D02*
X198561839Y-68862489D01*
X198561839Y-68862489D02*
X198602963Y-68780241D01*
X198602963Y-68780241D02*
X198644086Y-68739117D01*
X198644086Y-68739117D02*
X198726334Y-68697993D01*
X198726334Y-68697993D02*
X198931953Y-68697993D01*
X198931953Y-68697993D02*
X199055324Y-68739117D01*
X199425439Y-69561593D02*
X199425439Y-68697993D01*
X199425439Y-68697993D02*
X199631058Y-68697993D01*
X199631058Y-68697993D02*
X199754429Y-68739117D01*
X199754429Y-68739117D02*
X199836677Y-68821365D01*
X199836677Y-68821365D02*
X199877800Y-68903612D01*
X199877800Y-68903612D02*
X199918924Y-69068108D01*
X199918924Y-69068108D02*
X199918924Y-69191479D01*
X199918924Y-69191479D02*
X199877800Y-69355974D01*
X199877800Y-69355974D02*
X199836677Y-69438222D01*
X199836677Y-69438222D02*
X199754429Y-69520470D01*
X199754429Y-69520470D02*
X199631058Y-69561593D01*
X199631058Y-69561593D02*
X199425439Y-69561593D01*
X200289039Y-69561593D02*
X200289039Y-68697993D01*
X188755019Y-68739117D02*
X188672772Y-68697993D01*
X188672772Y-68697993D02*
X188549400Y-68697993D01*
X188549400Y-68697993D02*
X188426029Y-68739117D01*
X188426029Y-68739117D02*
X188343781Y-68821365D01*
X188343781Y-68821365D02*
X188302658Y-68903612D01*
X188302658Y-68903612D02*
X188261534Y-69068108D01*
X188261534Y-69068108D02*
X188261534Y-69191479D01*
X188261534Y-69191479D02*
X188302658Y-69355974D01*
X188302658Y-69355974D02*
X188343781Y-69438222D01*
X188343781Y-69438222D02*
X188426029Y-69520470D01*
X188426029Y-69520470D02*
X188549400Y-69561593D01*
X188549400Y-69561593D02*
X188631648Y-69561593D01*
X188631648Y-69561593D02*
X188755019Y-69520470D01*
X188755019Y-69520470D02*
X188796143Y-69479346D01*
X188796143Y-69479346D02*
X188796143Y-69191479D01*
X188796143Y-69191479D02*
X188631648Y-69191479D01*
X189166258Y-69561593D02*
X189166258Y-68697993D01*
X189166258Y-68697993D02*
X189659743Y-69561593D01*
X189659743Y-69561593D02*
X189659743Y-68697993D01*
X190070982Y-69561593D02*
X190070982Y-68697993D01*
X190070982Y-68697993D02*
X190276601Y-68697993D01*
X190276601Y-68697993D02*
X190399972Y-68739117D01*
X190399972Y-68739117D02*
X190482220Y-68821365D01*
X190482220Y-68821365D02*
X190523343Y-68903612D01*
X190523343Y-68903612D02*
X190564467Y-69068108D01*
X190564467Y-69068108D02*
X190564467Y-69191479D01*
X190564467Y-69191479D02*
X190523343Y-69355974D01*
X190523343Y-69355974D02*
X190482220Y-69438222D01*
X190482220Y-69438222D02*
X190399972Y-69520470D01*
X190399972Y-69520470D02*
X190276601Y-69561593D01*
X190276601Y-69561593D02*
X190070982Y-69561593D01*
X185800153Y-65395993D02*
X186088020Y-66259593D01*
X186088020Y-66259593D02*
X186375886Y-65395993D01*
X186663754Y-66259593D02*
X186663754Y-65395993D01*
X187074992Y-66259593D02*
X187074992Y-65395993D01*
X187074992Y-65395993D02*
X187568477Y-66259593D01*
X187568477Y-66259593D02*
X187568477Y-65395993D01*
X195775096Y-66218470D02*
X195898467Y-66259593D01*
X195898467Y-66259593D02*
X196104086Y-66259593D01*
X196104086Y-66259593D02*
X196186334Y-66218470D01*
X196186334Y-66218470D02*
X196227458Y-66177346D01*
X196227458Y-66177346D02*
X196268581Y-66095098D01*
X196268581Y-66095098D02*
X196268581Y-66012850D01*
X196268581Y-66012850D02*
X196227458Y-65930603D01*
X196227458Y-65930603D02*
X196186334Y-65889479D01*
X196186334Y-65889479D02*
X196104086Y-65848355D01*
X196104086Y-65848355D02*
X195939591Y-65807231D01*
X195939591Y-65807231D02*
X195857343Y-65766108D01*
X195857343Y-65766108D02*
X195816220Y-65724984D01*
X195816220Y-65724984D02*
X195775096Y-65642736D01*
X195775096Y-65642736D02*
X195775096Y-65560489D01*
X195775096Y-65560489D02*
X195816220Y-65478241D01*
X195816220Y-65478241D02*
X195857343Y-65437117D01*
X195857343Y-65437117D02*
X195939591Y-65395993D01*
X195939591Y-65395993D02*
X196145210Y-65395993D01*
X196145210Y-65395993D02*
X196268581Y-65437117D01*
X196638696Y-66259593D02*
X196638696Y-65395993D01*
X196638696Y-65395993D02*
X196844315Y-65395993D01*
X196844315Y-65395993D02*
X196967686Y-65437117D01*
X196967686Y-65437117D02*
X197049934Y-65519365D01*
X197049934Y-65519365D02*
X197091057Y-65601612D01*
X197091057Y-65601612D02*
X197132181Y-65766108D01*
X197132181Y-65766108D02*
X197132181Y-65889479D01*
X197132181Y-65889479D02*
X197091057Y-66053974D01*
X197091057Y-66053974D02*
X197049934Y-66136222D01*
X197049934Y-66136222D02*
X196967686Y-66218470D01*
X196967686Y-66218470D02*
X196844315Y-66259593D01*
X196844315Y-66259593D02*
X196638696Y-66259593D01*
X197666791Y-65395993D02*
X197831286Y-65395993D01*
X197831286Y-65395993D02*
X197913534Y-65437117D01*
X197913534Y-65437117D02*
X197995781Y-65519365D01*
X197995781Y-65519365D02*
X198036905Y-65683860D01*
X198036905Y-65683860D02*
X198036905Y-65971727D01*
X198036905Y-65971727D02*
X197995781Y-66136222D01*
X197995781Y-66136222D02*
X197913534Y-66218470D01*
X197913534Y-66218470D02*
X197831286Y-66259593D01*
X197831286Y-66259593D02*
X197666791Y-66259593D01*
X197666791Y-66259593D02*
X197584543Y-66218470D01*
X197584543Y-66218470D02*
X197502296Y-66136222D01*
X197502296Y-66136222D02*
X197461172Y-65971727D01*
X197461172Y-65971727D02*
X197461172Y-65683860D01*
X197461172Y-65683860D02*
X197502296Y-65519365D01*
X197502296Y-65519365D02*
X197584543Y-65437117D01*
X197584543Y-65437117D02*
X197666791Y-65395993D01*
D13*
X193029810Y-44156821D02*
X192738557Y-43740745D01*
X192530519Y-44156821D02*
X192530519Y-43283061D01*
X192530519Y-43283061D02*
X192863380Y-43283061D01*
X192863380Y-43283061D02*
X192946595Y-43324669D01*
X192946595Y-43324669D02*
X192988202Y-43366276D01*
X192988202Y-43366276D02*
X193029810Y-43449492D01*
X193029810Y-43449492D02*
X193029810Y-43574314D01*
X193029810Y-43574314D02*
X192988202Y-43657530D01*
X192988202Y-43657530D02*
X192946595Y-43699137D01*
X192946595Y-43699137D02*
X192863380Y-43740745D01*
X192863380Y-43740745D02*
X192530519Y-43740745D01*
X193279456Y-43283061D02*
X193778747Y-43283061D01*
X193529101Y-44156821D02*
X193529101Y-43283061D01*
X194070001Y-44156821D02*
X194070001Y-43283061D01*
X194070001Y-43283061D02*
X194278039Y-43283061D01*
X194278039Y-43283061D02*
X194402862Y-43324669D01*
X194402862Y-43324669D02*
X194486077Y-43407884D01*
X194486077Y-43407884D02*
X194527684Y-43491099D01*
X194527684Y-43491099D02*
X194569292Y-43657530D01*
X194569292Y-43657530D02*
X194569292Y-43782353D01*
X194569292Y-43782353D02*
X194527684Y-43948783D01*
X194527684Y-43948783D02*
X194486077Y-44031998D01*
X194486077Y-44031998D02*
X194402862Y-44115214D01*
X194402862Y-44115214D02*
X194278039Y-44156821D01*
X194278039Y-44156821D02*
X194070001Y-44156821D01*
X194943761Y-43823960D02*
X195609483Y-43823960D01*
X195276622Y-44156821D02*
X195276622Y-43491099D01*
D11*
X190321430Y-56884178D02*
X190321430Y-55384178D01*
X190321430Y-55384178D02*
X190821430Y-56455607D01*
X190821430Y-56455607D02*
X191321430Y-55384178D01*
X191321430Y-55384178D02*
X191321430Y-56884178D01*
X191964288Y-56455607D02*
X192678574Y-56455607D01*
X191821431Y-56884178D02*
X192321431Y-55384178D01*
X192321431Y-55384178D02*
X192821431Y-56884178D01*
X193178573Y-55384178D02*
X194178573Y-56884178D01*
X194178573Y-55384178D02*
X193178573Y-56884178D01*
X194607144Y-55384178D02*
X195535716Y-55384178D01*
X195535716Y-55384178D02*
X195035716Y-55955607D01*
X195035716Y-55955607D02*
X195250001Y-55955607D01*
X195250001Y-55955607D02*
X195392859Y-56027035D01*
X195392859Y-56027035D02*
X195464287Y-56098464D01*
X195464287Y-56098464D02*
X195535716Y-56241321D01*
X195535716Y-56241321D02*
X195535716Y-56598464D01*
X195535716Y-56598464D02*
X195464287Y-56741321D01*
X195464287Y-56741321D02*
X195392859Y-56812750D01*
X195392859Y-56812750D02*
X195250001Y-56884178D01*
X195250001Y-56884178D02*
X194821430Y-56884178D01*
X194821430Y-56884178D02*
X194678573Y-56812750D01*
X194678573Y-56812750D02*
X194607144Y-56741321D01*
X196964287Y-56884178D02*
X196107144Y-56884178D01*
X196535715Y-56884178D02*
X196535715Y-55384178D01*
X196535715Y-55384178D02*
X196392858Y-55598464D01*
X196392858Y-55598464D02*
X196250001Y-55741321D01*
X196250001Y-55741321D02*
X196107144Y-55812750D01*
X197821429Y-56027035D02*
X197678572Y-55955607D01*
X197678572Y-55955607D02*
X197607143Y-55884178D01*
X197607143Y-55884178D02*
X197535715Y-55741321D01*
X197535715Y-55741321D02*
X197535715Y-55669892D01*
X197535715Y-55669892D02*
X197607143Y-55527035D01*
X197607143Y-55527035D02*
X197678572Y-55455607D01*
X197678572Y-55455607D02*
X197821429Y-55384178D01*
X197821429Y-55384178D02*
X198107143Y-55384178D01*
X198107143Y-55384178D02*
X198250001Y-55455607D01*
X198250001Y-55455607D02*
X198321429Y-55527035D01*
X198321429Y-55527035D02*
X198392858Y-55669892D01*
X198392858Y-55669892D02*
X198392858Y-55741321D01*
X198392858Y-55741321D02*
X198321429Y-55884178D01*
X198321429Y-55884178D02*
X198250001Y-55955607D01*
X198250001Y-55955607D02*
X198107143Y-56027035D01*
X198107143Y-56027035D02*
X197821429Y-56027035D01*
X197821429Y-56027035D02*
X197678572Y-56098464D01*
X197678572Y-56098464D02*
X197607143Y-56169892D01*
X197607143Y-56169892D02*
X197535715Y-56312750D01*
X197535715Y-56312750D02*
X197535715Y-56598464D01*
X197535715Y-56598464D02*
X197607143Y-56741321D01*
X197607143Y-56741321D02*
X197678572Y-56812750D01*
X197678572Y-56812750D02*
X197821429Y-56884178D01*
X197821429Y-56884178D02*
X198107143Y-56884178D01*
X198107143Y-56884178D02*
X198250001Y-56812750D01*
X198250001Y-56812750D02*
X198321429Y-56741321D01*
X198321429Y-56741321D02*
X198392858Y-56598464D01*
X198392858Y-56598464D02*
X198392858Y-56312750D01*
X198392858Y-56312750D02*
X198321429Y-56169892D01*
X198321429Y-56169892D02*
X198250001Y-56098464D01*
X198250001Y-56098464D02*
X198107143Y-56027035D01*
X199678572Y-55384178D02*
X199392857Y-55384178D01*
X199392857Y-55384178D02*
X199250000Y-55455607D01*
X199250000Y-55455607D02*
X199178572Y-55527035D01*
X199178572Y-55527035D02*
X199035714Y-55741321D01*
X199035714Y-55741321D02*
X198964286Y-56027035D01*
X198964286Y-56027035D02*
X198964286Y-56598464D01*
X198964286Y-56598464D02*
X199035714Y-56741321D01*
X199035714Y-56741321D02*
X199107143Y-56812750D01*
X199107143Y-56812750D02*
X199250000Y-56884178D01*
X199250000Y-56884178D02*
X199535714Y-56884178D01*
X199535714Y-56884178D02*
X199678572Y-56812750D01*
X199678572Y-56812750D02*
X199750000Y-56741321D01*
X199750000Y-56741321D02*
X199821429Y-56598464D01*
X199821429Y-56598464D02*
X199821429Y-56241321D01*
X199821429Y-56241321D02*
X199750000Y-56098464D01*
X199750000Y-56098464D02*
X199678572Y-56027035D01*
X199678572Y-56027035D02*
X199535714Y-55955607D01*
X199535714Y-55955607D02*
X199250000Y-55955607D01*
X199250000Y-55955607D02*
X199107143Y-56027035D01*
X199107143Y-56027035D02*
X199035714Y-56098464D01*
X199035714Y-56098464D02*
X198964286Y-56241321D01*
X201178571Y-55384178D02*
X200464285Y-55384178D01*
X200464285Y-55384178D02*
X200392857Y-56098464D01*
X200392857Y-56098464D02*
X200464285Y-56027035D01*
X200464285Y-56027035D02*
X200607143Y-55955607D01*
X200607143Y-55955607D02*
X200964285Y-55955607D01*
X200964285Y-55955607D02*
X201107143Y-56027035D01*
X201107143Y-56027035D02*
X201178571Y-56098464D01*
X201178571Y-56098464D02*
X201250000Y-56241321D01*
X201250000Y-56241321D02*
X201250000Y-56598464D01*
X201250000Y-56598464D02*
X201178571Y-56741321D01*
X201178571Y-56741321D02*
X201107143Y-56812750D01*
X201107143Y-56812750D02*
X200964285Y-56884178D01*
X200964285Y-56884178D02*
X200607143Y-56884178D01*
X200607143Y-56884178D02*
X200464285Y-56812750D01*
X200464285Y-56812750D02*
X200392857Y-56741321D01*
D12*
X201842067Y-66177346D02*
X201800943Y-66218470D01*
X201800943Y-66218470D02*
X201677572Y-66259593D01*
X201677572Y-66259593D02*
X201595324Y-66259593D01*
X201595324Y-66259593D02*
X201471953Y-66218470D01*
X201471953Y-66218470D02*
X201389705Y-66136222D01*
X201389705Y-66136222D02*
X201348582Y-66053974D01*
X201348582Y-66053974D02*
X201307458Y-65889479D01*
X201307458Y-65889479D02*
X201307458Y-65766108D01*
X201307458Y-65766108D02*
X201348582Y-65601612D01*
X201348582Y-65601612D02*
X201389705Y-65519365D01*
X201389705Y-65519365D02*
X201471953Y-65437117D01*
X201471953Y-65437117D02*
X201595324Y-65395993D01*
X201595324Y-65395993D02*
X201677572Y-65395993D01*
X201677572Y-65395993D02*
X201800943Y-65437117D01*
X201800943Y-65437117D02*
X201842067Y-65478241D01*
X202171058Y-66218470D02*
X202294429Y-66259593D01*
X202294429Y-66259593D02*
X202500048Y-66259593D01*
X202500048Y-66259593D02*
X202582296Y-66218470D01*
X202582296Y-66218470D02*
X202623420Y-66177346D01*
X202623420Y-66177346D02*
X202664543Y-66095098D01*
X202664543Y-66095098D02*
X202664543Y-66012850D01*
X202664543Y-66012850D02*
X202623420Y-65930603D01*
X202623420Y-65930603D02*
X202582296Y-65889479D01*
X202582296Y-65889479D02*
X202500048Y-65848355D01*
X202500048Y-65848355D02*
X202335553Y-65807231D01*
X202335553Y-65807231D02*
X202253305Y-65766108D01*
X202253305Y-65766108D02*
X202212182Y-65724984D01*
X202212182Y-65724984D02*
X202171058Y-65642736D01*
X202171058Y-65642736D02*
X202171058Y-65560489D01*
X202171058Y-65560489D02*
X202212182Y-65478241D01*
X202212182Y-65478241D02*
X202253305Y-65437117D01*
X202253305Y-65437117D02*
X202335553Y-65395993D01*
X202335553Y-65395993D02*
X202541172Y-65395993D01*
X202541172Y-65395993D02*
X202664543Y-65437117D01*
D13*
X190243925Y-43699137D02*
X189952672Y-43699137D01*
X189952672Y-44156821D02*
X189952672Y-43283061D01*
X189952672Y-43283061D02*
X190368748Y-43283061D01*
X190701609Y-43823960D02*
X191367331Y-43823960D01*
X191034470Y-44156821D02*
X191034470Y-43491099D01*
X196979810Y-44156821D02*
X196688557Y-43740745D01*
X196480519Y-44156821D02*
X196480519Y-43283061D01*
X196480519Y-43283061D02*
X196813380Y-43283061D01*
X196813380Y-43283061D02*
X196896595Y-43324669D01*
X196896595Y-43324669D02*
X196938202Y-43366276D01*
X196938202Y-43366276D02*
X196979810Y-43449492D01*
X196979810Y-43449492D02*
X196979810Y-43574314D01*
X196979810Y-43574314D02*
X196938202Y-43657530D01*
X196938202Y-43657530D02*
X196896595Y-43699137D01*
X196896595Y-43699137D02*
X196813380Y-43740745D01*
X196813380Y-43740745D02*
X196480519Y-43740745D01*
X197229456Y-43283061D02*
X197728747Y-43283061D01*
X197479101Y-44156821D02*
X197479101Y-43283061D01*
X198020001Y-44156821D02*
X198020001Y-43283061D01*
X198020001Y-43283061D02*
X198228039Y-43283061D01*
X198228039Y-43283061D02*
X198352862Y-43324669D01*
X198352862Y-43324669D02*
X198436077Y-43407884D01*
X198436077Y-43407884D02*
X198477684Y-43491099D01*
X198477684Y-43491099D02*
X198519292Y-43657530D01*
X198519292Y-43657530D02*
X198519292Y-43782353D01*
X198519292Y-43782353D02*
X198477684Y-43948783D01*
X198477684Y-43948783D02*
X198436077Y-44031998D01*
X198436077Y-44031998D02*
X198352862Y-44115214D01*
X198352862Y-44115214D02*
X198228039Y-44156821D01*
X198228039Y-44156821D02*
X198020001Y-44156821D01*
X198893761Y-43823960D02*
X199559483Y-43823960D01*
D12*
X204245391Y-69561593D02*
X203957525Y-69150355D01*
X203751906Y-69561593D02*
X203751906Y-68697993D01*
X203751906Y-68697993D02*
X204080896Y-68697993D01*
X204080896Y-68697993D02*
X204163144Y-68739117D01*
X204163144Y-68739117D02*
X204204267Y-68780241D01*
X204204267Y-68780241D02*
X204245391Y-68862489D01*
X204245391Y-68862489D02*
X204245391Y-68985860D01*
X204245391Y-68985860D02*
X204204267Y-69068108D01*
X204204267Y-69068108D02*
X204163144Y-69109231D01*
X204163144Y-69109231D02*
X204080896Y-69150355D01*
X204080896Y-69150355D02*
X203751906Y-69150355D01*
X204615506Y-69561593D02*
X204615506Y-68697993D01*
X204615506Y-68697993D02*
X204821125Y-68697993D01*
X204821125Y-68697993D02*
X204944496Y-68739117D01*
X204944496Y-68739117D02*
X205026744Y-68821365D01*
X205026744Y-68821365D02*
X205067867Y-68903612D01*
X205067867Y-68903612D02*
X205108991Y-69068108D01*
X205108991Y-69068108D02*
X205108991Y-69191479D01*
X205108991Y-69191479D02*
X205067867Y-69355974D01*
X205067867Y-69355974D02*
X205026744Y-69438222D01*
X205026744Y-69438222D02*
X204944496Y-69520470D01*
X204944496Y-69520470D02*
X204821125Y-69561593D01*
X204821125Y-69561593D02*
X204615506Y-69561593D01*
X205643601Y-69150355D02*
X205643601Y-69561593D01*
X205355734Y-68697993D02*
X205643601Y-69150355D01*
X205643601Y-69150355D02*
X205931467Y-68697993D01*
X190756782Y-65395993D02*
X191291391Y-65395993D01*
X191291391Y-65395993D02*
X191003525Y-65724984D01*
X191003525Y-65724984D02*
X191126896Y-65724984D01*
X191126896Y-65724984D02*
X191209144Y-65766108D01*
X191209144Y-65766108D02*
X191250268Y-65807231D01*
X191250268Y-65807231D02*
X191291391Y-65889479D01*
X191291391Y-65889479D02*
X191291391Y-66095098D01*
X191291391Y-66095098D02*
X191250268Y-66177346D01*
X191250268Y-66177346D02*
X191209144Y-66218470D01*
X191209144Y-66218470D02*
X191126896Y-66259593D01*
X191126896Y-66259593D02*
X190880153Y-66259593D01*
X190880153Y-66259593D02*
X190797906Y-66218470D01*
X190797906Y-66218470D02*
X190756782Y-66177346D01*
X191538134Y-65395993D02*
X191826001Y-66259593D01*
X191826001Y-66259593D02*
X192113867Y-65395993D01*
X192319487Y-65395993D02*
X192854096Y-65395993D01*
X192854096Y-65395993D02*
X192566230Y-65724984D01*
X192566230Y-65724984D02*
X192689601Y-65724984D01*
X192689601Y-65724984D02*
X192771849Y-65766108D01*
X192771849Y-65766108D02*
X192812973Y-65807231D01*
X192812973Y-65807231D02*
X192854096Y-65889479D01*
X192854096Y-65889479D02*
X192854096Y-66095098D01*
X192854096Y-66095098D02*
X192812973Y-66177346D01*
X192812973Y-66177346D02*
X192771849Y-66218470D01*
X192771849Y-66218470D02*
X192689601Y-66259593D01*
X192689601Y-66259593D02*
X192442858Y-66259593D01*
X192442858Y-66259593D02*
X192360611Y-66218470D01*
X192360611Y-66218470D02*
X192319487Y-66177346D01*
X193978953Y-69479346D02*
X193937829Y-69520470D01*
X193937829Y-69520470D02*
X193814458Y-69561593D01*
X193814458Y-69561593D02*
X193732210Y-69561593D01*
X193732210Y-69561593D02*
X193608839Y-69520470D01*
X193608839Y-69520470D02*
X193526591Y-69438222D01*
X193526591Y-69438222D02*
X193485468Y-69355974D01*
X193485468Y-69355974D02*
X193444344Y-69191479D01*
X193444344Y-69191479D02*
X193444344Y-69068108D01*
X193444344Y-69068108D02*
X193485468Y-68903612D01*
X193485468Y-68903612D02*
X193526591Y-68821365D01*
X193526591Y-68821365D02*
X193608839Y-68739117D01*
X193608839Y-68739117D02*
X193732210Y-68697993D01*
X193732210Y-68697993D02*
X193814458Y-68697993D01*
X193814458Y-68697993D02*
X193937829Y-68739117D01*
X193937829Y-68739117D02*
X193978953Y-68780241D01*
X194760306Y-69561593D02*
X194349068Y-69561593D01*
X194349068Y-69561593D02*
X194349068Y-68697993D01*
X195048173Y-69561593D02*
X195048173Y-68697993D01*
X195541658Y-69561593D02*
X195171544Y-69068108D01*
X195541658Y-68697993D02*
X195048173Y-69191479D01*
D13*
X200583925Y-43699137D02*
X200292672Y-43699137D01*
X200292672Y-44156821D02*
X200292672Y-43283061D01*
X200292672Y-43283061D02*
X200708748Y-43283061D01*
X201041609Y-43823960D02*
X201707331Y-43823960D01*
D14*
X170533333Y-74834580D02*
X170485714Y-74882200D01*
X170485714Y-74882200D02*
X170342857Y-74929819D01*
X170342857Y-74929819D02*
X170247619Y-74929819D01*
X170247619Y-74929819D02*
X170104762Y-74882200D01*
X170104762Y-74882200D02*
X170009524Y-74786961D01*
X170009524Y-74786961D02*
X169961905Y-74691723D01*
X169961905Y-74691723D02*
X169914286Y-74501247D01*
X169914286Y-74501247D02*
X169914286Y-74358390D01*
X169914286Y-74358390D02*
X169961905Y-74167914D01*
X169961905Y-74167914D02*
X170009524Y-74072676D01*
X170009524Y-74072676D02*
X170104762Y-73977438D01*
X170104762Y-73977438D02*
X170247619Y-73929819D01*
X170247619Y-73929819D02*
X170342857Y-73929819D01*
X170342857Y-73929819D02*
X170485714Y-73977438D01*
X170485714Y-73977438D02*
X170533333Y-74025057D01*
X170914286Y-74025057D02*
X170961905Y-73977438D01*
X170961905Y-73977438D02*
X171057143Y-73929819D01*
X171057143Y-73929819D02*
X171295238Y-73929819D01*
X171295238Y-73929819D02*
X171390476Y-73977438D01*
X171390476Y-73977438D02*
X171438095Y-74025057D01*
X171438095Y-74025057D02*
X171485714Y-74120295D01*
X171485714Y-74120295D02*
X171485714Y-74215533D01*
X171485714Y-74215533D02*
X171438095Y-74358390D01*
X171438095Y-74358390D02*
X170866667Y-74929819D01*
X170866667Y-74929819D02*
X171485714Y-74929819D01*
D10*
%TO.C,IC4*%
X125390001Y-44770000D02*
X125390001Y-67630000D01*
X128040001Y-42120000D02*
X148360001Y-42120000D01*
X148360001Y-70280000D02*
X128040001Y-70280000D01*
X151010001Y-67630000D02*
X151010001Y-44770000D01*
X125390001Y-44770000D02*
G75*
G02*
X128040001Y-42120000I2650000J0D01*
G01*
X128040001Y-70280000D02*
G75*
G02*
X125390001Y-67630000I0J2650000D01*
G01*
X148360001Y-42120000D02*
G75*
G02*
X151010001Y-44770000I0J-2650000D01*
G01*
X151010001Y-67630000D02*
G75*
G02*
X148360001Y-70280000I-2650000J0D01*
G01*
X129700001Y-44770000D02*
G75*
G02*
X126380001Y-44770000I-1660000J0D01*
G01*
X126380001Y-44770000D02*
G75*
G02*
X129700001Y-44770000I1660000J0D01*
G01*
X150020121Y-44770000D02*
G75*
G02*
X146699881Y-44770000I-1660120J0D01*
G01*
X146699881Y-44770000D02*
G75*
G02*
X150020121Y-44770000I1660120J0D01*
G01*
D16*
%TO.C,J8*%
X241730000Y-28120000D02*
X241730000Y-40340000D01*
X241730000Y-29620000D02*
X264270000Y-29620000D01*
X241730000Y-31420000D02*
X241730000Y-29620000D01*
X241730000Y-40340000D02*
X264270000Y-40340000D01*
X244380000Y-28120000D02*
X244630000Y-29620000D01*
X244630000Y-29620000D02*
X246130000Y-29620000D01*
X246130000Y-29620000D02*
X246380000Y-28120000D01*
X246380000Y-28120000D02*
X244380000Y-28120000D01*
X249460000Y-28120000D02*
X249710000Y-29620000D01*
X249710000Y-29620000D02*
X251210000Y-29620000D01*
X251210000Y-29620000D02*
X251460000Y-28120000D01*
X251460000Y-28120000D02*
X249460000Y-28120000D01*
X254540000Y-28120000D02*
X254790000Y-29620000D01*
X254790000Y-29620000D02*
X256290000Y-29620000D01*
X256290000Y-29620000D02*
X256540000Y-28120000D01*
X256540000Y-28120000D02*
X254540000Y-28120000D01*
X259620000Y-28120000D02*
X259870000Y-29620000D01*
X259870000Y-29620000D02*
X261370000Y-29620000D01*
X260320000Y-41140000D02*
X260620000Y-40540000D01*
X260620000Y-40540000D02*
X260920000Y-41140000D01*
X260920000Y-41140000D02*
X260320000Y-41140000D01*
X261370000Y-29620000D02*
X261620000Y-28120000D01*
X261620000Y-28120000D02*
X259620000Y-28120000D01*
X264270000Y-28120000D02*
X241730000Y-28120000D01*
X264270000Y-29620000D02*
X264270000Y-31420000D01*
X264270000Y-31420000D02*
X241730000Y-31420000D01*
X264270000Y-40340000D02*
X264270000Y-28120000D01*
%TO.C,J7*%
X213030000Y-28120000D02*
X213030000Y-40340000D01*
X213030000Y-29620000D02*
X235570000Y-29620000D01*
X213030000Y-31420000D02*
X213030000Y-29620000D01*
X213030000Y-40340000D02*
X235570000Y-40340000D01*
X215680000Y-28120000D02*
X215930000Y-29620000D01*
X215930000Y-29620000D02*
X217430000Y-29620000D01*
X217430000Y-29620000D02*
X217680000Y-28120000D01*
X217680000Y-28120000D02*
X215680000Y-28120000D01*
X220760000Y-28120000D02*
X221010000Y-29620000D01*
X221010000Y-29620000D02*
X222510000Y-29620000D01*
X222510000Y-29620000D02*
X222760000Y-28120000D01*
X222760000Y-28120000D02*
X220760000Y-28120000D01*
X225840000Y-28120000D02*
X226090000Y-29620000D01*
X226090000Y-29620000D02*
X227590000Y-29620000D01*
X227590000Y-29620000D02*
X227840000Y-28120000D01*
X227840000Y-28120000D02*
X225840000Y-28120000D01*
X230920000Y-28120000D02*
X231170000Y-29620000D01*
X231170000Y-29620000D02*
X232670000Y-29620000D01*
X231620000Y-41140000D02*
X231920000Y-40540000D01*
X231920000Y-40540000D02*
X232220000Y-41140000D01*
X232220000Y-41140000D02*
X231620000Y-41140000D01*
X232670000Y-29620000D02*
X232920000Y-28120000D01*
X232920000Y-28120000D02*
X230920000Y-28120000D01*
X235570000Y-28120000D02*
X213030000Y-28120000D01*
X235570000Y-29620000D02*
X235570000Y-31420000D01*
X235570000Y-31420000D02*
X213030000Y-31420000D01*
X235570000Y-40340000D02*
X235570000Y-28120000D01*
%TO.C,J6*%
X184330000Y-28120000D02*
X184330000Y-40340000D01*
X184330000Y-29620000D02*
X206870000Y-29620000D01*
X184330000Y-31420000D02*
X184330000Y-29620000D01*
X184330000Y-40340000D02*
X206870000Y-40340000D01*
X186980000Y-28120000D02*
X187230000Y-29620000D01*
X187230000Y-29620000D02*
X188730000Y-29620000D01*
X188730000Y-29620000D02*
X188980000Y-28120000D01*
X188980000Y-28120000D02*
X186980000Y-28120000D01*
X192060000Y-28120000D02*
X192310000Y-29620000D01*
X192310000Y-29620000D02*
X193810000Y-29620000D01*
X193810000Y-29620000D02*
X194060000Y-28120000D01*
X194060000Y-28120000D02*
X192060000Y-28120000D01*
X197140000Y-28120000D02*
X197390000Y-29620000D01*
X197390000Y-29620000D02*
X198890000Y-29620000D01*
X198890000Y-29620000D02*
X199140000Y-28120000D01*
X199140000Y-28120000D02*
X197140000Y-28120000D01*
X202220000Y-28120000D02*
X202470000Y-29620000D01*
X202470000Y-29620000D02*
X203970000Y-29620000D01*
X202920000Y-41140000D02*
X203220000Y-40540000D01*
X203220000Y-40540000D02*
X203520000Y-41140000D01*
X203520000Y-41140000D02*
X202920000Y-41140000D01*
X203970000Y-29620000D02*
X204220000Y-28120000D01*
X204220000Y-28120000D02*
X202220000Y-28120000D01*
X206870000Y-28120000D02*
X184330000Y-28120000D01*
X206870000Y-29620000D02*
X206870000Y-31420000D01*
X206870000Y-31420000D02*
X184330000Y-31420000D01*
X206870000Y-40340000D02*
X206870000Y-28120000D01*
%TO.C,J5*%
X155630000Y-28120000D02*
X155630000Y-40340000D01*
X155630000Y-29620000D02*
X178170000Y-29620000D01*
X155630000Y-31420000D02*
X155630000Y-29620000D01*
X155630000Y-40340000D02*
X178170000Y-40340000D01*
X158280000Y-28120000D02*
X158530000Y-29620000D01*
X158530000Y-29620000D02*
X160030000Y-29620000D01*
X160030000Y-29620000D02*
X160280000Y-28120000D01*
X160280000Y-28120000D02*
X158280000Y-28120000D01*
X163360000Y-28120000D02*
X163610000Y-29620000D01*
X163610000Y-29620000D02*
X165110000Y-29620000D01*
X165110000Y-29620000D02*
X165360000Y-28120000D01*
X165360000Y-28120000D02*
X163360000Y-28120000D01*
X168440000Y-28120000D02*
X168690000Y-29620000D01*
X168690000Y-29620000D02*
X170190000Y-29620000D01*
X170190000Y-29620000D02*
X170440000Y-28120000D01*
X170440000Y-28120000D02*
X168440000Y-28120000D01*
X173520000Y-28120000D02*
X173770000Y-29620000D01*
X173770000Y-29620000D02*
X175270000Y-29620000D01*
X174220000Y-41140000D02*
X174520000Y-40540000D01*
X174520000Y-40540000D02*
X174820000Y-41140000D01*
X174820000Y-41140000D02*
X174220000Y-41140000D01*
X175270000Y-29620000D02*
X175520000Y-28120000D01*
X175520000Y-28120000D02*
X173520000Y-28120000D01*
X178170000Y-28120000D02*
X155630000Y-28120000D01*
X178170000Y-29620000D02*
X178170000Y-31420000D01*
X178170000Y-31420000D02*
X155630000Y-31420000D01*
X178170000Y-40340000D02*
X178170000Y-28120000D01*
%TO.C,J4*%
X126930000Y-28120000D02*
X126930000Y-40340000D01*
X126930000Y-29620000D02*
X149470000Y-29620000D01*
X126930000Y-31420000D02*
X126930000Y-29620000D01*
X126930000Y-40340000D02*
X149470000Y-40340000D01*
X129580000Y-28120000D02*
X129830000Y-29620000D01*
X129830000Y-29620000D02*
X131330000Y-29620000D01*
X131330000Y-29620000D02*
X131580000Y-28120000D01*
X131580000Y-28120000D02*
X129580000Y-28120000D01*
X134660000Y-28120000D02*
X134910000Y-29620000D01*
X134910000Y-29620000D02*
X136410000Y-29620000D01*
X136410000Y-29620000D02*
X136660000Y-28120000D01*
X136660000Y-28120000D02*
X134660000Y-28120000D01*
X139740000Y-28120000D02*
X139990000Y-29620000D01*
X139990000Y-29620000D02*
X141490000Y-29620000D01*
X141490000Y-29620000D02*
X141740000Y-28120000D01*
X141740000Y-28120000D02*
X139740000Y-28120000D01*
X144820000Y-28120000D02*
X145070000Y-29620000D01*
X145070000Y-29620000D02*
X146570000Y-29620000D01*
X145520000Y-41140000D02*
X145820000Y-40540000D01*
X145820000Y-40540000D02*
X146120000Y-41140000D01*
X146120000Y-41140000D02*
X145520000Y-41140000D01*
X146570000Y-29620000D02*
X146820000Y-28120000D01*
X146820000Y-28120000D02*
X144820000Y-28120000D01*
X149470000Y-28120000D02*
X126930000Y-28120000D01*
X149470000Y-29620000D02*
X149470000Y-31420000D01*
X149470000Y-31420000D02*
X126930000Y-31420000D01*
X149470000Y-40340000D02*
X149470000Y-28120000D01*
%TO.C,J3*%
X98230000Y-28120000D02*
X98230000Y-40340000D01*
X98230000Y-29620000D02*
X120770000Y-29620000D01*
X98230000Y-31420000D02*
X98230000Y-29620000D01*
X98230000Y-40340000D02*
X120770000Y-40340000D01*
X100880000Y-28120000D02*
X101130000Y-29620000D01*
X101130000Y-29620000D02*
X102630000Y-29620000D01*
X102630000Y-29620000D02*
X102880000Y-28120000D01*
X102880000Y-28120000D02*
X100880000Y-28120000D01*
X105960000Y-28120000D02*
X106210000Y-29620000D01*
X106210000Y-29620000D02*
X107710000Y-29620000D01*
X107710000Y-29620000D02*
X107960000Y-28120000D01*
X107960000Y-28120000D02*
X105960000Y-28120000D01*
X111040000Y-28120000D02*
X111290000Y-29620000D01*
X111290000Y-29620000D02*
X112790000Y-29620000D01*
X112790000Y-29620000D02*
X113040000Y-28120000D01*
X113040000Y-28120000D02*
X111040000Y-28120000D01*
X116120000Y-28120000D02*
X116370000Y-29620000D01*
X116370000Y-29620000D02*
X117870000Y-29620000D01*
X116820000Y-41140000D02*
X117120000Y-40540000D01*
X117120000Y-40540000D02*
X117420000Y-41140000D01*
X117420000Y-41140000D02*
X116820000Y-41140000D01*
X117870000Y-29620000D02*
X118120000Y-28120000D01*
X118120000Y-28120000D02*
X116120000Y-28120000D01*
X120770000Y-28120000D02*
X98230000Y-28120000D01*
X120770000Y-29620000D02*
X120770000Y-31420000D01*
X120770000Y-31420000D02*
X98230000Y-31420000D01*
X120770000Y-40340000D02*
X120770000Y-28120000D01*
%TO.C,J2*%
X69530000Y-28120000D02*
X69530000Y-40340000D01*
X69530000Y-29620000D02*
X92070000Y-29620000D01*
X69530000Y-31420000D02*
X69530000Y-29620000D01*
X69530000Y-40340000D02*
X92070000Y-40340000D01*
X72180000Y-28120000D02*
X72430000Y-29620000D01*
X72430000Y-29620000D02*
X73930000Y-29620000D01*
X73930000Y-29620000D02*
X74180000Y-28120000D01*
X74180000Y-28120000D02*
X72180000Y-28120000D01*
X77260000Y-28120000D02*
X77510000Y-29620000D01*
X77510000Y-29620000D02*
X79010000Y-29620000D01*
X79010000Y-29620000D02*
X79260000Y-28120000D01*
X79260000Y-28120000D02*
X77260000Y-28120000D01*
X82340000Y-28120000D02*
X82590000Y-29620000D01*
X82590000Y-29620000D02*
X84090000Y-29620000D01*
X84090000Y-29620000D02*
X84340000Y-28120000D01*
X84340000Y-28120000D02*
X82340000Y-28120000D01*
X87420000Y-28120000D02*
X87670000Y-29620000D01*
X87670000Y-29620000D02*
X89170000Y-29620000D01*
X88120000Y-41140000D02*
X88420000Y-40540000D01*
X88420000Y-40540000D02*
X88720000Y-41140000D01*
X88720000Y-41140000D02*
X88120000Y-41140000D01*
X89170000Y-29620000D02*
X89420000Y-28120000D01*
X89420000Y-28120000D02*
X87420000Y-28120000D01*
X92070000Y-28120000D02*
X69530000Y-28120000D01*
X92070000Y-29620000D02*
X92070000Y-31420000D01*
X92070000Y-31420000D02*
X69530000Y-31420000D01*
X92070000Y-40340000D02*
X92070000Y-28120000D01*
%TO.C,J1*%
X40830000Y-28120000D02*
X40830000Y-40340000D01*
X40830000Y-29620000D02*
X63370000Y-29620000D01*
X40830000Y-31420000D02*
X40830000Y-29620000D01*
X40830000Y-40340000D02*
X63370000Y-40340000D01*
X43480000Y-28120000D02*
X43730000Y-29620000D01*
X43730000Y-29620000D02*
X45230000Y-29620000D01*
X45230000Y-29620000D02*
X45480000Y-28120000D01*
X45480000Y-28120000D02*
X43480000Y-28120000D01*
X48560000Y-28120000D02*
X48810000Y-29620000D01*
X48810000Y-29620000D02*
X50310000Y-29620000D01*
X50310000Y-29620000D02*
X50560000Y-28120000D01*
X50560000Y-28120000D02*
X48560000Y-28120000D01*
X53640000Y-28120000D02*
X53890000Y-29620000D01*
X53890000Y-29620000D02*
X55390000Y-29620000D01*
X55390000Y-29620000D02*
X55640000Y-28120000D01*
X55640000Y-28120000D02*
X53640000Y-28120000D01*
X58720000Y-28120000D02*
X58970000Y-29620000D01*
X58970000Y-29620000D02*
X60470000Y-29620000D01*
X59420000Y-41140000D02*
X59720000Y-40540000D01*
X59720000Y-40540000D02*
X60020000Y-41140000D01*
X60020000Y-41140000D02*
X59420000Y-41140000D01*
X60470000Y-29620000D02*
X60720000Y-28120000D01*
X60720000Y-28120000D02*
X58720000Y-28120000D01*
X63370000Y-28120000D02*
X40830000Y-28120000D01*
X63370000Y-29620000D02*
X63370000Y-31420000D01*
X63370000Y-31420000D02*
X40830000Y-31420000D01*
X63370000Y-40340000D02*
X63370000Y-28120000D01*
D10*
%TO.C,IC1*%
X63920120Y-44770000D02*
G75*
G02*
X60599880Y-44770000I-1660120J0D01*
G01*
X60599880Y-44770000D02*
G75*
G02*
X63920120Y-44770000I1660120J0D01*
G01*
X43600000Y-44770000D02*
G75*
G02*
X40280000Y-44770000I-1660000J0D01*
G01*
X40280000Y-44770000D02*
G75*
G02*
X43600000Y-44770000I1660000J0D01*
G01*
X64910000Y-67630000D02*
G75*
G02*
X62260000Y-70280000I-2650000J0D01*
G01*
X62260000Y-42120000D02*
G75*
G02*
X64910000Y-44770000I0J-2650000D01*
G01*
X41940000Y-70280000D02*
G75*
G02*
X39290000Y-67630000I0J2650000D01*
G01*
X39290000Y-44770000D02*
G75*
G02*
X41940000Y-42120000I2650000J0D01*
G01*
X64910000Y-67630000D02*
X64910000Y-44770000D01*
X62260000Y-70280000D02*
X41940000Y-70280000D01*
X41940000Y-42120000D02*
X62260000Y-42120000D01*
X39290000Y-44770000D02*
X39290000Y-67630000D01*
%TO.C,IC2*%
X92620121Y-44770000D02*
G75*
G02*
X89299881Y-44770000I-1660120J0D01*
G01*
X89299881Y-44770000D02*
G75*
G02*
X92620121Y-44770000I1660120J0D01*
G01*
X72300001Y-44770000D02*
G75*
G02*
X68980001Y-44770000I-1660000J0D01*
G01*
X68980001Y-44770000D02*
G75*
G02*
X72300001Y-44770000I1660000J0D01*
G01*
X93610001Y-67630000D02*
G75*
G02*
X90960001Y-70280000I-2650000J0D01*
G01*
X90960001Y-42120000D02*
G75*
G02*
X93610001Y-44770000I0J-2650000D01*
G01*
X70640001Y-70280000D02*
G75*
G02*
X67990001Y-67630000I0J2650000D01*
G01*
X67990001Y-44770000D02*
G75*
G02*
X70640001Y-42120000I2650000J0D01*
G01*
X93610001Y-67630000D02*
X93610001Y-44770000D01*
X90960001Y-70280000D02*
X70640001Y-70280000D01*
X70640001Y-42120000D02*
X90960001Y-42120000D01*
X67990001Y-44770000D02*
X67990001Y-67630000D01*
%TO.C,IC7*%
X236120118Y-44770000D02*
G75*
G02*
X232799878Y-44770000I-1660120J0D01*
G01*
X232799878Y-44770000D02*
G75*
G02*
X236120118Y-44770000I1660120J0D01*
G01*
X215799998Y-44770000D02*
G75*
G02*
X212479998Y-44770000I-1660000J0D01*
G01*
X212479998Y-44770000D02*
G75*
G02*
X215799998Y-44770000I1660000J0D01*
G01*
X237109998Y-67630000D02*
G75*
G02*
X234459998Y-70280000I-2650000J0D01*
G01*
X234459998Y-42120000D02*
G75*
G02*
X237109998Y-44770000I0J-2650000D01*
G01*
X214139998Y-70280000D02*
G75*
G02*
X211489998Y-67630000I0J2650000D01*
G01*
X211489998Y-44770000D02*
G75*
G02*
X214139998Y-42120000I2650000J0D01*
G01*
X237109998Y-67630000D02*
X237109998Y-44770000D01*
X234459998Y-70280000D02*
X214139998Y-70280000D01*
X214139998Y-42120000D02*
X234459998Y-42120000D01*
X211489998Y-44770000D02*
X211489998Y-67630000D01*
D16*
%TO.C,J9*%
X162819999Y-75560000D02*
X162819999Y-72800000D01*
X144929999Y-75560000D02*
X162819999Y-75560000D01*
X144929999Y-75560000D02*
X144929999Y-72800000D01*
X144929999Y-72800000D02*
X162819999Y-72800000D01*
X143659999Y-75560000D02*
X142279999Y-75560000D01*
X142279999Y-75560000D02*
X142279999Y-74180000D01*
D10*
%TO.C,IC5*%
X178720120Y-44770000D02*
G75*
G02*
X175399880Y-44770000I-1660120J0D01*
G01*
X175399880Y-44770000D02*
G75*
G02*
X178720120Y-44770000I1660120J0D01*
G01*
X158400000Y-44770000D02*
G75*
G02*
X155080000Y-44770000I-1660000J0D01*
G01*
X155080000Y-44770000D02*
G75*
G02*
X158400000Y-44770000I1660000J0D01*
G01*
X179710000Y-67630000D02*
G75*
G02*
X177060000Y-70280000I-2650000J0D01*
G01*
X177060000Y-42120000D02*
G75*
G02*
X179710000Y-44770000I0J-2650000D01*
G01*
X156740000Y-70280000D02*
G75*
G02*
X154090000Y-67630000I0J2650000D01*
G01*
X154090000Y-44770000D02*
G75*
G02*
X156740000Y-42120000I2650000J0D01*
G01*
X179710000Y-67630000D02*
X179710000Y-44770000D01*
X177060000Y-70280000D02*
X156740000Y-70280000D01*
X156740000Y-42120000D02*
X177060000Y-42120000D01*
X154090000Y-44770000D02*
X154090000Y-67630000D01*
%TO.C,IC3*%
X121320121Y-44770000D02*
G75*
G02*
X117999881Y-44770000I-1660120J0D01*
G01*
X117999881Y-44770000D02*
G75*
G02*
X121320121Y-44770000I1660120J0D01*
G01*
X101000001Y-44770000D02*
G75*
G02*
X97680001Y-44770000I-1660000J0D01*
G01*
X97680001Y-44770000D02*
G75*
G02*
X101000001Y-44770000I1660000J0D01*
G01*
X122310001Y-67630000D02*
G75*
G02*
X119660001Y-70280000I-2650000J0D01*
G01*
X119660001Y-42120000D02*
G75*
G02*
X122310001Y-44770000I0J-2650000D01*
G01*
X99340001Y-70280000D02*
G75*
G02*
X96690001Y-67630000I0J2650000D01*
G01*
X96690001Y-44770000D02*
G75*
G02*
X99340001Y-42120000I2650000J0D01*
G01*
X122310001Y-67630000D02*
X122310001Y-44770000D01*
X119660001Y-70280000D02*
X99340001Y-70280000D01*
X99340001Y-42120000D02*
X119660001Y-42120000D01*
X96690001Y-44770000D02*
X96690001Y-67630000D01*
%TO.C,IC8*%
X264820119Y-44770000D02*
G75*
G02*
X261499879Y-44770000I-1660120J0D01*
G01*
X261499879Y-44770000D02*
G75*
G02*
X264820119Y-44770000I1660120J0D01*
G01*
X244499999Y-44770000D02*
G75*
G02*
X241179999Y-44770000I-1660000J0D01*
G01*
X241179999Y-44770000D02*
G75*
G02*
X244499999Y-44770000I1660000J0D01*
G01*
X265809999Y-67630000D02*
G75*
G02*
X263159999Y-70280000I-2650000J0D01*
G01*
X263159999Y-42120000D02*
G75*
G02*
X265809999Y-44770000I0J-2650000D01*
G01*
X242839999Y-70280000D02*
G75*
G02*
X240189999Y-67630000I0J2650000D01*
G01*
X240189999Y-44770000D02*
G75*
G02*
X242839999Y-42120000I2650000J0D01*
G01*
X265809999Y-67630000D02*
X265809999Y-44770000D01*
X263159999Y-70280000D02*
X242839999Y-70280000D01*
X242839999Y-42120000D02*
X263159999Y-42120000D01*
X240189999Y-44770000D02*
X240189999Y-67630000D01*
D16*
%TO.C,J10*%
X134120000Y-75560000D02*
X134120000Y-72800000D01*
X116230000Y-75560000D02*
X134120000Y-75560000D01*
X116230000Y-75560000D02*
X116230000Y-72800000D01*
X116230000Y-72800000D02*
X134120000Y-72800000D01*
X114960000Y-75560000D02*
X113580000Y-75560000D01*
X113580000Y-75560000D02*
X113580000Y-74180000D01*
D10*
%TO.C,IC6*%
X207420121Y-44770000D02*
G75*
G02*
X204099881Y-44770000I-1660120J0D01*
G01*
X204099881Y-44770000D02*
G75*
G02*
X207420121Y-44770000I1660120J0D01*
G01*
X187100001Y-44770000D02*
G75*
G02*
X183780001Y-44770000I-1660000J0D01*
G01*
X183780001Y-44770000D02*
G75*
G02*
X187100001Y-44770000I1660000J0D01*
G01*
X208410001Y-67630000D02*
G75*
G02*
X205760001Y-70280000I-2650000J0D01*
G01*
X205760001Y-42120000D02*
G75*
G02*
X208410001Y-44770000I0J-2650000D01*
G01*
X185440001Y-70280000D02*
G75*
G02*
X182790001Y-67630000I0J2650000D01*
G01*
X182790001Y-44770000D02*
G75*
G02*
X185440001Y-42120000I2650000J0D01*
G01*
X208410001Y-67630000D02*
X208410001Y-44770000D01*
X205760001Y-70280000D02*
X185440001Y-70280000D01*
X185440001Y-42120000D02*
X205760001Y-42120000D01*
X182790001Y-44770000D02*
X182790001Y-67630000D01*
D16*
%TO.C,C2*%
X169337107Y-74547107D02*
G75*
G02*
X164097107Y-74547107I-2620000J0D01*
G01*
X164097107Y-74547107D02*
G75*
G02*
X169337107Y-74547107I2620000J0D01*
G01*
%TD*%
%LPC*%
D17*
%TO.C,IC4*%
X128040001Y-44770000D03*
X148360001Y-44770000D03*
D18*
X129311001Y-67503000D03*
X131851101Y-67503000D03*
X134391101Y-67503000D03*
X136931101Y-67503000D03*
X139471101Y-67503000D03*
X142011101Y-67503000D03*
X144551101Y-67503000D03*
X147091101Y-67503000D03*
D19*
X132972101Y-45913000D03*
X136472101Y-45913000D03*
X139957101Y-45913000D03*
X143457101Y-45913000D03*
%TD*%
D20*
%TO.C,J8*%
X245380000Y-38230000D03*
X250460000Y-38230000D03*
X255540000Y-38230000D03*
D21*
X260620000Y-38230000D03*
%TD*%
D20*
%TO.C,J7*%
X216680000Y-38230000D03*
X221760000Y-38230000D03*
X226840000Y-38230000D03*
D21*
X231920000Y-38230000D03*
%TD*%
D20*
%TO.C,J6*%
X187980000Y-38230000D03*
X193060000Y-38230000D03*
X198140000Y-38230000D03*
D21*
X203220000Y-38230000D03*
%TD*%
D20*
%TO.C,J5*%
X159280000Y-38230000D03*
X164360000Y-38230000D03*
X169440000Y-38230000D03*
D21*
X174520000Y-38230000D03*
%TD*%
D20*
%TO.C,J4*%
X130580000Y-38230000D03*
X135660000Y-38230000D03*
X140740000Y-38230000D03*
D21*
X145820000Y-38230000D03*
%TD*%
D20*
%TO.C,J3*%
X101880000Y-38230000D03*
X106960000Y-38230000D03*
X112040000Y-38230000D03*
D21*
X117120000Y-38230000D03*
%TD*%
D20*
%TO.C,J2*%
X73180000Y-38230000D03*
X78260000Y-38230000D03*
X83340000Y-38230000D03*
D21*
X88420000Y-38230000D03*
%TD*%
D20*
%TO.C,J1*%
X44480000Y-38230000D03*
X49560000Y-38230000D03*
X54640000Y-38230000D03*
D21*
X59720000Y-38230000D03*
%TD*%
D17*
%TO.C,H1*%
X34550000Y-34230000D03*
%TD*%
D19*
%TO.C,IC1*%
X57357100Y-45913000D03*
X53857100Y-45913000D03*
X50372100Y-45913000D03*
X46872100Y-45913000D03*
D18*
X60991100Y-67503000D03*
X58451100Y-67503000D03*
X55911100Y-67503000D03*
X53371100Y-67503000D03*
X50831100Y-67503000D03*
X48291100Y-67503000D03*
X45751100Y-67503000D03*
X43211000Y-67503000D03*
D17*
X62260000Y-44770000D03*
X41940000Y-44770000D03*
%TD*%
D19*
%TO.C,IC2*%
X86057101Y-45913000D03*
X82557101Y-45913000D03*
X79072101Y-45913000D03*
X75572101Y-45913000D03*
D18*
X89691101Y-67503000D03*
X87151101Y-67503000D03*
X84611101Y-67503000D03*
X82071101Y-67503000D03*
X79531101Y-67503000D03*
X76991101Y-67503000D03*
X74451101Y-67503000D03*
X71911001Y-67503000D03*
D17*
X90960001Y-44770000D03*
X70640001Y-44770000D03*
%TD*%
D19*
%TO.C,IC7*%
X229557098Y-45913000D03*
X226057098Y-45913000D03*
X222572098Y-45913000D03*
X219072098Y-45913000D03*
D18*
X233191098Y-67503000D03*
X230651098Y-67503000D03*
X228111098Y-67503000D03*
X225571098Y-67503000D03*
X223031098Y-67503000D03*
X220491098Y-67503000D03*
X217951098Y-67503000D03*
X215410998Y-67503000D03*
D17*
X234459998Y-44770000D03*
X214139998Y-44770000D03*
%TD*%
%TO.C,H3*%
X270550000Y-34230000D03*
%TD*%
D22*
%TO.C,J9*%
X161439999Y-74180000D03*
X158899999Y-74180000D03*
X156359999Y-74180000D03*
X153819999Y-74180000D03*
X151279999Y-74180000D03*
X148739999Y-74180000D03*
X146199999Y-74180000D03*
D23*
X143659999Y-74180000D03*
%TD*%
D19*
%TO.C,IC5*%
X172157100Y-45913000D03*
X168657100Y-45913000D03*
X165172100Y-45913000D03*
X161672100Y-45913000D03*
D18*
X175791100Y-67503000D03*
X173251100Y-67503000D03*
X170711100Y-67503000D03*
X168171100Y-67503000D03*
X165631100Y-67503000D03*
X163091100Y-67503000D03*
X160551100Y-67503000D03*
X158011000Y-67503000D03*
D17*
X177060000Y-44770000D03*
X156740000Y-44770000D03*
%TD*%
D19*
%TO.C,IC3*%
X114757101Y-45913000D03*
X111257101Y-45913000D03*
X107772101Y-45913000D03*
X104272101Y-45913000D03*
D18*
X118391101Y-67503000D03*
X115851101Y-67503000D03*
X113311101Y-67503000D03*
X110771101Y-67503000D03*
X108231101Y-67503000D03*
X105691101Y-67503000D03*
X103151101Y-67503000D03*
X100611001Y-67503000D03*
D17*
X119660001Y-44770000D03*
X99340001Y-44770000D03*
%TD*%
%TO.C,H2*%
X34550000Y-73230000D03*
%TD*%
D19*
%TO.C,IC8*%
X258257099Y-45913000D03*
X254757099Y-45913000D03*
X251272099Y-45913000D03*
X247772099Y-45913000D03*
D18*
X261891099Y-67503000D03*
X259351099Y-67503000D03*
X256811099Y-67503000D03*
X254271099Y-67503000D03*
X251731099Y-67503000D03*
X249191099Y-67503000D03*
X246651099Y-67503000D03*
X244110999Y-67503000D03*
D17*
X263159999Y-44770000D03*
X242839999Y-44770000D03*
%TD*%
%TO.C,H4*%
X270490000Y-73230000D03*
%TD*%
D22*
%TO.C,J10*%
X132740000Y-74180000D03*
X130200000Y-74180000D03*
X127660000Y-74180000D03*
X125120000Y-74180000D03*
X122580000Y-74180000D03*
X120040000Y-74180000D03*
X117500000Y-74180000D03*
D23*
X114960000Y-74180000D03*
%TD*%
D19*
%TO.C,IC6*%
X200857101Y-45913000D03*
X197357101Y-45913000D03*
X193872101Y-45913000D03*
X190372101Y-45913000D03*
D18*
X204491101Y-67503000D03*
X201951101Y-67503000D03*
X199411101Y-67503000D03*
X196871101Y-67503000D03*
X194331101Y-67503000D03*
X191791101Y-67503000D03*
X189251101Y-67503000D03*
X186711001Y-67503000D03*
D17*
X205760001Y-44770000D03*
X185440001Y-44770000D03*
%TD*%
D24*
%TO.C,C2*%
X166010000Y-73840000D03*
X167424214Y-75254214D03*
%TD*%
%LPD*%
M02*
